<svg width="506" height="506" viewBox="0 0 506 506" fill="none" xmlns="http://www.w3.org/2000/svg">
    <circle cx="253" cy="253" r="250" fill="white"/>
    <mask id="path-2-inside-1_48_12" fill="white">
        <path d="M253 11C253 6.58172 249.417 2.98663 245.001 3.12798C206.98 4.34498 169.699 14.2252 136.018 32.0586C99.9771 51.141 69.1519 78.7503 46.2299 112.479C23.3078 146.208 8.98479 185.032 4.50976 225.566C0.0347336 266.101 5.54355 307.114 20.5559 345.031C35.5682 382.948 59.6282 416.617 90.638 443.101C121.648 469.586 158.666 488.083 198.464 496.979C238.263 505.875 279.633 504.9 318.968 494.139C355.729 484.083 389.669 465.765 418.218 440.625C421.534 437.705 421.685 432.631 418.66 429.41L255.168 255.309C253.775 253.826 253 251.867 253 249.833L253 11Z"/>
    </mask>
    <path d="M253 11C253 6.58172 249.417 2.98663 245.001 3.12798C206.98 4.34498 169.699 14.2252 136.018 32.0586C99.9771 51.141 69.1519 78.7503 46.2299 112.479C23.3078 146.208 8.98479 185.032 4.50976 225.566C0.0347336 266.101 5.54355 307.114 20.5559 345.031C35.5682 382.948 59.6282 416.617 90.638 443.101C121.648 469.586 158.666 488.083 198.464 496.979C238.263 505.875 279.633 504.9 318.968 494.139C355.729 484.083 389.669 465.765 418.218 440.625C421.534 437.705 421.685 432.631 418.66 429.41L255.168 255.309C253.775 253.826 253 251.867 253 249.833L253 11Z" fill="#0000002c" stroke="white" stroke-width="6" mask="url(#path-2-inside-1_48_12)"/>
    <mask id="path-3-inside-2_48_12" fill="white">
        <path d="M253 11C253 6.58172 256.583 2.98664 260.999 3.12797C308.31 4.64213 354.281 19.5622 393.521 46.23C434.97 74.3985 466.996 114.374 485.444 160.969C503.893 207.565 507.911 258.629 496.979 307.536C486.629 353.838 463.331 396.183 429.88 429.674C426.757 432.8 421.684 432.632 418.66 429.411L255.168 255.309C253.775 253.826 253 251.867 253 249.833L253 11Z"/>
    </mask>
    <path d="M253 11C253 6.58172 256.583 2.98664 260.999 3.12797C308.31 4.64213 354.281 19.5622 393.521 46.23C434.97 74.3985 466.996 114.374 485.444 160.969C503.893 207.565 507.911 258.629 496.979 307.536C486.629 353.838 463.331 396.183 429.88 429.674C426.757 432.8 421.684 432.632 418.66 429.411L255.168 255.309C253.775 253.826 253 251.867 253 249.833L253 11Z" fill="#E16969" stroke="white" stroke-width="6" mask="url(#path-3-inside-2_48_12)"/>
    <path d="M345.733 215.477C343.188 215.477 340.92 215.04 338.932 214.165C336.955 213.278 335.392 212.062 334.244 210.517C333.108 208.96 332.523 207.165 332.489 205.131H339.92C339.966 205.983 340.244 206.733 340.756 207.381C341.278 208.017 341.972 208.511 342.835 208.864C343.699 209.216 344.67 209.392 345.75 209.392C346.875 209.392 347.869 209.193 348.733 208.795C349.597 208.398 350.273 207.847 350.761 207.142C351.25 206.437 351.494 205.625 351.494 204.705C351.494 203.773 351.233 202.949 350.71 202.233C350.199 201.506 349.46 200.937 348.494 200.528C347.54 200.119 346.403 199.915 345.085 199.915H341.83V194.494H345.085C346.199 194.494 347.182 194.301 348.034 193.915C348.898 193.528 349.568 192.994 350.045 192.312C350.523 191.619 350.761 190.812 350.761 189.892C350.761 189.017 350.551 188.25 350.131 187.591C349.722 186.92 349.142 186.398 348.392 186.023C347.653 185.648 346.79 185.46 345.801 185.46C344.801 185.46 343.886 185.642 343.057 186.006C342.227 186.358 341.562 186.864 341.062 187.523C340.562 188.182 340.295 188.955 340.261 189.841H333.188C333.222 187.83 333.795 186.057 334.909 184.523C336.023 182.989 337.523 181.79 339.409 180.926C341.307 180.051 343.449 179.614 345.835 179.614C348.244 179.614 350.352 180.051 352.159 180.926C353.966 181.801 355.369 182.983 356.369 184.472C357.381 185.949 357.881 187.608 357.869 189.449C357.881 191.403 357.273 193.034 356.045 194.341C354.83 195.648 353.244 196.477 351.29 196.83V197.102C353.858 197.432 355.813 198.324 357.153 199.778C358.506 201.222 359.176 203.028 359.165 205.199C359.176 207.188 358.602 208.955 357.443 210.5C356.295 212.045 354.71 213.261 352.688 214.148C350.665 215.034 348.347 215.477 345.733 215.477ZM377.493 215.477C374.868 215.477 372.533 215.051 370.487 214.199C368.453 213.335 366.857 212.159 365.697 210.67C364.538 209.182 363.959 207.494 363.959 205.608C363.959 204.153 364.288 202.818 364.947 201.602C365.618 200.375 366.527 199.358 367.675 198.551C368.822 197.733 370.107 197.21 371.527 196.983V196.744C369.663 196.369 368.152 195.466 366.993 194.034C365.834 192.591 365.254 190.915 365.254 189.006C365.254 187.199 365.783 185.591 366.839 184.182C367.896 182.761 369.345 181.648 371.186 180.841C373.038 180.023 375.141 179.614 377.493 179.614C379.845 179.614 381.942 180.023 383.783 180.841C385.635 181.659 387.089 182.778 388.146 184.199C389.203 185.608 389.737 187.21 389.749 189.006C389.737 190.926 389.146 192.602 387.976 194.034C386.805 195.466 385.305 196.369 383.476 196.744V196.983C384.874 197.21 386.141 197.733 387.277 198.551C388.425 199.358 389.334 200.375 390.004 201.602C390.686 202.818 391.033 204.153 391.044 205.608C391.033 207.494 390.447 209.182 389.288 210.67C388.129 212.159 386.527 213.335 384.482 214.199C382.447 215.051 380.118 215.477 377.493 215.477ZM377.493 210.057C378.663 210.057 379.686 209.847 380.561 209.426C381.436 208.994 382.118 208.403 382.607 207.653C383.107 206.892 383.357 206.017 383.357 205.028C383.357 204.017 383.101 203.125 382.589 202.352C382.078 201.568 381.385 200.955 380.51 200.511C379.635 200.057 378.629 199.83 377.493 199.83C376.368 199.83 375.362 200.057 374.476 200.511C373.589 200.955 372.891 201.568 372.379 202.352C371.879 203.125 371.629 204.017 371.629 205.028C371.629 206.017 371.874 206.892 372.362 207.653C372.851 208.403 373.538 208.994 374.425 209.426C375.311 209.847 376.334 210.057 377.493 210.057ZM377.493 194.46C378.47 194.46 379.339 194.261 380.101 193.864C380.862 193.466 381.459 192.915 381.891 192.21C382.322 191.506 382.538 190.693 382.538 189.773C382.538 188.864 382.322 188.068 381.891 187.386C381.459 186.693 380.868 186.153 380.118 185.767C379.368 185.369 378.493 185.17 377.493 185.17C376.504 185.17 375.629 185.369 374.868 185.767C374.107 186.153 373.51 186.693 373.078 187.386C372.658 188.068 372.447 188.864 372.447 189.773C372.447 190.693 372.663 191.506 373.095 192.21C373.527 192.915 374.124 193.466 374.885 193.864C375.646 194.261 376.516 194.46 377.493 194.46ZM415.312 208.455V206.614C415.312 205.216 415.608 203.932 416.199 202.761C416.801 201.58 417.67 200.636 418.807 199.932C419.955 199.216 421.352 198.858 423 198.858C424.67 198.858 426.074 199.21 427.21 199.915C428.358 200.619 429.222 201.562 429.801 202.744C430.392 203.915 430.688 205.205 430.688 206.614V208.455C430.688 209.852 430.392 211.142 429.801 212.324C429.21 213.494 428.341 214.432 427.193 215.136C426.045 215.852 424.648 216.21 423 216.21C421.33 216.21 419.926 215.852 418.79 215.136C417.653 214.432 416.79 213.494 416.199 212.324C415.608 211.142 415.312 209.852 415.312 208.455ZM420.273 206.614V208.455C420.273 209.261 420.466 210.023 420.852 210.739C421.25 211.455 421.966 211.812 423 211.812C424.034 211.812 424.739 211.46 425.114 210.756C425.5 210.051 425.693 209.284 425.693 208.455V206.614C425.693 205.784 425.511 205.011 425.148 204.295C424.784 203.58 424.068 203.222 423 203.222C421.977 203.222 421.267 203.58 420.869 204.295C420.472 205.011 420.273 205.784 420.273 206.614ZM397.398 188.477V186.636C397.398 185.227 397.699 183.937 398.301 182.767C398.903 181.585 399.773 180.642 400.909 179.938C402.057 179.233 403.443 178.881 405.068 178.881C406.75 178.881 408.159 179.233 409.295 179.938C410.432 180.642 411.295 181.585 411.886 182.767C412.477 183.937 412.773 185.227 412.773 186.636V188.477C412.773 189.886 412.472 191.176 411.869 192.347C411.278 193.517 410.409 194.455 409.261 195.159C408.125 195.852 406.727 196.199 405.068 196.199C403.409 196.199 402.006 195.847 400.858 195.142C399.722 194.426 398.858 193.489 398.267 192.33C397.688 191.159 397.398 189.875 397.398 188.477ZM402.392 186.636V188.477C402.392 189.307 402.585 190.074 402.972 190.778C403.369 191.483 404.068 191.835 405.068 191.835C406.114 191.835 406.824 191.483 407.199 190.778C407.585 190.074 407.778 189.307 407.778 188.477V186.636C407.778 185.807 407.597 185.034 407.233 184.318C406.869 183.602 406.148 183.244 405.068 183.244C404.057 183.244 403.358 183.608 402.972 184.335C402.585 185.062 402.392 185.83 402.392 186.636ZM399.648 215L423.648 180.091H428.114L404.114 215H399.648Z" fill="white"/>
    <circle cx="253" cy="253" r="251.5" stroke="white" stroke-width="3"/>
</svg>