<svg width="866" height="262" viewBox="0 0 866 262" fill="none" xmlns="http://www.w3.org/2000/svg">
    <g clip-path="url(#clip0_85_17)">
        <path d="M60.4693 276.105C52.6477 281.934 43.6894 291.536 32.5761 302.369C40.7851 291.218 55.7362 275.894 56.4589 272.349C45.4983 274.427 19.6608 281.784 23.5301 315.391C61.4391 307.396 60.4693 276.105 60.4693 276.105Z" fill="#7E9B24"/>
        <path d="M72.5886 249.491C69.8069 237.092 56.5346 213.127 25.6989 216.457C25.414 228.21 33.4522 251.77 67.8837 251.989C59.9547 243.957 46.4615 231.723 42.3918 228.375C55.7171 235.728 63.7546 243.415 72.5886 249.491Z" fill="#7E9B24"/>
        <path d="M273.157 241.454C260.398 244.122 259.532 246.339 258.518 250.097C270.519 249.965 282.351 249.842 293.852 249.728C296.837 244.034 289.567 238.338 289.21 222.486C284.224 223.569 277.255 224.305 269.484 224.728C269.825 232.173 270.436 235.999 273.157 241.454Z" fill="#88236B"/>
        <path d="M196.275 193.925C201.821 201.675 210.863 215.571 211.003 221.794C232.124 225.124 248.133 225.888 269.484 224.728C277.255 224.305 284.224 223.569 289.21 222.486C289.92 222.332 290.588 222.171 291.214 222.003C289.643 217.278 291.529 200.205 308.43 189.57C302.915 191.342 291.077 198.018 287.843 210.543C250.574 217.811 220.896 213.881 196.275 193.925Z" fill="#AD289B"/>
        <path d="M133.257 209.078C133.989 209.061 145.699 208.614 151.136 206.112C152.533 207.033 154.553 208.245 157.074 209.606C162.074 212.307 169.047 215.598 177.049 218.393C181.291 219.874 185.823 221.216 190.504 222.256C181.917 212.316 164.215 193.175 163.098 192.475C162.106 191.853 160.096 193.631 157.153 196.234C151.948 200.839 143.824 208.026 133.257 209.078Z" fill="#AD289B"/>
        <path d="M134.023 243.12C125.557 247.156 115.891 242.979 110.789 252.26C121.543 252.042 132.827 251.835 144.469 251.639C163.76 239.004 168.628 231.604 177.049 218.393C169.047 215.598 162.074 212.307 157.074 209.606C151.519 223.133 142.847 236.513 134.023 243.12Z" fill="#88236B"/>
        <path d="M312.426 253.206C312.063 253.418 311.711 253.619 311.369 253.813C311.321 253.84 311.271 253.869 311.223 253.896C307.876 255.796 305.548 257.118 304.028 262.565C303.786 263.431 303.565 264.402 303.363 265.496C303.256 266.341 302.809 267.224 302.17 267.986C302.798 267.24 304.04 265.633 304.222 264.873C304.388 264.059 304.614 263.294 304.901 262.562C306.195 259.253 308.718 256.615 312.426 253.206Z" fill="#A028A6"/>
        <path d="M293.852 249.728C282.351 249.842 270.519 249.965 258.518 250.097C237.085 250.333 215.113 250.598 193.529 250.894C193.529 250.894 192.818 251.869 186.856 255.482C183.626 257.44 182.482 259.575 181.504 263.046C181.214 264.073 180.939 265.216 180.629 266.506C180.442 267.283 180.242 268.114 180.019 269.004C179.905 269.457 179.775 269.878 179.629 270.269C208.261 270.196 256.935 270.746 304.046 271.431C303.781 268.863 303.841 266.74 304.222 264.873C304.04 265.633 302.798 267.24 302.17 267.986L302.138 268.023C299.991 270.544 295.737 271.698 294.761 265.689C294.598 264.685 294.506 263.65 294.501 262.602C294.479 257.953 296.172 253.067 300.962 249.658C298.607 249.681 296.237 249.704 293.852 249.728Z" fill="#8A5326"/>
        <path d="M222.392 109.477C229.749 119.985 233.262 158.603 234.17 168.586C234.289 169.898 234.364 170.717 234.396 170.91C234.672 172.57 237.313 181.077 242.465 171.461C251.104 155.337 249.217 116.617 243.717 105.013C236.459 105.871 229.263 107.368 222.392 109.477Z" fill="#E63BDB"/>
        <path d="M182.254 132.346C188.883 142.086 195.088 165.569 196.293 170.303C197.498 175.037 200.289 176.988 205.994 170.084C211.698 163.181 207.393 126.47 200.637 119.215C194.009 123.276 187.071 128.312 182.254 132.346Z" fill="#E63BDB"/>
        <path d="M280.483 106.441C278.044 105.915 275.552 105.481 273.019 105.139C274.589 125.267 272.066 160.431 270.778 168.297C269.49 176.163 274.397 176.86 278.888 170.641C293.617 154.635 295.597 123.816 294.746 110.407C289.991 108.774 285.269 107.465 280.483 106.441Z" fill="#E63BDB"/>
        <path d="M316.2 119.871C315.102 136.493 310.103 166.277 308.721 169.97C307.339 173.664 308.499 176.384 314.074 171.864C319.649 167.344 329.481 149.047 334.419 132.035C328.575 127.327 322.599 123.357 316.2 119.871Z" fill="#E63BDB"/>
        <path d="M117.273 99.4553C105.282 110.2 101.887 112.29 88.8028 116.76C88.1561 116.982 87.5142 117.208 86.8769 117.437C115.981 111.292 132.163 110.61 159.172 147.809C164.766 151.541 167.538 149.733 172.07 142.098C174.142 139.781 178.3 125.99 180.348 114.48C181.845 106.133 182.445 100.259 182.535 92.8594C182.653 83.4443 181.371 78.5656 178.125 75.9285C175.7 73.9321 173.602 73.4666 167.929 73.6308C159.767 73.8512 152.31 76.1065 142.282 81.313C133.92 85.6763 127.181 90.5525 117.273 99.4553Z" fill="#821B65"/>
        <path d="M97.2183 136.458C94.9377 137.644 93.5674 141.85 94.4427 144.944C95.3139 147.854 98.8343 149.679 102.337 149.088C105.401 148.542 106.999 146.309 106.917 142.685C106.852 139.793 105.486 137.663 102.97 136.548C100.678 135.574 98.9556 135.54 97.2183 136.458Z" fill="#141311"/>
        <path d="M808.352 275.637C815.414 280.895 823.404 289.226 833.069 298.76C833.389 299.076 833.822 298.698 833.542 298.346C825.127 287.724 813.011 275.061 812.36 271.88C823.322 273.952 849.163 281.296 845.311 314.905C807.398 306.929 808.352 275.637 808.352 275.637Z" fill="#7E9B24"/>
        <path d="M592.972 241.399C605.731 244.06 606.598 246.277 607.614 250.035C595.613 249.909 583.781 249.792 572.28 249.683C569.292 243.991 576.56 238.291 576.908 222.439C581.895 223.519 588.865 224.252 596.636 224.671C596.299 232.116 595.69 235.942 592.972 241.399Z" fill="#6E8823"/>
        <path d="M669.829 193.831C664.287 201.584 655.253 215.485 655.116 221.708C633.996 225.049 617.988 225.82 596.636 224.671C588.865 224.252 581.895 223.519 576.908 222.439C576.199 222.286 575.53 222.125 574.905 221.957C576.474 217.231 574.579 200.159 557.673 189.532C563.188 191.302 575.03 197.972 578.27 210.495C615.543 217.745 645.218 213.799 669.829 193.831Z" fill="#90AD28"/>
        <path d="M732.855 208.953C732.123 208.936 720.413 208.496 714.975 205.995C713.578 206.918 711.559 208.13 709.038 209.493C704.039 212.196 697.069 215.491 689.068 218.29C684.826 219.773 680.295 221.117 675.615 222.159C684.196 212.216 701.89 193.065 703.006 192.364C703.997 191.742 706.008 193.519 708.953 196.121C714.16 200.724 722.288 207.906 732.855 208.953Z" fill="#90AD28"/>
        <path d="M732.106 242.996C740.574 247.027 750.238 242.845 755.344 252.123C744.591 251.911 733.307 251.71 721.664 251.519C702.367 238.894 697.495 231.497 689.068 218.29C697.069 215.491 704.039 212.196 709.038 209.493C714.6 223.017 723.279 236.392 732.106 242.996Z" fill="#6E8823"/>
        <path d="M688.869 252.299C694.066 253.611 695.85 254.469 696.959 261.022C697.058 261.608 697.151 262.239 697.242 262.921C697.717 266.512 699.371 268.234 701.147 268.514C697.932 268.161 696.143 265.713 695.651 264.534C695.7 263.308 695.664 262.138 695.504 261.028C694.994 257.478 693.214 254.535 688.869 252.299Z" fill="#8EA628"/>
        <path d="M553.709 253.17C554.123 253.413 554.524 253.64 554.911 253.859C558.051 255.64 560.293 256.912 561.816 261.553C562.176 262.649 562.496 263.933 562.777 265.456C562.885 266.301 563.332 267.184 563.972 267.945C563.343 267.2 562.101 265.593 561.918 264.833C561.678 263.655 561.31 262.579 560.817 261.557C559.43 258.684 557.05 256.24 553.709 253.17Z" fill="#8EA628"/>
        <path d="M572.28 249.683C583.781 249.792 595.613 249.909 607.614 250.035C629.048 250.26 651.02 250.514 672.604 250.799C672.604 250.799 673.315 251.773 679.279 255.384C681.885 256.962 683.134 258.656 684.034 261.073C684.58 262.539 684.997 264.271 685.512 266.405C685.583 266.701 685.656 267.005 685.732 267.317C685.855 267.824 685.985 268.352 686.123 268.902C686.237 269.355 686.368 269.776 686.514 270.167C657.881 270.108 609.208 270.682 562.097 271.391C562.361 268.824 562.299 266.7 561.918 264.833C562.101 265.593 563.343 267.2 563.972 267.945L564.004 267.983C566.152 270.502 570.406 271.654 571.38 265.645C571.596 264.309 571.686 262.916 571.613 261.514C571.387 257.188 569.604 252.769 565.171 249.617C567.525 249.639 569.896 249.661 572.28 249.683Z" fill="#8A5326"/>
        <path d="M643.67 109.396C636.318 119.908 632.825 158.528 631.922 168.511C631.803 169.825 631.729 170.643 631.697 170.836C631.422 172.496 628.785 181.003 623.628 171.39C614.981 155.271 616.849 116.55 622.343 104.943C629.601 105.797 636.799 107.291 643.67 109.396Z" fill="#E3E63B"/>
        <path d="M683.82 132.246C677.196 141.988 671.003 165.474 669.8 170.209C668.597 174.944 665.807 176.896 660.099 169.996C654.391 163.095 658.678 126.382 665.43 119.123C672.061 123.181 679.001 128.214 683.82 132.246Z" fill="#E3E63B"/>
        <path d="M585.578 106.389C588.017 105.862 590.509 105.427 593.041 105.083C591.481 125.212 594.022 160.375 595.314 168.241C596.606 176.106 591.699 176.806 587.205 170.589C572.468 154.59 570.473 123.772 571.317 110.363C576.071 108.727 580.792 107.416 585.578 106.389Z" fill="#E3E63B"/>
        <path d="M549.867 119.837C550.973 136.459 555.988 166.24 557.371 169.932C558.755 173.625 557.596 176.347 552.019 171.829C546.442 167.311 536.601 149.02 531.654 132.011C537.496 127.3 543.47 123.327 549.867 119.837Z" fill="#E3E63B"/>
        <path d="M748.784 99.3223C760.78 110.061 764.177 112.15 777.263 116.613C777.91 116.834 778.552 117.06 779.19 117.289C750.082 111.158 733.9 110.484 706.909 147.696C701.317 151.432 698.545 149.625 694.009 141.992C691.936 139.676 687.771 125.887 685.717 114.379C684.216 106.032 683.613 100.159 683.519 92.7589C683.397 83.3439 684.676 78.4645 687.92 75.8258C690.345 73.8282 692.443 73.3616 698.116 73.5231C706.278 73.7393 713.736 75.991 723.767 81.1925C732.131 85.5516 738.872 90.4244 748.784 99.3223Z" fill="#76821B"/>
        <path fill-rule="evenodd" clip-rule="evenodd" d="M756.76 162.967C744.933 162.706 735.558 152.826 735.82 140.898C736.083 128.97 745.883 119.511 757.71 119.772C769.537 120.032 778.912 129.912 778.649 141.84C778.387 153.768 768.586 163.227 756.76 162.967Z" fill="#CC2BB1"/>
        <path d="M768.858 136.315C771.139 137.5 772.511 141.705 771.637 144.799C770.768 147.71 767.248 149.537 763.745 148.947C760.681 148.403 759.082 146.171 759.162 142.547C759.225 139.655 760.591 137.524 763.106 136.408C765.398 135.433 767.12 135.397 768.858 136.315Z" fill="#141311"/>
        <path fill-rule="evenodd" clip-rule="evenodd" d="M735.82 140.898C735.558 152.826 744.933 162.706 756.76 162.967C768.586 163.227 778.387 153.768 778.649 141.84C778.912 129.912 769.537 120.032 757.71 119.772C745.883 119.511 736.083 128.97 735.82 140.898ZM771.637 144.799C772.511 141.705 771.139 137.5 768.858 136.315C767.12 135.397 765.398 135.433 763.106 136.408C760.591 137.524 759.225 139.655 759.162 142.547C759.082 146.171 760.681 148.403 763.745 148.947C767.248 149.537 770.768 147.71 771.637 144.799Z" fill="#FEFEFF"/>
        <path fill-rule="evenodd" clip-rule="evenodd" d="M430.739 166.476C431.508 163.264 431.991 159.779 431.789 155.751L431.38 150.918C430.833 156.609 430.39 163.071 430.682 165.937C430.701 166.118 430.72 166.298 430.739 166.476Z" fill="#B8CC2B"/>
        <path d="M326.064 252.935C322.912 254.846 319.065 257.179 316.104 262.518C314.798 264.873 313.664 267.814 312.839 271.561C374.785 271.32 544.349 271.249 553.305 271.525C552.371 267.295 551.044 264.093 549.52 261.601C546.635 256.883 543.043 254.707 540.07 252.906C538.173 251.757 536.529 250.76 535.481 249.354C517.506 249.495 359.998 249.116 330.651 249.38C329.604 250.787 327.96 251.785 326.064 252.935Z" fill="#8A5326"/>
        <path d="M808.352 275.637C815.414 280.895 823.404 289.226 833.069 298.76C833.389 299.076 833.822 298.698 833.542 298.346C825.127 287.724 813.011 275.061 812.36 271.88C812.238 271.282 812.373 271.268 813.309 271.168C820.467 270.41 856.846 269.334 859.899 267.89C864.519 265.706 865.543 262.701 864.606 260.364C863.931 258.681 862.239 257.345 860.141 256.909C855.242 255.891 824.218 254.88 800.137 253.995C799.536 253.921 799.288 253.192 799.712 252.759C800.101 252.362 800.506 251.95 800.925 251.525C807.432 244.928 818.411 236.12 824.125 231.101C824.459 230.807 823.99 229.882 823.608 230.11C812.288 236.853 804.263 243.491 796.219 249.029C794.413 250.273 792.425 252.403 790.5 253.495C780.379 253.241 766.904 252.352 755.344 252.123C744.591 251.911 733.307 251.71 721.664 251.519C715.51 251.418 709.255 251.32 702.925 251.226C704.968 253.664 706.136 256.902 706.361 260.985C706.398 261.673 706.409 262.386 706.393 263.122C706.02 266.763 703.478 268.88 701.147 268.514C697.932 268.161 696.143 265.713 695.651 264.534C695.602 265.758 695.468 267.038 695.291 268.371C695.201 269.039 695.062 269.652 694.88 270.207C704.087 270.283 718.2 270.198 718.2 270.198C740.428 270.217 797.505 270.283 799.043 270.488C801.996 271.418 805.074 273.197 808.352 275.637Z" fill="#8A5326"/>
        <path d="M176.767 252.243C171.148 253.831 169.562 254.767 168.697 263.096C168.322 266.699 166.718 268.468 164.95 268.797C168.154 268.354 169.873 265.857 170.333 264.664C170.296 264.129 170.276 263.604 170.276 263.09C170.273 258.666 171.732 255.016 176.767 252.243Z" fill="#A028A6"/>
        <path fill-rule="evenodd" clip-rule="evenodd" d="M97.2183 136.458C94.9377 137.644 93.5674 141.85 94.4427 144.944C95.3139 147.854 98.8343 149.679 102.337 149.088C105.401 148.542 106.999 146.309 106.917 142.685C106.852 139.793 105.486 137.663 102.97 136.548C100.678 135.574 98.9556 135.54 97.2183 136.458Z" fill="#282828"/>
        <path fill-rule="evenodd" clip-rule="evenodd" d="M109.33 163.104C121.156 162.838 130.526 152.952 130.258 141.025C129.989 129.097 120.184 119.643 108.358 119.909C96.5309 120.175 87.161 130.061 87.4294 141.988C87.6978 153.916 97.5029 163.37 109.33 163.104ZM94.4427 144.944C93.5674 141.85 94.9377 137.644 97.2183 136.458C98.9556 135.54 100.678 135.574 102.97 136.548C105.486 137.663 106.852 139.793 106.917 142.685C106.999 146.309 105.401 148.542 102.337 149.088C98.8343 149.679 95.3139 147.854 94.4427 144.944Z" fill="white"/>
        <path d="M32.5761 302.369C43.6894 291.536 52.6477 281.934 60.4693 276.105C63.7458 273.663 66.8229 271.882 69.7754 270.951C71.4185 270.731 114.251 269.95 135.494 270.021C127.79 272.685 110.659 287.977 109.221 290.573C107.784 293.169 110.155 299.525 113.754 296.697C131.787 276.148 147.441 271.95 154.558 270.874C156.089 270.571 162.056 270.393 171.263 270.313C171.066 269.763 170.909 269.155 170.801 268.49C170.585 267.162 170.416 265.886 170.333 264.664C169.873 265.857 168.154 268.354 164.95 268.797C162.631 269.229 160.03 267.184 159.554 263.556C159.551 263.414 159.549 263.273 159.548 263.132C159.517 258.214 160.889 254.107 163.208 251.336C156.878 251.434 150.624 251.535 144.469 251.639C132.827 251.835 121.543 252.042 110.789 252.26C99.2294 252.494 88.2823 252.74 78.1611 253C76.2356 251.908 74.3954 250.733 72.5886 249.491C63.7546 243.415 55.7171 235.728 42.3918 228.375C46.4615 231.723 59.9547 243.957 67.8837 251.989C68.6915 252.807 69.4457 253.576 70.132 254.279C47.8396 254.367 10.3593 255.151 5.34642 256.195C1.68709 256.957 -0.733273 260.458 1.31811 263.754C2.0769 264.972 3.44751 266.163 5.59354 267.176C8.64748 268.619 48.3487 270.884 55.5069 271.638C56.4425 271.737 56.5808 271.751 56.4589 272.349C55.7362 275.894 40.7851 291.218 32.5761 302.369Z" fill="#8A5326"/>
        <path fill-rule="evenodd" clip-rule="evenodd" d="M431.249 66.5305C431.228 66.3497 431.208 66.1699 431.189 65.9913C431.204 66.1286 431.219 66.2665 431.234 66.4051C431.239 66.4468 431.244 66.4886 431.249 66.5305Z" fill="#2BC4CC"/>
        <path fill-rule="evenodd" clip-rule="evenodd" d="M211.003 221.794C210.863 215.571 201.821 201.675 196.275 193.925C220.896 213.881 250.574 217.811 287.843 210.543C291.077 198.018 302.915 191.342 308.43 189.57C291.529 200.205 289.643 217.278 291.214 222.003C295.064 230.34 298.586 234.047 311.525 245.718C306.975 246.433 303.525 247.834 300.962 249.658C296.172 253.067 294.479 257.953 294.501 262.602C294.506 263.65 294.598 264.685 294.761 265.689C295.737 271.698 299.991 270.544 302.138 268.023L302.17 267.986C302.809 267.224 303.256 266.341 303.363 265.496C303.565 264.402 303.786 263.431 304.028 262.565C305.548 257.118 307.876 255.796 311.223 253.896L311.369 253.813C311.711 253.619 312.063 253.418 312.426 253.206C308.718 256.615 306.195 259.253 304.901 262.562C304.614 263.294 304.388 264.059 304.222 264.873C303.841 266.74 303.781 268.863 304.046 271.431C304.319 274.081 309.163 279.099 312.839 271.561C313.664 267.814 314.798 264.873 316.104 262.518C319.065 257.179 322.912 254.846 326.064 252.935C327.96 251.785 329.604 250.787 330.651 249.38C330.967 245.24 328.782 241.179 322.389 232.106C321.336 230.413 320.374 228.286 319.471 226.292C318.256 223.606 317.15 221.162 316.081 220.345C316.358 219.908 316.431 219.708 316.522 219.458C316.53 219.436 316.538 219.413 316.546 219.39C316.564 219.342 316.583 219.29 316.605 219.235C317.901 215.938 323.487 211.878 329.772 207.31C334.407 203.94 339.422 200.295 343.378 196.475C344.405 217.693 381.808 211.212 394.832 204.473C395.485 204.135 396.113 203.81 396.717 203.498C411.637 195.785 412.113 195.539 419.19 186.712C424.863 179.637 428.981 173.818 430.739 166.476C430.72 166.298 430.701 166.118 430.682 165.937C430.39 163.071 430.833 156.609 431.38 150.918L431.046 144.267C430.3 129.406 419.581 121.888 409.967 115.145C406.494 112.71 401 109.5 401 109.5C401 109.5 397.167 107.17 394.832 105.5C384.858 98.3666 378.384 94.4858 373.328 82.6186C367.286 68.4411 363.691 58.71 373.042 44.5111C383.666 28.3775 407.766 20.2405 414.369 40.3344C415.534 43.8782 416.523 46.8059 417.355 49.2691C421.243 60.7724 421.706 62.1423 420.584 68.8011C418.563 80.8033 432.134 84.9061 432.098 73.4051C431.842 72.4821 431.671 71.4207 431.61 70.2153C431.566 69.3277 431.477 68.4857 431.383 67.6732C431.376 67.6192 431.37 67.5653 431.364 67.5116C431.354 67.4308 431.345 67.3504 431.336 67.2701L431.33 67.224L431.326 67.1891L431.323 67.1637L431.321 67.1504L431.321 67.1465C431.32 67.1347 431.318 67.1229 431.317 67.1112C431.299 66.9613 431.281 66.8123 431.264 66.6642C431.254 66.5776 431.244 66.4912 431.234 66.4051C431.219 66.2665 431.204 66.1286 431.189 65.9913C431.17 65.8147 431.153 65.6392 431.137 65.4649C430.592 59.4855 430.463 55.2844 430.556 50.4404C429.796 47.0791 428.496 43.148 426.208 37.2575C414.107 6.10344 384.464 13.0993 365.236 27.6378C344.819 43.0754 349.248 64.3534 358.217 88.327C362.436 99.6039 374.267 112.267 381.527 118.134C383.46 119.696 386 121.163 388.749 122.749C396.325 127.122 405.479 132.406 407.825 143.112C408.104 144.388 408.378 145.529 408.629 146.575C409.853 151.678 410.198 154.669 408.646 159.453C406.517 166.012 402.401 168.651 396.575 172.34C390.039 176.479 384.578 179.913 377.531 177.798C373.491 176.584 373.034 175.87 371.048 172.767C370.076 171.246 368.736 169.152 366.428 166.145C355.05 151.391 344.948 140.516 334.419 132.035C329.481 149.047 319.649 167.344 314.074 171.864C308.499 176.384 307.339 173.664 308.721 169.97C310.103 166.277 315.102 136.493 316.2 119.871C314.101 118.727 311.955 117.635 309.754 116.586C304.645 114.146 299.678 112.102 294.746 110.407C295.597 123.816 293.617 154.635 278.888 170.641C274.397 176.86 269.49 176.163 270.778 168.297C272.066 160.431 274.589 125.267 273.019 105.139C263.588 103.862 253.596 103.845 243.717 105.013C236.459 105.871 229.263 107.368 222.392 109.477C218.312 110.729 214.346 112.197 210.552 113.874C207.575 115.184 204.149 117.062 200.637 119.215C207.393 126.47 211.698 163.181 205.994 170.084C200.289 176.988 197.498 175.037 196.293 170.303C195.088 165.569 188.883 142.086 182.254 132.346C178.154 135.999 175.937 138.137 172.07 142.098C167.538 149.733 164.766 151.541 159.172 147.809C132.163 110.61 115.981 111.292 86.8769 117.437C72.4366 122.633 60.4408 129.692 52.0322 137.914C49.0932 140.763 45.7478 145.087 45.0552 146.861C44.5699 148.08 44.6074 148.116 46.063 149.328C56.2515 157.779 83.2348 167.353 107.721 171.563C109.973 171.946 112.899 172.278 114.657 172.477C115.425 172.564 115.969 172.626 116.137 172.656L116.111 172.668C113.558 173.833 110.357 175.198 107.824 176.139C95.5825 180.688 82.4745 182.908 58.3726 185.309C73.5314 199.801 105.299 211.86 133.257 209.078C143.824 208.026 151.948 200.839 157.153 196.234C160.096 193.631 162.106 191.853 163.098 192.475C164.215 193.175 181.917 212.316 190.504 222.256L191.627 223.329C186.667 231.75 183.74 236.556 177.662 245.618C171.101 245.893 166.209 247.75 163.208 251.336C160.889 254.107 159.517 258.214 159.548 263.132C159.549 263.273 159.551 263.414 159.554 263.556C160.03 267.184 162.631 269.229 164.95 268.797C166.718 268.468 168.322 266.699 168.697 263.096C169.562 254.767 171.148 253.831 176.767 252.243C171.732 255.016 170.273 258.666 170.276 263.09C170.276 263.604 170.296 264.129 170.333 264.664C170.416 265.886 170.585 267.162 170.801 268.49C170.909 269.155 171.066 269.763 171.263 270.313C172.853 275.168 177.634 275.619 179.629 270.269C179.775 269.878 179.905 269.457 180.019 269.004C180.242 268.114 180.442 267.283 180.629 266.506C180.939 265.216 181.214 264.073 181.504 263.046C182.482 259.575 183.626 257.44 186.856 255.482C192.818 251.869 193.529 250.894 193.529 250.894C204.061 238.797 211.188 230.03 211.003 221.794ZM130.258 141.025C130.526 152.952 121.156 162.838 109.33 163.104C97.5029 163.37 87.6978 153.916 87.4294 141.988C87.161 130.061 96.5309 120.175 108.358 119.909C120.184 119.643 129.989 129.097 130.258 141.025Z" fill="#CC39B8"/>
        <path fill-rule="evenodd" clip-rule="evenodd" d="M669.829 193.831C664.287 201.584 655.253 215.485 655.116 221.708C654.935 229.944 662.066 238.708 672.604 250.799C672.604 250.799 673.315 251.773 679.279 255.384C681.885 256.962 683.134 258.656 684.034 261.073C684.58 262.539 684.997 264.271 685.512 266.405C685.583 266.701 685.656 267.005 685.732 267.317C685.855 267.824 685.985 268.352 686.123 268.902C686.237 269.355 686.368 269.776 686.514 270.167C688.512 275.516 693.292 275.062 694.88 270.207C695.062 269.652 695.201 269.039 695.291 268.371C695.468 267.038 695.602 265.758 695.651 264.534C695.7 263.308 695.664 262.138 695.504 261.028C694.994 257.478 693.214 254.535 688.869 252.299C694.066 253.611 695.85 254.469 696.959 261.022C697.058 261.608 697.151 262.239 697.242 262.921C697.717 266.512 699.371 268.234 701.147 268.514C703.478 268.88 706.02 266.763 706.393 263.122C706.409 262.386 706.398 261.673 706.361 260.985C706.136 256.902 704.968 253.664 702.925 251.226C699.922 247.642 695.029 245.786 688.469 245.515C682.386 236.456 679.457 231.652 674.493 223.233L675.615 222.159C684.196 212.216 701.89 193.065 703.006 192.364C703.997 191.742 706.008 193.519 708.953 196.121C714.16 200.724 722.288 207.906 732.855 208.953C760.814 211.721 792.576 199.646 807.728 185.147C783.625 182.757 770.515 180.544 758.272 176.001C755.738 175.061 752.537 173.698 749.983 172.534L749.957 172.522C750.125 172.492 750.669 172.43 751.437 172.343C753.194 172.143 756.121 171.809 758.372 171.426C782.856 167.203 809.835 157.615 820.019 149.16C821.474 147.946 821.512 147.911 821.026 146.691C820.332 144.918 816.985 140.596 814.044 137.748C805.632 129.531 793.632 122.477 779.19 117.289C750.082 111.158 733.9 110.484 706.909 147.696C701.317 151.432 698.545 149.625 694.009 141.992C690.14 138.033 687.922 135.896 683.82 132.246C677.196 141.988 671.003 165.474 669.8 170.209C668.597 174.944 665.807 176.896 660.099 169.996C654.391 163.095 658.678 126.382 665.43 119.123C661.917 116.973 658.49 115.096 655.513 113.788C651.718 112.112 647.751 110.646 643.67 109.396C636.318 119.908 632.825 158.528 631.922 168.511C631.803 169.825 631.729 170.643 631.697 170.836C631.422 172.496 628.785 181.003 623.628 171.39C614.981 155.271 616.849 116.55 622.343 104.943C612.463 103.78 602.472 103.802 593.041 105.083C591.481 125.212 594.022 160.375 595.314 168.241C596.606 176.106 591.699 176.806 587.205 170.589C572.468 154.59 570.473 123.772 571.317 110.363C566.386 112.06 561.42 114.106 556.312 116.549C554.111 117.599 551.966 118.692 549.867 119.837C550.973 136.459 555.988 166.24 557.371 169.932C558.755 173.625 557.596 176.347 552.019 171.829C546.442 167.311 536.601 149.02 531.654 132.011C521.13 140.497 511.034 151.377 499.663 166.136C496.281 170.547 495.289 173.133 494.557 175.042C493.771 177.092 493.284 178.361 490.459 180.272C484.559 184.261 479.463 184.477 472.458 183.193C463.085 181.473 456.204 178.843 452.989 168.481C450.836 161.512 451.548 150.87 455.632 140.813C459.983 130.1 465.623 126.13 474.362 119.979C476.838 118.236 479.564 116.317 482.579 114.02C494.043 105.289 502.13 94.9998 508.215 81.9374C519.025 58.7354 520.281 41.726 502.899 23.5473C484.114 3.90027 446.585 1.87256 434.499 33.0326C431.598 40.5118 430.646 45.684 430.556 50.4404C430.463 55.2844 430.592 59.4855 431.137 65.4649C431.153 65.6392 431.17 65.8147 431.189 65.9913C431.213 66.2139 431.238 66.4382 431.264 66.6642C431.254 66.5776 431.244 66.4912 431.234 66.4051C431.261 66.6385 431.289 66.8737 431.317 67.1112L431.321 67.1465L431.321 67.1504L431.323 67.1637L431.326 67.1891L431.33 67.224L431.336 67.2701C431.345 67.3504 431.354 67.4308 431.364 67.5116L431.383 67.6732C431.477 68.4857 431.566 69.3277 431.61 70.2153C431.671 71.4207 431.842 72.4821 432.098 73.4051C434.478 81.9772 444.214 78.6132 441.183 67.8155C438.95 59.8622 438.452 55.9303 446.34 36.1036C454.227 16.277 484.398 21.5722 495.159 37.3171C503.455 49.4551 498.402 61.4817 492.294 74.8552C486.515 87.5093 467.729 100.652 467.729 100.652C467.729 100.652 435.365 121.942 432.411 141.98C432.139 143.824 431.738 147.207 431.38 150.918L431.789 155.751C431.991 159.779 431.508 163.264 430.739 166.476C432.437 182.274 435.485 185.134 441.879 191.136L441.883 191.139L441.888 191.144C442.945 192.136 444.095 193.216 445.345 194.453C452.814 201.849 458.655 204.805 468.743 207.759C489.415 213.81 521.711 217.674 522.728 196.454C526.685 200.272 531.703 203.916 536.34 207.283C542.627 211.848 548.214 215.905 549.512 219.201C549.544 219.283 549.571 219.356 549.596 219.424C549.686 219.674 549.759 219.874 550.037 220.311C548.968 221.128 547.863 223.573 546.649 226.259C545.748 228.254 544.787 230.382 543.735 232.075C537.346 241.151 535.163 245.213 535.481 249.354C536.529 250.76 538.173 251.757 540.07 252.906C543.043 254.707 546.635 256.883 549.52 261.601C551.044 264.093 552.371 267.295 553.305 271.525C556.984 279.062 561.825 274.041 562.097 271.391C562.361 268.824 562.299 266.7 561.918 264.833C561.678 263.655 561.31 262.579 560.817 261.557C559.43 258.684 557.05 256.24 553.709 253.17C554.123 253.413 554.524 253.64 554.911 253.859C558.051 255.64 560.293 256.912 561.816 261.553C562.176 262.649 562.496 263.933 562.777 265.456C562.885 266.301 563.332 267.184 563.972 267.945L564.004 267.983C566.152 270.502 570.406 271.654 571.38 265.645C571.596 264.309 571.686 262.916 571.613 261.514C571.387 257.188 569.604 252.769 565.171 249.617C562.606 247.794 559.155 246.395 554.606 245.682C567.539 234.005 571.059 230.296 574.905 221.957C576.474 217.231 574.579 200.159 557.673 189.532C563.188 191.302 575.03 197.972 578.27 210.495C615.543 217.745 645.218 213.799 669.829 193.831ZM735.82 140.898C735.558 152.826 744.933 162.706 756.76 162.967C768.586 163.227 778.387 153.768 778.649 141.84C778.912 129.912 769.537 120.032 757.71 119.772C745.883 119.511 736.083 128.97 735.82 140.898Z" fill="#B8CC2B"/>
    </g>
    <defs>
        <clipPath id="clip0_85_17">
            <rect width="866" height="262" fill="white"/>
        </clipPath>
    </defs>
</svg>