<svg width="919" height="246" viewBox="0 0 919 246" fill="none" xmlns="http://www.w3.org/2000/svg">
    <path d="M327.496 210.582C332.626 214.232 338.308 219.578 344.847 225.806C345.737 226.653 346.673 225.777 345.859 224.858C338.903 216.999 331.634 209.351 331.109 207.04C341.237 208.727 365.164 214.967 362.299 246C327.252 239.422 327.496 210.582 327.496 210.582Z" fill="#7E9B24"/>
    <path d="M361.817 187.361C364.12 175.884 375.836 153.536 404.279 155.965C404.784 166.784 397.876 188.649 366.198 189.565C370.382 185.127 376.299 179.317 381.217 174.633C382.097 173.795 381.071 172.465 380.082 173.172C372.977 178.249 367.597 183.188 361.817 187.361Z" fill="#7E9B24"/>
    <path d="M154.95 181.772C166.745 183.964 167.588 185.988 168.599 189.429C157.553 189.556 146.663 189.688 136.079 189.821C133.214 184.639 139.786 179.242 139.786 164.635C144.396 165.528 150.824 166.062 157.983 166.29C157.824 173.155 157.341 176.691 154.95 181.772Z" fill="#1A855C"/>
    <path d="M224.708 136.403C219.766 143.655 211.734 156.642 211.734 162.376C192.368 165.881 177.653 166.916 157.983 166.29C150.824 166.062 144.396 165.528 139.786 164.635C139.13 164.508 138.511 164.373 137.932 164.231C139.28 159.846 137.191 144.161 121.419 134.716C126.53 136.234 137.561 142.137 140.797 153.606C175.24 159.528 202.467 155.293 224.708 136.403Z" fill="#22AD78"/>
    <path d="M283.008 149.053C282.334 149.053 271.55 148.884 266.495 146.691C265.228 147.569 263.395 148.727 261.103 150.033C256.559 152.624 250.211 155.8 242.906 158.54C239.033 159.992 234.891 161.322 230.606 162.376C238.3 153.044 254.193 135.048 255.206 134.379C257.697 132.736 267.754 147.879 283.008 149.053Z" fill="#22AD78"/>
    <path d="M283.008 180.423C290.882 183.964 299.689 179.917 304.576 188.358C294.676 188.381 284.289 188.424 273.572 188.484C255.56 177.248 250.928 170.533 242.906 158.54C250.211 155.8 256.559 152.624 261.103 150.033C266.495 162.376 274.752 174.52 283.008 180.423Z" fill="#1A855C"/>
    <path d="M8.2345 214.843C2.59034 215.335 1.7479 191.568 9.58252 191.568C12.8423 191.568 50.9983 190.955 102.211 190.263C105.581 194.59 115.185 194.421 119.06 210.323C62.6417 212.439 10.8204 214.618 8.2345 214.843Z" fill="#8A5326"/>
    <path d="M243.411 189.867C248.65 191.069 250.151 191.857 251.331 199.481C251.841 202.779 253.397 204.332 255.038 204.553C252.072 204.293 250.376 202.075 249.899 200.999C249.984 196.255 248.72 192.456 243.411 189.867Z" fill="#169A68"/>
    <path d="M119.06 193.409C123.321 195.777 125.984 196.499 127.654 204.54C127.77 205.317 128.199 206.121 128.803 206.809C128.209 206.135 127.034 204.681 126.851 203.984C125.916 199.869 123.313 197.151 119.06 193.409Z" fill="#169A68"/>
    <path d="M198.928 59.1655C191.514 70.2895 189.375 114.461 189.155 115.996C188.935 117.53 186.681 125.42 181.741 116.67C173.458 101.999 174.393 66.298 179.214 55.496C185.909 56.1358 192.563 57.366 198.928 59.1655Z" fill="#3FDDA1"/>
    <path d="M236.334 79.397C230.437 88.5045 225.214 110.261 224.203 114.646C223.192 119.031 220.664 120.887 215.272 114.646C209.88 108.406 213.082 74.506 219.148 67.6832C225.331 71.2863 231.819 75.7811 236.334 79.397Z" fill="#3FDDA1"/>
    <path d="M145.413 57.573C147.647 57.0383 149.931 56.5874 152.254 56.2192C151.226 74.7901 154.276 107.125 155.624 114.343C156.972 121.561 152.471 122.305 148.21 116.67C134.326 102.233 131.866 73.8893 132.372 61.5218C136.712 59.919 141.03 58.616 145.413 57.573Z" fill="#3FDDA1"/>
    <path d="M112.826 70.683C114.181 85.9697 119.397 113.297 120.745 116.67C122.093 120.043 121.082 122.573 115.859 118.526C110.636 114.478 101.21 97.8304 96.3139 82.2642C101.594 77.8069 107.011 74.0265 112.826 70.683Z" fill="#3FDDA1"/>
    <path d="M295.446 47.7568C306.701 57.404 309.869 59.2592 322.001 63.1046C322.6 63.2957 323.196 63.4902 323.787 63.6881C296.879 58.6314 281.976 58.3386 257.893 93.1595C252.823 96.7135 250.236 95.1058 245.907 88.1671C243.953 86.0757 239.842 73.4602 237.718 62.9022C236.168 55.2452 235.494 49.8482 235.258 43.0344C234.955 34.3654 236.033 29.8454 238.965 27.3493C241.156 25.4603 243.077 24.9881 248.3 25.0218C255.815 25.0555 262.723 26.9782 272.058 31.5657C279.843 35.4111 286.145 39.7625 295.446 47.7568Z" fill="#17865C"/>
    <path fill-rule="evenodd" clip-rule="evenodd" d="M255.206 134.379C254.193 135.048 238.3 153.044 230.606 162.376L229.595 163.388C234.333 171.041 237.125 175.407 242.906 183.627C248.948 183.744 253.488 185.354 256.324 188.594C258.578 191.169 259.755 194.775 259.755 199.481C259.486 202.842 257.189 204.843 255.038 204.553C253.397 204.332 251.841 202.779 251.331 199.481C250.151 191.857 248.65 191.069 243.411 189.867C248.72 192.456 249.984 196.255 249.899 200.999C249.879 202.127 249.782 203.309 249.646 204.54C249.577 205.158 249.461 205.725 249.305 206.24C247.942 210.744 243.553 211.258 241.606 206.372C241.464 206.015 241.335 205.63 241.221 205.215C239.367 198.469 239.091 195.463 234.649 192.903C229.089 189.699 228.415 188.816 228.415 188.816C218.474 177.893 211.734 169.966 211.734 162.376C211.734 156.642 219.766 143.655 224.708 136.403C202.467 155.293 175.24 159.528 140.797 153.606C137.561 142.137 126.53 136.234 121.419 134.716C137.191 144.161 139.28 159.846 137.932 164.231C134.562 171.99 131.398 175.477 119.734 186.494C123.935 187.058 127.139 188.277 129.535 189.904C135.022 193.629 136.277 199.493 135.573 204.54C134.799 210.095 130.861 209.12 128.833 206.843L128.803 206.809C128.199 206.121 127.77 205.317 127.654 204.54C125.984 196.499 123.321 195.777 119.06 193.409C123.313 197.151 125.916 199.869 126.851 203.984C127.239 205.697 127.339 207.651 127.148 210.021C126.951 212.467 122.599 217.19 119.06 210.323C115.185 194.421 105.581 194.59 102.211 190.263C101.835 186.456 103.761 182.671 109.456 174.182C111.647 170.472 113.332 164.569 115.016 163.219C114.679 162.713 114.657 162.555 114.511 162.208C112.321 156.979 98.1666 149.896 89.4048 141.8C88.8993 161.364 54.3486 156.17 42.2253 150.233C26.6078 142.584 23.5516 139.532 19.4446 134.38C9.09885 123.552 2.59488 108.845 0.404419 91.4394C-0.134764 87.0881 -0.134764 76.5301 0.404419 72.2125C2.46008 55.7515 8.55964 40.741 17.9955 28.8676C24.331 20.8732 33.0928 12.98 40.2371 8.79734C46.1008 5.35673 55.4692 1.88239 62.108 0.701788C63.8604 0.398207 67.8033 0.0946261 70.8699 0.0271591C78.9578 -0.175232 83.9792 0.735512 89.607 3.36656C106.726 11.4621 115.084 29.1712 109.49 45.4634C107.94 50.0172 105.648 53.6939 102.211 57.202C95.4034 64.1507 87.4838 67.3889 78.5197 66.8829C66.3879 66.2083 58.4011 58.8886 58.4011 48.4318C58.4011 42.4276 61.0971 37.7389 65.9835 35.1753C67.8707 34.1971 68.2414 34.1297 71.5439 34.0959C75.689 34.0959 79.1263 35.0742 80.7776 36.6933C81.6201 37.5365 81.7211 37.8401 81.5526 39.0882C81.2493 41.3145 80.0699 42.0566 74.5769 43.4058C71.5777 44.1479 69.522 47.3861 70.0275 50.6581C70.3308 52.7494 71.4428 54.1661 73.6333 55.313C78.6208 57.8429 85.5631 56.2912 90.8203 51.4676C93.651 48.8703 95.336 46.3405 96.6166 42.6975C97.9646 38.8521 98.0656 33.7249 96.9199 30.0144C94.9316 23.6729 88.2925 18.0735 80.3395 16.0159C77.0032 15.1388 69.1176 14.8015 64.9725 15.3412C58.536 16.2183 50.7176 19.5914 44.7528 24.1114C41.6862 26.4389 36.3953 31.701 33.4972 35.3103C25.7126 44.9575 20.5566 57.202 19.2761 69.008C18.501 76.0579 19.7479 88.5048 21.8709 94.88C25.0387 104.359 32.1155 113.702 41.0459 120.111C47.2129 124.564 53.144 126.419 57.5923 125.306C59.5806 124.8 61.2993 122.911 67.5674 114.343C77.7317 100.519 86.802 90.2934 96.3139 82.2642C101.21 97.8304 110.636 114.478 115.859 118.526C121.082 122.573 122.093 120.043 120.745 116.67C119.397 113.297 114.181 85.9697 112.826 70.683C114.735 69.5857 116.686 68.5355 118.69 67.5238C123.34 65.1707 127.868 63.1848 132.372 61.5218C131.866 73.8893 134.326 102.233 148.21 116.67C152.471 122.305 156.972 121.561 155.624 114.343C154.276 107.125 151.226 74.7901 152.254 56.2192C160.906 54.8483 170.099 54.6251 179.214 55.496C174.393 66.298 173.458 101.999 181.741 116.67C186.681 125.42 188.935 117.53 189.155 115.996C189.375 114.461 191.514 70.2895 198.928 59.1655C202.709 60.2343 206.388 61.504 209.914 62.9701C212.68 64.115 215.871 65.7739 219.148 67.6832C213.082 74.506 209.88 108.406 215.272 114.646C220.664 120.887 223.192 119.031 224.203 114.646C225.214 110.261 230.437 88.5045 236.334 79.397C240.183 82.6759 242.267 84.5993 245.907 88.1671C250.236 95.1058 252.823 96.7135 257.893 93.1595C281.976 58.3386 296.879 58.6314 323.787 63.6881C337.182 68.1743 348.366 74.4275 356.273 81.8256C359.036 84.3892 362.204 88.302 362.878 89.9211C363.35 91.0343 363.316 91.068 362.002 92.2149C352.802 100.209 328.172 109.587 305.728 113.972C302.762 114.545 298.512 115.051 298.007 115.152C300.384 116.175 303.37 117.371 305.728 118.188C317.086 122.124 329.193 123.897 351.42 125.609C337.772 139.27 308.791 151.036 283.008 149.053C267.754 147.879 257.697 132.736 255.206 134.379ZM304.073 106.214C293.185 106.214 284.358 97.3033 284.358 86.312C284.358 75.3207 293.185 66.4105 304.073 66.4105C314.96 66.4105 323.787 75.3207 323.787 86.312C323.787 97.3033 314.96 106.214 304.073 106.214Z" fill="#34C68F"/>
    <path d="M314.665 81.421C316.788 82.4666 318.136 86.312 317.395 89.1792C316.653 91.8777 313.452 93.6317 310.217 93.1595C307.386 92.721 305.87 90.6971 305.87 87.3577C305.87 84.6929 307.083 82.7027 309.374 81.6233C311.464 80.6789 313.048 80.6114 314.665 81.421Z" fill="#141311"/>
    <path fill-rule="evenodd" clip-rule="evenodd" d="M284.358 86.312C284.358 97.3033 293.185 106.214 304.073 106.214C314.96 106.214 323.787 97.3033 323.787 86.312C323.787 75.3207 314.96 66.4105 304.073 66.4105C293.185 66.4105 284.358 75.3207 284.358 86.312ZM317.395 89.1792C318.136 86.312 316.788 82.4666 314.665 81.421C313.048 80.6114 311.464 80.6789 309.374 81.6233C307.083 82.7027 305.87 84.6929 305.87 87.3577C305.87 90.6971 307.386 92.721 310.217 93.1595C313.452 93.6317 316.653 91.8777 317.395 89.1792Z" fill="#FEFEFF"/>
    <path d="M136.079 189.821C146.663 189.688 157.553 189.556 168.599 189.429C188.325 189.202 208.548 188.991 228.415 188.816C228.415 188.816 229.089 189.699 234.649 192.903C239.091 195.463 239.367 198.469 241.221 205.215C241.335 205.63 241.464 206.015 241.606 206.372L222.191 206.874C219.94 206.932 218.732 211.771 220.55 213.1C226.881 217.728 233.176 223.471 234.042 224.956C235.418 227.317 233.368 233.22 229.998 230.691C212.98 212.138 198.489 208.596 191.918 207.753L127.148 210.021C127.339 207.651 127.239 205.697 126.851 203.984C127.034 204.681 128.209 206.135 128.803 206.809L128.833 206.843C130.861 209.12 134.799 210.095 135.573 204.54C136.277 199.493 135.022 193.629 129.535 189.904C131.702 189.876 133.884 189.849 136.079 189.821Z" fill="#8A5326"/>
    <path d="M366.198 189.565C365.367 190.446 365.916 191.894 367.122 192.016C384.616 193.783 396.104 195.14 400.497 195.953C405.131 196.811 407.732 202.451 400.497 206.073C397.716 207.464 340.548 205.663 331.97 206.366C331.105 206.436 330.984 206.491 331.109 207.04C331.634 209.351 338.903 216.999 345.859 224.858C346.673 225.777 345.737 226.653 344.847 225.806C338.308 219.578 332.626 214.232 327.496 210.582C324.431 208.401 321.563 206.825 318.827 206.028L249.305 206.24C249.461 205.725 249.577 205.158 249.646 204.54C249.782 203.309 249.879 202.127 249.899 200.999C250.376 202.075 252.072 204.293 255.038 204.553C257.189 204.843 259.486 202.842 259.755 199.481C259.755 194.775 258.578 191.169 256.324 188.594C262.15 188.553 267.907 188.516 273.572 188.484C284.289 188.424 294.676 188.381 304.576 188.358C315.217 188.334 346.791 189.764 356.762 190.709C358.511 189.664 360.18 188.543 361.817 187.361C367.597 183.188 372.977 178.249 380.082 173.172C381.071 172.465 382.097 173.795 381.217 174.633C376.299 179.317 370.382 185.127 366.198 189.565V189.565Z" fill="#8A5326"/>
    <path d="M305.857 118.178C303.883 117.509 301.945 116.782 300 115.988C300.103 116.03 704.757 77.7826 912.706 58.1209C915.879 57.8209 918.5 60.3277 918.5 63.5145V63.5145C918.5 66.3308 916.338 68.6753 913.531 68.9029L305.857 118.178Z" fill="#D16781"/>
</svg>