<svg width="761" height="379" viewBox="0 0 761 379" fill="none" xmlns="http://www.w3.org/2000/svg">
    <path d="M77.5035 35.4181C72.0699 31.5516 66.0166 25.7826 58.9815 19.0779C56.542 16.753 53.9845 14.3157 51.2939 11.8061C54.6767 16.1955 59.2475 21.2842 63.3954 25.9022C68.7924 31.9108 73.4736 37.1226 73.891 38.9599C63.7627 37.2733 39.8361 31.033 42.7005 7.69893e-05C77.7479 6.57771 77.5035 35.4181 77.5035 35.4181Z" fill="#7E9B24"/>
    <path d="M43.1828 58.6389C40.88 70.1162 29.1637 92.4637 0.721424 90.035C0.215932 79.2165 7.12441 57.3506 38.8019 56.4355C31.6723 63.9972 19.5099 75.5448 15.8345 78.7127C23.8851 74.0264 29.782 69.2527 35.1822 64.881C37.9045 62.6772 40.5006 60.5756 43.1828 58.6389Z" fill="#7E9B24"/>
    <path fill-rule="evenodd" clip-rule="evenodd" d="M4.50335 50.0468C9.13754 50.9044 21.6707 52.3682 40.8232 54.2797C40.2063 54.9416 39.5282 55.6651 38.8019 56.4355C31.6723 63.9972 19.5099 75.5448 15.8345 78.7127C23.8851 74.0264 29.782 69.2527 35.1822 64.881C37.9045 62.6772 40.5006 60.5756 43.1828 58.6389C44.8196 57.457 46.4885 56.3364 48.2377 55.2916L253.648 55.6814C253.601 54.3229 253.614 52.8734 253.668 51.4038C253.928 44.2945 255.148 36.717 255.148 36.717C253.96 36.7609 251.971 46.4052 251.776 50.4316C251.581 54.458 247.002 53.5923 247.175 49.2774C247.338 45.2067 248.185 40.9624 249.218 36.5858L213.082 38.2469C206.511 37.4036 192.02 33.8619 175.002 15.3096C171.632 12.7797 169.582 18.6827 170.958 21.0439C172.334 23.4051 187.435 36.5286 194.58 38.8223L86.1732 39.9719C83.4372 39.1752 80.5689 37.5994 77.5035 35.4181C72.0699 31.5516 66.0166 25.7826 58.9815 19.0779C56.542 16.753 53.9845 14.3157 51.2939 11.8061C54.6767 16.1955 59.2475 21.2842 63.3954 25.9022C68.7924 31.9108 73.4736 37.1226 73.891 38.9599C74.0157 39.5086 73.8952 39.5636 73.0298 39.6346C69.3417 39.9368 56.6706 39.776 43.2023 39.6051C25.3462 39.3785 6.08816 39.1341 4.50335 39.9273C-2.73211 43.5488 -0.130853 49.1892 4.50335 50.0468Z" fill="#8A5326"/>
    <path d="M260.648 55.6814C260.648 45.717 262.648 40.8368 263.648 36.717C264.758 34.1658 266.169 31.983 267.821 30.217C272.408 26.2967 276.283 25.839 282.513 26.0293C290.566 26.4194 296.648 35.217 296.648 35.217L281.648 35.717C276.28 36.0881 271.648 51.717 271.648 51.717C271.648 51.717 270.148 55.7367 274.648 55.7367L279.147 55.7151C278.147 60.7138 275.642 62.102 270.648 62.217C266.557 62.3112 264.136 61.1126 262.704 59.717C260.81 57.8714 260.648 55.6814 260.648 55.6814Z" fill="url(#paint0_linear_56_73)"/>
    <path d="M260.648 55.6814C260.648 45.717 262.648 40.8368 263.648 36.717C264.758 34.1658 266.169 31.983 267.821 30.217C272.408 26.2967 276.283 25.839 282.513 26.0293C290.566 26.4194 296.648 35.217 296.648 35.217L281.648 35.717C276.28 36.0881 271.648 51.717 271.648 51.717C271.648 51.717 270.148 55.7367 274.648 55.7367L279.147 55.7151C278.147 60.7138 275.642 62.102 270.648 62.217C266.557 62.3112 264.136 61.1126 262.704 59.717C260.81 57.8714 260.648 55.6814 260.648 55.6814Z" fill="black" fill-opacity="0.05"/>
    <path fill-rule="evenodd" clip-rule="evenodd" d="M253.648 55.6814C253.648 56.0594 253.778 56.9867 254.148 57.717C255.488 59.6766 255.876 59.774 257.648 60.217C262.133 61.3383 262.704 59.717 262.704 59.717C260.81 57.8714 260.648 55.6814 260.648 55.6814C260.648 47.5848 261.968 42.845 263 39.1424C263.238 38.2882 263.461 37.4892 263.648 36.717C264.758 34.1658 266.169 31.983 267.821 30.217C267.821 30.217 264.721 28.8677 261.227 29.6547C259.298 30.0891 258.272 30.7184 257.424 31.9498C255.928 34.1209 255.148 36.717 255.148 36.717C255.148 36.717 253.928 44.2945 253.668 51.4038C253.614 52.8734 253.601 54.3229 253.648 55.6814Z" fill="url(#paint1_linear_56_73)"/>
    <path fill-rule="evenodd" clip-rule="evenodd" d="M253.648 55.6814C253.648 56.0594 253.778 56.9867 254.148 57.717C255.488 59.6766 255.876 59.774 257.648 60.217C262.133 61.3383 262.704 59.717 262.704 59.717C260.81 57.8714 260.648 55.6814 260.648 55.6814C260.648 47.5848 261.968 42.845 263 39.1424C263.238 38.2882 263.461 37.4892 263.648 36.717C264.758 34.1658 266.169 31.983 267.821 30.217C267.821 30.217 264.721 28.8677 261.227 29.6547C259.298 30.0891 258.272 30.7184 257.424 31.9498C255.928 34.1209 255.148 36.717 255.148 36.717C255.148 36.717 253.928 44.2945 253.668 51.4038C253.614 52.8734 253.601 54.3229 253.648 55.6814Z" fill="black" fill-opacity="0.1"/>
    <path d="M274.976 250.682C283.025 247.184 297.285 241.723 302.919 242.796C309.985 224.428 313.754 210.167 316.819 190.727C317.934 183.651 318.613 177.237 318.597 172.541C318.595 171.873 318.579 171.24 318.548 170.645C313.988 171.148 298.971 166.161 292.643 148.901C293.178 154.206 296.913 166.147 307.574 171.47C306.948 206.414 297.693 232.367 274.976 250.682Z" fill="#C9A721"/>
    <path d="M276.495 310.319C276.621 309.657 278.473 299.032 277.265 293.656C278.365 292.576 279.845 290.992 281.557 288.985C284.952 285.005 289.26 279.364 293.318 272.7C295.469 269.167 297.55 265.347 299.388 261.335C288.781 267.147 268.129 279.393 267.283 280.263C266.531 281.035 267.746 283.187 269.525 286.338C272.672 291.91 277.582 300.606 276.495 310.319Z" fill="#C9A721"/>
    <path d="M203.926 210.907C214.809 206.31 250.275 210.589 259.444 211.695C260.65 211.84 261.401 211.931 261.581 211.939C263.129 212.01 271.301 211.271 263.63 204.782C250.768 193.901 215.522 188.14 204.009 190.854C203.385 197.551 203.349 204.317 203.926 210.907Z" fill="#CD9F14"/>
    <path d="M216.802 251.438C226.852 247.349 249.202 246.288 253.698 246.115C258.195 245.942 260.491 243.807 255.369 237.342C250.248 230.878 216.347 227.681 208.51 232.363C210.893 239.111 214.094 246.326 216.802 251.438Z" fill="#CD9F14"/>
    <path d="M212.373 158.039C211.43 160.133 210.56 162.293 209.763 164.506C228.199 166.97 259.392 176.016 266.231 178.691C273.069 181.365 274.642 177.083 269.904 171.843C258.319 155.503 230.936 147.784 218.692 145.967C216.306 149.931 214.218 153.929 212.373 158.039Z" fill="#CD9F14"/>
    <path d="M231.348 128.48C246.112 132.671 271.981 142.908 275.042 144.863C278.103 146.818 280.778 146.299 277.779 140.41C274.78 134.522 260.19 122.148 245.814 114.426C240.448 118.779 235.721 123.393 231.348 128.48Z" fill="#CD9F14"/>
    <path d="M174.661 303.586C182.032 316.448 183.262 319.907 184.77 332.544C184.845 333.168 184.925 333.79 185.009 334.407C185.076 307.029 187.576 292.334 226.288 275.191C230.728 270.876 229.632 268.033 223.626 262.483C221.937 260.171 210.314 253.772 200.339 249.712C193.107 246.756 187.932 245.085 181.282 243.578C172.823 241.658 168.181 241.872 165.181 244.285C162.915 246.083 162.092 247.882 161.148 253.019C159.775 260.408 160.371 267.554 163.132 277.582C165.453 285.949 168.548 292.953 174.661 303.586Z" fill="#BB7410"/>
    <path d="M255.148 36.717C253.96 36.7609 251.971 46.4052 251.776 50.4316C251.581 54.458 247.002 53.5923 247.175 49.2774C247.338 45.2067 248.185 40.9624 249.218 36.5858C249.885 33.761 250.947 32.9441 252.903 32.2938C255.281 31.5032 257.424 31.9498 257.424 31.9498C255.928 34.1209 255.148 36.717 255.148 36.717Z" fill="url(#paint2_linear_56_73)"/>
    <path d="M255.148 36.717C253.96 36.7609 251.971 46.4052 251.776 50.4316C251.581 54.458 247.002 53.5923 247.175 49.2774C247.338 45.2067 248.185 40.9624 249.218 36.5858C249.885 33.761 250.947 32.9441 252.903 32.2938C255.281 31.5032 257.424 31.9498 257.424 31.9498C255.928 34.1209 255.148 36.717 255.148 36.717Z" fill="black" fill-opacity="0.15"/>
    <path fill-rule="evenodd" clip-rule="evenodd" d="M301.505 328.931C300.011 323.053 300.355 315.99 302.064 309.955C298.561 307.411 296.312 304.467 293.9 301.308C290.923 297.41 287.697 293.186 281.557 288.985C284.952 285.005 289.26 279.364 293.318 272.7C302.385 283.784 312.977 298.778 315.888 307.526C314.833 310.475 313.998 312.354 313.319 313.882C311.486 318.006 312.105 317.756 311.263 330.942C311.079 333.816 309.934 335.481 308.464 335.95C305.964 330.263 304.577 324.589 306.263 316.56C304.442 323.282 304.385 328.957 307.267 336.073C305.109 335.868 302.661 333.478 301.505 328.931Z" fill="#C9A721"/>
    <path fill-rule="evenodd" clip-rule="evenodd" d="M301.505 328.931C300.011 323.053 300.355 315.99 302.064 309.955C298.561 307.411 296.312 304.467 293.9 301.308C290.923 297.41 287.697 293.186 281.557 288.985C284.952 285.005 289.26 279.364 293.318 272.7C302.385 283.784 312.977 298.778 315.888 307.526C314.833 310.475 313.998 312.354 313.319 313.882C311.486 318.006 312.105 317.756 311.263 330.942C311.079 333.816 309.934 335.481 308.464 335.95C305.964 330.263 304.577 324.589 306.263 316.56C304.442 323.282 304.385 328.957 307.267 336.073C305.109 335.868 302.661 333.478 301.505 328.931Z" fill="black" fill-opacity="0.2"/>
    <path d="M307.267 336.073C304.385 328.957 304.442 323.282 306.263 316.56C304.577 324.589 305.964 330.263 308.464 335.95C308.083 336.071 307.681 336.112 307.267 336.073Z" fill="#897319"/>
    <path fill-rule="evenodd" clip-rule="evenodd" d="M342.223 211.825C337.879 212.272 332.542 202.641 332.595 190.644C327.156 192.042 323.592 191.854 316.819 190.727C317.934 183.651 318.613 177.237 318.597 172.541C320.975 172.993 323.311 173.399 325.546 173.787C336.799 175.742 345.462 177.247 343.677 182.019C343.124 188.686 344.376 194.744 345.387 199.633C346.498 205.005 347.317 208.969 345.131 210.784C341.011 205.749 339.734 202.065 337.952 196.924C337.61 195.938 337.249 194.894 336.846 193.781C337.166 194.843 337.458 195.845 337.736 196.798C339.383 202.446 340.536 206.401 344.185 211.355C343.646 211.587 342.998 211.745 342.223 211.825Z" fill="#C9A721"/>
    <path fill-rule="evenodd" clip-rule="evenodd" d="M342.223 211.825C337.879 212.272 332.542 202.641 332.595 190.644C327.156 192.042 323.592 191.854 316.819 190.727C317.934 183.651 318.613 177.237 318.597 172.541C320.975 172.993 323.311 173.399 325.546 173.787C336.799 175.742 345.462 177.247 343.677 182.019C343.124 188.686 344.376 194.744 345.387 199.633C346.498 205.005 347.317 208.969 345.131 210.784C341.011 205.749 339.734 202.065 337.952 196.924C337.61 195.938 337.249 194.894 336.846 193.781C337.166 194.843 337.458 195.845 337.736 196.798C339.383 202.446 340.536 206.401 344.185 211.355C343.646 211.587 342.998 211.745 342.223 211.825Z" fill="black" fill-opacity="0.2"/>
    <path d="M345.131 210.784C344.863 211.007 344.549 211.198 344.185 211.355C340.536 206.401 339.383 202.446 337.736 196.798C337.458 195.845 337.166 194.843 336.846 193.781C337.249 194.894 337.61 195.938 337.952 196.924C339.734 202.065 341.011 205.749 345.131 210.784Z" fill="#897319"/>
    <path d="M330.714 298.748C330.387 299.014 330.015 299.205 329.621 299.336C326.787 295.297 325.824 292.504 324.398 288.368C324.205 287.809 324.002 287.221 323.787 286.607C323.991 287.06 324.185 287.495 324.372 287.915C326.214 292.043 327.41 294.722 330.714 298.748Z" fill="#C8A518"/>
    <path fill-rule="evenodd" clip-rule="evenodd" d="M302.919 242.796C297.285 241.723 283.025 247.184 274.976 250.682C297.693 232.367 306.948 206.414 307.574 171.47C296.913 166.147 293.178 154.206 292.643 148.901C298.971 166.161 313.988 171.148 318.548 170.645C326.8 168.786 330.817 166.33 343.822 156.933C343.59 161.165 343.804 165.266 344.954 167.925C345.228 168.558 345.486 169.17 345.735 169.76C345.846 170.024 345.959 170.294 346.075 170.57C348.179 175.594 350.975 182.273 355.219 181.836C357.299 181.621 357.929 181.556 358.666 181.14C355.48 178.283 354.482 176.025 353.165 173.046C352.828 172.286 352.471 171.478 352.051 170.601C352.473 171.29 352.848 171.931 353.204 172.539C354.917 175.465 356.163 177.594 359.815 180.357C361.837 178.887 362.613 175.545 358.363 168.443C356.911 165.694 353.704 157.362 354.237 152.783C354.669 147.21 354.175 142.379 350.803 140.424C347.332 139.42 343.055 140.527 333.651 144.533C331.923 145.154 329.821 145.611 327.851 146.038C325.197 146.615 322.783 147.139 321.841 147.944C321.501 147.61 321.334 147.506 321.127 147.377C321.07 147.341 321.009 147.303 320.942 147.258C318.221 145.457 315.639 139.648 312.733 133.111C310.59 128.29 308.271 123.074 305.591 118.777C304.246 116.639 304.381 111.074 304.588 102.506C304.853 91.5398 305.236 75.654 302.789 55.7367L282.148 55.7157C282.126 58.4818 282.181 60.9004 282.233 63.1724C282.406 70.7247 282.542 76.6557 279.682 88.3361C276.092 95.1472 266.753 100.894 258.031 106.261C253.493 109.053 249.122 111.743 245.814 114.426C260.19 122.148 274.78 134.522 277.779 140.41C280.778 146.299 278.103 146.818 275.042 144.863C271.981 142.908 246.112 132.671 231.348 128.48C229.913 130.15 228.517 131.87 227.148 133.649C223.966 137.777 221.168 141.854 218.692 145.967C230.936 147.784 258.319 155.503 269.904 171.843C274.642 177.083 273.069 181.365 266.231 178.691C259.392 176.016 228.199 166.97 209.763 164.506C206.798 172.749 204.859 181.738 204.009 190.854C215.522 188.14 250.768 193.901 263.63 204.782C271.301 211.271 263.129 212.01 261.581 211.939C261.401 211.931 260.65 211.84 259.444 211.695C250.275 210.589 214.809 206.31 203.926 210.907C204.268 214.821 204.827 218.673 205.608 222.411C206.215 225.343 207.248 228.787 208.51 232.363C216.347 227.681 250.248 230.878 255.369 237.342C260.491 243.807 258.195 245.942 253.698 246.115C249.202 246.288 226.852 247.349 216.802 251.438C219.303 255.832 220.802 258.239 223.626 262.483C229.632 268.033 230.728 270.876 226.288 275.191C187.576 292.334 185.076 307.029 185.009 334.407C186.91 348.405 190.96 360.561 196.748 369.713C198.75 372.907 202.001 376.751 203.465 377.716C204.471 378.388 204.51 378.361 205.882 377.285C215.457 369.743 229.277 347.302 237.783 326.075C238.562 324.122 239.424 321.552 239.942 320.009C240.168 319.334 240.329 318.856 240.388 318.711L240.393 318.734C240.951 321.257 241.565 324.402 241.925 326.864C243.667 338.758 243.143 350.983 240.667 373.138C256.64 362.286 273.62 336.017 276.495 310.319C277.582 300.606 272.672 291.91 269.525 286.338C267.746 283.187 266.531 281.035 267.283 280.263C268.129 279.393 288.781 267.147 299.388 261.335L300.571 260.531C307.202 266.617 310.968 270.177 317.962 277.393C318.218 278.627 318.38 280.062 318.559 281.65C318.869 284.394 319.231 287.595 320.218 290.996C321.776 296.364 324.894 298.959 326.611 299.385C327.519 299.61 328.639 299.662 329.621 299.336C326.787 295.297 325.824 292.504 324.398 288.368C324.205 287.809 324.002 287.221 323.787 286.607C323.991 287.06 324.185 287.495 324.372 287.915C326.214 292.043 327.41 294.722 330.714 298.748C332.145 297.588 332.724 295.016 330.567 289.93C328.859 285.903 328.877 280.857 328.892 276.725C328.901 274.432 328.908 272.419 328.619 271.018C327.809 267.092 325.77 264.129 325.77 264.129C316.9 252.32 310.374 244.216 302.919 242.796ZM230.472 322.997C232.509 312.302 225.407 301.964 214.61 299.908C203.813 297.851 193.408 304.855 191.372 315.551C189.335 326.246 196.436 336.584 207.233 338.64C218.031 340.696 228.435 333.693 230.472 322.997Z" fill="#EBC118"/>
    <path d="M359.815 180.357C359.326 180.712 358.986 180.959 358.666 181.14C355.48 178.283 354.482 176.025 353.165 173.046C352.828 172.286 352.471 171.478 352.051 170.601C352.473 171.29 352.848 171.931 353.204 172.539C354.917 175.465 356.163 177.594 359.815 180.357Z" fill="#C8A518"/>
    <path d="M204.135 328.764C204.765 331.045 208.291 333.089 211.246 332.897C214.035 332.674 216.357 329.857 216.499 326.591C216.598 323.728 214.893 321.859 211.613 321.235C208.995 320.736 206.813 321.556 205.324 323.605C204.005 325.481 203.643 327.024 204.135 328.764Z" fill="#141311"/>
    <path fill-rule="evenodd" clip-rule="evenodd" d="M230.472 322.997C232.509 312.302 225.407 301.964 214.61 299.908C203.813 297.851 193.408 304.855 191.372 315.551C189.335 326.246 196.436 336.584 207.233 338.64C218.031 340.696 228.435 333.693 230.472 322.997ZM211.246 332.897C208.291 333.089 204.765 331.045 204.135 328.764C203.643 327.024 204.005 325.481 205.324 323.605C206.813 321.556 208.995 320.736 211.613 321.235C214.893 321.859 216.598 323.728 216.499 326.591C216.357 329.857 214.035 332.674 211.246 332.897Z" fill="#FEFEFF"/>
    <path d="M496.615 58.2163C494.312 69.6936 482.596 92.0411 454.153 89.6124C453.648 78.7939 460.556 56.928 492.234 56.0129C485.104 63.5746 472.942 75.1222 469.267 78.2901C477.317 73.6038 483.214 68.8301 488.614 64.4585C491.337 62.2547 493.933 60.153 496.615 58.2163Z" fill="#7E9B24"/>
    <path d="M469.267 78.2901C472.942 75.1222 485.104 63.5746 492.234 56.0129L493.325 55.1133C493.687 54.8157 493.478 54.2294 493.01 54.2276C452.183 54.0684 410.132 54.1934 369.726 54.7862C353.189 55.0288 329.75 55.3726 302.789 55.7367L282.148 55.7006L279.561 55.7131L279.147 55.7151L274.648 55.7367C270.148 55.7367 271.648 51.717 271.648 51.717C271.648 51.717 276.28 36.0881 281.648 35.717L296.648 35.217C338.065 33.654 579.633 34.5901 694.726 35.0361C731.254 35.1776 755.042 35.2698 755.648 35.217C761.292 34.7254 762.134 58.4917 754.3 58.4917C754.191 58.4917 753.067 58.4607 751.008 58.4038C731.138 57.8546 624.239 54.9005 504.336 54.279C503.06 54.2724 501.797 54.6087 500.736 55.3169C499.336 56.2515 497.821 57.345 496.665 58.1804L496.615 58.2163C493.933 60.153 491.337 62.2547 488.614 64.4585C483.214 68.8301 477.317 73.6038 469.267 78.2901Z" fill="#8A5326"/>
    <defs>
        <linearGradient id="paint0_linear_56_73" x1="380.015" y1="7.69893e-05" x2="380.015" y2="378.167" gradientUnits="userSpaceOnUse">
            <stop stop-color="#DAB729"/>
            <stop offset="0.927885" stop-color="#E5BA0D"/>
        </linearGradient>
        <linearGradient id="paint1_linear_56_73" x1="380.015" y1="7.69893e-05" x2="380.015" y2="378.167" gradientUnits="userSpaceOnUse">
            <stop offset="0.149038" stop-color="#C3A426"/>
            <stop offset="0.591346" stop-color="#CBA713"/>
        </linearGradient>
        <linearGradient id="paint2_linear_56_73" x1="380.015" y1="7.69893e-05" x2="380.015" y2="378.167" gradientUnits="userSpaceOnUse">
            <stop offset="0.158654" stop-color="#B6981E"/>
            <stop offset="0.509615" stop-color="#E5BA0D"/>
        </linearGradient>
    </defs>
</svg>