<svg width="314" height="286" viewBox="0 0 314 286" fill="none" xmlns="http://www.w3.org/2000/svg">
    <path fill-rule="evenodd" clip-rule="evenodd" d="M178.692 110.455C164.264 109.116 150.425 110.112 137.981 113.07C142.823 84.0331 152.183 50.3308 161.061 33.6257C174.892 0.948043 210.648 -2.9964 222.549 3.32867C233.824 9.32075 249.454 24.8604 236.975 52.9991C235.762 53.8308 234.558 54.725 233.364 55.6846C218.51 65.536 196.583 88.0738 178.692 110.455Z" fill="#CDECF8" fill-opacity="0.75"/>
    <path d="M49.9544 157.198C49.9544 163.247 45.6364 168.15 40.3099 168.15C34.9833 168.15 30.6653 163.247 30.6653 157.198C30.6653 151.149 34.9833 146.246 40.3099 146.246C45.6364 146.246 49.9544 151.149 49.9544 157.198Z" fill="#1F1E1E"/>
    <path d="M100.793 173.708C106.119 173.708 110.437 168.805 110.437 162.756C110.437 156.707 106.119 151.803 100.793 151.803C95.4662 151.803 91.1482 156.707 91.1482 162.756C91.1482 168.805 95.4662 173.708 100.793 173.708Z" fill="#1F1E1E"/>
    <path fill-rule="evenodd" clip-rule="evenodd" d="M2.03253 145.08C-3.19986 161.837 2.0418 179.016 13.874 187.755C16.5043 189.698 19.4602 191.224 22.6991 192.235C40.5085 197.796 60.1305 185.7 66.526 165.218C72.9104 144.772 63.7009 123.698 45.9522 118.092L45.896 118.075L45.8594 118.063C28.05 112.502 8.42805 124.598 2.03253 145.08ZM49.9544 157.198C49.9544 163.247 45.6364 168.15 40.3099 168.15C34.9833 168.15 30.6653 163.247 30.6653 157.198C30.6653 151.149 34.9833 146.246 40.3099 146.246C45.6364 146.246 49.9544 151.149 49.9544 157.198Z" fill="#F2EFE0"/>
    <path fill-rule="evenodd" clip-rule="evenodd" d="M143.465 160.044C143.427 159.586 143.382 159.131 143.329 158.678C142.423 150.867 139.399 143.821 134.926 138.139C133.155 135.888 131.157 133.852 128.973 132.068C123.742 127.792 117.446 124.959 110.658 124.082C108.227 123.768 105.733 123.704 103.201 123.915C82.7696 125.619 67.6699 144.556 69.4753 166.212C70.8282 182.442 81.291 195.593 95.0489 200.449C99.6497 202.072 104.619 202.768 109.739 202.341C128.627 200.767 142.958 184.465 143.59 164.901C143.642 163.302 143.602 161.681 143.465 160.044ZM110.437 162.756C110.437 168.805 106.119 173.708 100.793 173.708C95.4662 173.708 91.1482 168.805 91.1482 162.756C91.1482 156.707 95.4662 151.803 100.793 151.803C106.119 151.803 110.437 156.707 110.437 162.756Z" fill="#F2EFE0"/>
    <path fill-rule="evenodd" clip-rule="evenodd" d="M143.329 158.678C143.792 160.672 144.146 162.702 144.388 164.763C144.637 166.896 144.765 169.063 144.765 171.256C144.765 191.71 133.63 209.799 116.571 220.783C119.269 222.63 122.102 224.387 125.059 226.043C127.535 227.429 130.099 228.746 132.742 229.985C138.292 232.587 144.197 234.851 150.397 236.72C153.539 237.666 156.756 238.511 160.041 239.247C162.45 239.786 164.895 240.267 167.374 240.686C176.596 242.245 185.661 242.846 194.37 242.581C197.977 242.471 201.524 242.212 204.995 241.812C208.51 241.406 211.948 240.855 215.293 240.165C218.603 239.482 221.823 238.663 224.938 237.715C250.396 229.967 268.856 213.583 272.474 192.183C275.631 173.511 266.861 154.73 250.293 139.825C209.05 159.94 155.921 179.999 148.808 166.171C148.419 165.415 148.209 164.503 148.165 163.45C147.753 153.772 161.32 132.187 178.692 110.455C164.264 109.116 150.425 110.112 137.981 113.07C129.907 114.989 122.421 117.734 115.743 121.204C120.67 124.276 125.12 127.934 128.973 132.068C131.157 133.852 133.155 135.888 134.926 138.139C139.399 143.821 142.423 150.867 143.329 158.678Z" fill="#528088"/>
    <path d="M236.975 52.9991C235.762 53.8308 234.558 54.725 233.364 55.6846C218.51 65.536 196.583 88.0738 178.692 110.455C218.007 115.101 231.491 122.848 250.293 139.825C267.119 131.619 281.967 123.403 290.905 117.475C321.752 97.0169 314.239 72.1949 306.108 59.9345C298.312 48.179 265.237 33.6273 236.975 52.9991Z" fill="#DBF4FC" fill-opacity="0.75"/>
    <path d="M148.808 166.171C155.921 179.999 209.05 159.94 250.293 139.825C231.491 122.848 218.007 115.101 178.692 110.455C161.32 132.187 147.753 153.772 148.165 163.45C148.209 164.503 148.419 165.415 148.808 166.171Z" fill="#B9D7DF"/>
    <path d="M125.059 226.043C119.047 242.329 115.742 258.75 121.627 266.27C127.511 273.789 132.579 265.943 131.598 260.058C130.617 254.173 130.47 235.285 132.742 229.985C130.099 228.746 127.535 227.429 125.059 226.043Z" fill="#676361"/>
    <path d="M150.397 236.72C147.268 254.204 148.435 266.597 150.397 274.443C152.358 282.289 166.069 280.491 162.82 271.828C159.571 263.164 159.486 253.288 160.041 239.247C156.756 238.511 153.539 237.666 150.397 236.72Z" fill="#676361"/>
    <path d="M194.37 242.581C193.819 259.602 194.206 272.972 198.947 279.837C203.687 286.703 212.678 282.78 210.226 276.732C207.774 270.683 204.644 256.804 204.995 241.812C201.524 242.212 197.977 242.471 194.37 242.581Z" fill="#676361"/>
    <path d="M215.293 240.165C225.014 254.842 229.842 263.491 242.592 268.231C255.343 272.972 255.179 259.404 247.66 257.606C240.14 255.808 233.847 247.333 224.938 237.715C221.823 238.663 218.603 239.482 215.293 240.165Z" fill="#676361"/>
    <path d="M144.388 164.763C144.637 166.896 144.765 169.063 144.765 171.256C144.765 191.71 133.63 209.799 116.571 220.783C105.695 227.787 92.4116 231.902 78.0708 231.902C75.6099 231.902 73.1801 231.781 70.7883 231.545C69.6791 245.006 68.7574 252.66 66.7406 266.433C72.3953 269.255 75.7435 274.213 74.5491 278.711C73.0895 284.208 65.3985 286.937 57.3709 284.805C49.3432 282.674 44.0188 276.489 45.4784 270.992C46.5371 267.005 50.8739 264.475 56.2397 264.198C57.8171 250.456 58.0914 242.755 57.7109 229.025C36.5191 222.854 19.9398 207.309 13.874 187.755C16.5043 189.698 19.4602 191.224 22.6991 192.235C40.5085 197.796 60.1305 185.7 66.526 165.218C72.9104 144.772 63.7009 123.698 45.9522 118.092C51.2695 115.431 57.0291 113.409 63.1053 112.142C65.6153 111.619 68.1792 111.225 70.7883 110.967C73.1801 110.731 75.6099 110.61 78.0708 110.61C86.2615 110.61 94.1073 111.952 101.357 114.409C104.001 115.305 106.566 116.349 109.04 117.53C111.358 118.637 113.596 119.865 115.743 121.204C120.67 124.276 125.12 127.934 128.973 132.068C123.742 127.792 117.446 124.959 110.658 124.082C108.227 123.768 105.733 123.704 103.201 123.915C82.7696 125.619 67.6699 144.556 69.4753 166.212C70.8282 182.442 81.291 195.593 95.0489 200.449C99.6497 202.072 104.619 202.768 109.739 202.341C128.627 200.767 142.958 184.465 143.59 164.901C143.642 163.302 143.602 161.681 143.465 160.044C143.427 159.586 143.382 159.131 143.329 158.678C143.792 160.672 144.146 162.702 144.388 164.763Z" fill="#696463"/>
    <path d="M47.9029 74.686C61.6341 82.6959 63.1053 112.142 63.1053 112.142C65.6153 111.619 68.1792 111.225 70.7883 110.967C68.9626 83.011 60.4899 66.8396 53.4608 59.974C46.4317 53.1084 34.1716 66.6761 47.9029 74.686Z" fill="#484545"/>
    <path d="M93.3468 72.561C101.193 84.4941 104.041 85.712 101.357 114.409C104.001 115.305 106.566 116.349 109.04 117.53C112.956 94.2108 110.931 66.5127 103.201 59.974C95.4719 53.4353 85.5004 60.6279 93.3468 72.561Z" fill="#484545"/>
</svg>