<svg width="1483" height="169" viewBox="0 0 1483 169" fill="none" xmlns="http://www.w3.org/2000/svg">
    <g clip-path="url(#clip0_63_3)">
        <path d="M1293 169C1274.53 169 1257.16 166.065 1241.99 160.898C1234.59 161.915 1226.89 162.451 1219 162.451C1186.67 162.451 1157.68 153.454 1138.06 139.233C1119.42 149.122 1095.32 155.084 1069 155.084C1036.67 155.084 1007.68 146.087 988.062 131.866C969.424 141.755 945.322 147.717 919 147.717C886.666 147.717 857.682 138.72 838.062 124.499C819.424 134.388 795.322 140.35 769 140.35C757.447 140.35 746.321 139.202 735.898 137.077C717.576 146.295 694.314 151.81 669 151.81C644.325 151.81 621.601 146.571 603.5 137.768C585.399 146.571 562.675 151.81 538 151.81C500.532 151.81 467.562 139.729 448.449 121.439C429.188 133.145 402.936 140.35 374 140.35C347.884 140.35 323.952 134.481 305.376 124.73C286.396 143.468 253.013 155.903 215 155.903C186.73 155.903 161.021 149.026 141.893 137.793C121.569 153.192 87.7656 163.27 49.5 163.27C-12.6318 163.27 -63 136.7 -63 103.924C-63 94.7288 -59.0352 86.0219 -51.959 78.2533C-59.0879 71.6205 -63 64.4043 -63 56.8565C-63 44.9292 -53.2314 33.8296 -36.4375 24.5524C-55.4033 9.72607 -67 -10.1331 -67 -31.9578C-67 -46.3569 -61.9521 -59.9005 -53.0703 -71.7076C-68.9531 -82.2142 -79 -97.7318 -79 -115.042C-79 -146.688 -45.4209 -172.342 -4 -172.342C15.7539 -172.342 33.7227 -166.507 47.1182 -156.971C62.3535 -163.62 80.0811 -167.43 99 -167.43C113.747 -167.43 127.77 -165.115 140.454 -160.945C140.154 -162.77 140 -164.624 140 -166.5C140 -195.495 176.713 -219 222 -219C223.542 -219 225.073 -218.973 226.594 -218.919C244.933 -237.282 272.797 -249 304 -249C344.737 -249 379.785 -229.026 395.373 -200.369C406.398 -205.217 419.262 -208 433 -208C464.863 -208 492.022 -193.033 502.445 -172.042C516.587 -177.47 532.574 -180.527 549.5 -180.527C575.479 -180.527 599.244 -173.324 617.524 -161.403C630.418 -187.648 669.406 -206.722 715.5 -206.722C745.519 -206.722 772.522 -198.632 791.269 -185.741C805.88 -190.767 822.657 -193.624 840.5 -193.624C851.902 -193.624 862.869 -192.457 873.113 -190.303C891.481 -207.602 922.867 -219 958.5 -219C1003.11 -219 1041.07 -201.133 1055.15 -176.19C1067.46 -179.012 1080.5 -180.527 1094 -180.527C1110.8 -180.527 1126.89 -178.18 1141.75 -173.887C1156.58 -183.819 1177.42 -190 1200.5 -190C1203.12 -190 1205.71 -189.921 1208.26 -189.765C1222.19 -211.065 1254.66 -226 1292.5 -226C1336.26 -226 1372.85 -206.022 1381.87 -179.326C1398.97 -186.37 1418.4 -190.35 1439 -190.35C1507.48 -190.35 1563 -146.372 1563 -92.1224C1563 -48.4176 1526.97 -11.3794 1477.15 1.36815C1495.54 18.8154 1507 43.4585 1507 70.7721C1507 123.666 1464.02 166.544 1411 166.544C1393.11 166.544 1376.37 161.664 1362.03 153.165C1343.4 163.044 1319.31 169 1293 169Z" fill="#76912F"/>
    </g>
    <defs>
        <clipPath id="clip0_63_3">
            <rect width="1483" height="169" fill="white"/>
        </clipPath>
    </defs>
</svg>