<svg width="50" height="50" viewBox="0 0 256 256" fill="none" xmlns="http://www.w3.org/2000/svg">
    <path d="M128.053 67C155.929 67 174.259 76.5382 183.043 95.6143C185.849 101.708 180.77 108 174.062 108V108C169.513 108 165.673 104.946 163.321 101.053C162.202 99.202 160.98 97.6702 159.707 96.3984C154.606 91.3016 145.325 87 128.053 87C110.78 87.0001 101.501 91.3016 96.3994 96.3984C91.3013 101.492 87 110.754 87 128C87 145.246 91.3013 154.508 96.3994 159.602C101.501 164.698 110.78 169 128.053 169C145.325 169 154.606 164.698 159.707 159.602C163.718 155.594 167.235 149.007 168.554 137.982C169.209 132.498 173.584 128 179.106 128V128C184.629 128 189.174 132.499 188.659 137.997C185.473 171.999 165.27 189 128.053 189C87.3509 189 67 168.667 67 128C67 87.3335 87.3509 67.0001 128.053 67Z" fill="#ffffffd1"/>
    <path d="M184.019 72.0835V102.583H153.492" stroke="#ffffffd1" stroke-width="20" stroke-linecap="round" stroke-linejoin="round"/>
</svg>