<svg width="256" height="256" viewBox="0 0 256 256" fill="none" xmlns="http://www.w3.org/2000/svg">
    <path d="M181.333 32H74.6668C71.4668 32 69.3335 34.1333 69.3335 37.3333V218.667C69.3335 221.867 71.4668 224 74.6668 224H181.333C184.533 224 186.667 221.867 186.667 218.667V37.3333C186.667 34.1333 184.533 32 181.333 32Z" fill="#C5EFE3"/>
    <path fill-rule="evenodd" clip-rule="evenodd" d="M95.7834 56.888C95.6518 58.2698 95.7497 59.5951 96.0406 60.7868C93.1851 60.3231 89.8709 59.4267 88.2281 58.5765C85.0147 57.2519 84.6268 53.8277 85.2488 52.688C85.838 51.6083 87.3662 50.1115 90.1333 51.3065C90.2151 51.4227 90.303 51.538 90.3974 51.6523C91.3661 53.0748 93.5825 55.1747 95.7834 56.888Z" fill="#CDECF8" fill-opacity="0.75"/>
    <path d="M100.38 69.2167C100.975 69.2167 101.457 69.6303 101.457 70.1404C101.457 70.6505 100.975 71.064 100.38 71.064C99.7852 71.064 99.303 70.6505 99.303 70.1404C99.303 69.6303 99.7852 69.2167 100.38 69.2167Z" fill="#1F1E1E"/>
    <path d="M102.004 64.3482C102.004 63.8381 101.521 63.4245 100.927 63.4245C100.332 63.4245 99.8495 63.8381 99.8495 64.3482C99.8495 64.8583 100.332 65.2718 100.927 65.2718C101.521 65.2718 102.004 64.8583 102.004 64.3482Z" fill="#1F1E1E"/>
    <path fill-rule="evenodd" clip-rule="evenodd" d="M99.1884 73.806C100.836 74.3071 102.526 73.8051 103.385 72.672C103.576 72.4201 103.726 72.137 103.826 71.8269C104.372 70.1213 103.183 68.2422 101.169 67.6297C99.1581 67.0183 97.0857 67.9003 96.5345 69.6L96.5327 69.6054L96.5316 69.6089C95.9847 71.3144 97.1742 73.1935 99.1884 73.806ZM100.38 69.2167C100.975 69.2167 101.457 69.6303 101.457 70.1404C101.457 70.6505 100.975 71.064 100.38 71.064C99.7852 71.064 99.303 70.6505 99.303 70.1404C99.303 69.6303 99.7852 69.2167 100.38 69.2167Z" fill="#F2EFE0"/>
    <path fill-rule="evenodd" clip-rule="evenodd" d="M100.66 60.2616C100.615 60.2652 100.57 60.2696 100.526 60.2746C99.7575 60.3614 99.0645 60.651 98.5058 61.0793C98.2845 61.249 98.0843 61.4403 97.9088 61.6494C97.4883 62.1504 97.2097 62.7533 97.1235 63.4034C97.0926 63.6362 97.0863 63.8751 97.1071 64.1175C97.2746 66.0742 99.1368 67.5202 101.266 67.3473C102.862 67.2177 104.156 66.2158 104.633 64.8982C104.793 64.4576 104.861 63.9817 104.819 63.4914C104.665 61.6826 103.061 60.3101 101.138 60.2496C100.98 60.2447 100.821 60.2485 100.66 60.2616ZM100.927 63.4245C101.521 63.4245 102.004 63.8381 102.004 64.3482C102.004 64.8583 101.521 65.2718 100.927 65.2718C100.332 65.2718 99.8495 64.8583 99.8495 64.3482C99.8495 63.8381 100.332 63.4245 100.927 63.4245Z" fill="#F2EFE0"/>
    <path fill-rule="evenodd" clip-rule="evenodd" d="M100.526 60.2746C100.722 60.2303 100.921 60.1963 101.124 60.1732C101.334 60.1493 101.547 60.1371 101.762 60.1371C103.774 60.1371 105.553 61.2035 106.633 62.8371C106.814 62.5788 106.987 62.3075 107.15 62.0242C107.286 61.7871 107.416 61.5417 107.538 61.2885C107.794 60.757 108.016 60.1915 108.2 59.5978C108.293 59.2969 108.376 58.9888 108.449 58.6741C108.502 58.4435 108.549 58.2093 108.59 57.9719C108.743 57.0888 108.803 56.2207 108.776 55.3867C108.766 55.0412 108.74 54.7015 108.701 54.3691C108.661 54.0325 108.607 53.7033 108.539 53.3829C108.472 53.0659 108.391 52.7576 108.298 52.4593C107.536 50.0212 105.925 48.2534 103.82 47.9069C101.984 47.6046 100.137 48.4445 98.6716 50.0311C100.65 53.9808 102.622 59.0687 101.262 59.7499C101.188 59.7871 101.098 59.8073 100.995 59.8116C100.043 59.8509 97.9205 58.5517 95.7834 56.888C95.6518 58.2698 95.7497 59.5951 96.0406 60.7868C96.2293 61.56 96.4992 62.2769 96.8404 62.9164C97.1425 62.4446 97.5023 62.0184 97.9088 61.6494C98.0843 61.4403 98.2845 61.249 98.5058 61.0793C99.0645 60.651 99.7575 60.3614 100.526 60.2746Z" fill="#528088"/>
    <path d="M90.1333 51.3065C90.2151 51.4227 90.303 51.538 90.3974 51.6523C91.3661 53.0748 93.5825 55.1747 95.7834 56.888C96.2402 53.123 97.0021 51.8317 98.6716 50.0311C97.8646 48.4198 97.0567 46.9979 96.4738 46.1419C94.4619 43.1877 92.021 43.9072 90.8153 44.6859C89.6593 45.4325 88.2283 48.6 90.1333 51.3065Z" fill="#DBF4FC" fill-opacity="0.75"/>
    <path d="M101.262 59.7499C102.622 59.0687 100.65 53.9808 98.6716 50.0311C97.0021 51.8317 96.2402 53.123 95.7834 56.888C97.9205 58.5517 100.043 59.8509 100.995 59.8116C101.098 59.8073 101.188 59.7871 101.262 59.7499Z" fill="#B9D7DF"/>
    <path d="M107.15 62.0242C108.752 62.6 110.367 62.9165 111.106 62.353C111.845 61.7894 111.074 61.3041 110.495 61.398C109.916 61.492 108.059 61.5061 107.538 61.2885C107.416 61.5417 107.286 61.7871 107.15 62.0242Z" fill="#676361"/>
    <path d="M108.2 59.5978C109.919 59.8974 111.138 59.7856 111.91 59.5978C112.681 59.4099 112.504 58.0969 111.653 58.408C110.801 58.7192 109.829 58.7273 108.449 58.6741C108.376 58.9888 108.293 59.2969 108.2 59.5978Z" fill="#676361"/>
    <path d="M108.776 55.3867C110.45 55.4394 111.765 55.4023 112.44 54.9484C113.115 54.4944 112.73 53.6334 112.135 53.8682C111.54 54.103 110.175 54.4028 108.701 54.3691C108.74 54.7015 108.766 55.0412 108.776 55.3867Z" fill="#676361"/>
    <path d="M108.539 53.3829C109.982 52.4519 110.833 51.9896 111.299 50.7686C111.765 49.5475 110.431 49.5632 110.254 50.2833C110.077 51.0034 109.244 51.6061 108.298 52.4593C108.391 52.7576 108.472 53.0659 108.539 53.3829Z" fill="#676361"/>
    <path d="M101.124 60.1732C101.334 60.1493 101.547 60.1371 101.762 60.1371C103.774 60.1371 105.553 61.2035 106.633 62.8371C107.322 63.8787 107.726 65.1508 107.726 66.5241C107.726 66.7598 107.714 66.9925 107.691 67.2216C109.015 67.3278 109.768 67.4161 111.122 67.6092C111.399 67.0677 111.887 66.747 112.329 66.8614C112.87 67.0012 113.138 67.7377 112.929 68.5065C112.719 69.2753 112.111 69.7852 111.57 69.6454C111.178 69.544 110.929 69.1287 110.902 68.6148C109.551 68.4638 108.794 68.4375 107.443 68.4739C106.837 70.5034 105.308 72.0911 103.385 72.672C103.576 72.4201 103.726 72.137 103.826 71.8269C104.372 70.1213 103.183 68.2422 101.169 67.6297C99.1581 67.0183 97.0857 67.9003 96.5345 69.6C96.2727 69.0908 96.0739 68.5392 95.9493 67.9573C95.8979 67.717 95.8591 67.4714 95.8338 67.2216C95.8105 66.9925 95.7986 66.7598 95.7986 66.5241C95.7986 65.7398 95.9306 64.9884 96.1722 64.2941C96.2603 64.0409 96.363 63.7953 96.4792 63.5584C96.588 63.3364 96.7088 63.1221 96.8404 62.9164C97.1425 62.4446 97.5023 62.0184 97.9088 61.6494C97.4883 62.1504 97.2097 62.7533 97.1235 63.4034C97.0926 63.6362 97.0863 63.8751 97.1071 64.1175C97.2746 66.0742 99.1368 67.5202 101.266 67.3473C102.862 67.2177 104.156 66.2158 104.633 64.8982C104.793 64.4576 104.861 63.9817 104.819 63.4914C104.665 61.6826 103.061 60.3101 101.138 60.2496C100.98 60.2447 100.821 60.2485 100.66 60.2616C100.615 60.2652 100.57 60.2696 100.526 60.2746C100.722 60.2303 100.921 60.1963 101.124 60.1732Z" fill="#696463"/>
    <path d="M92.2659 69.4132C93.0536 68.0982 95.9493 67.9573 95.9493 67.9573C95.8979 67.717 95.8591 67.4714 95.8338 67.2216C93.0846 67.3964 91.4943 68.2078 90.8192 68.8809C90.144 69.5541 91.4783 70.7282 92.2659 69.4132Z" fill="#484545"/>
    <path d="M92.057 65.0612C93.2305 64.3098 93.3502 64.0371 96.1722 64.2941C96.2603 64.0409 96.363 63.7953 96.4792 63.5584C94.186 63.1833 91.4622 63.3773 90.8192 64.1175C90.1762 64.8577 90.8835 65.8126 92.057 65.0612Z" fill="#484545"/>
    <path d="M176.394 170.942C176.731 170.201 177.13 169.426 177.581 168.615C178.178 167.541 177.272 166.904 176.496 167.857C175.672 168.869 175.02 169.572 174.646 169.736C174.533 165.429 175.195 155.075 188.207 153.78C188.294 168.742 176.394 170.942 176.394 170.942Z" fill="#7E9B24"/>
    <path d="M164.09 158.656C159.179 158.623 149.038 155.58 147.77 143.67C152.186 142.598 161.744 143.7 164.648 156.676C163.977 156.251 163.239 155.768 162.47 155.254C161.459 154.579 160.591 155.613 161.52 156.397C162.414 157.151 163.272 157.888 164.09 158.656Z" fill="#7E9B24"/>
    <path d="M153.033 184.265C153.087 184.543 153.878 188.998 153.378 191.255C153.841 191.707 154.464 192.37 155.185 193.21C156.615 194.875 158.429 197.237 160.141 200.028C161.048 201.507 161.926 203.107 162.702 204.788C158.244 202.363 149.563 197.252 149.207 196.888C148.331 195.993 153.767 190.642 153.033 184.265Z" fill="#22AD78"/>
    <path d="M165.956 181.762C166.787 178.236 164.416 174.931 167.504 172.245C168.303 176.321 169.15 180.596 170.029 185.006C166.838 193.322 164.441 195.766 160.141 200.028C158.429 197.237 156.615 194.875 155.185 193.21C159.839 190.004 164.183 185.634 165.956 181.762Z" fill="#1A855C"/>
    <path d="M173.005 197.32C173.082 195.066 173.287 194.385 176.334 193.291C177.651 192.817 178.167 192.053 178.127 191.359C178.257 192.602 177.478 193.477 177.073 193.759C175.112 194.103 173.648 194.927 173.005 197.32Z" fill="#169A68"/>
    <path d="M122.713 226.071C127.887 228.238 146.254 225.595 146.903 225.563C147.553 225.531 150.983 225.831 147.773 228.563C142.39 233.146 127.609 235.609 122.775 234.485C122.504 231.676 122.48 228.837 122.713 226.071Z" fill="#3FDDA1"/>
    <path d="M128.063 209.048C132.286 210.751 141.665 211.167 143.552 211.234C145.439 211.3 146.405 212.193 144.264 214.912C142.124 217.631 127.904 219.017 124.609 217.063C125.6 214.228 126.934 211.197 128.063 209.048Z" fill="#3FDDA1"/>
    <path d="M110.314 187.223C113.39 181.816 113.901 180.363 114.518 175.059C114.549 174.797 114.581 174.536 114.616 174.277C114.679 185.764 115.747 191.927 132.013 199.07C133.881 200.874 133.425 202.069 130.912 204.405C130.207 205.377 125.338 208.077 121.158 209.794C118.128 211.044 115.958 211.752 113.17 212.392C109.623 213.209 107.675 213.125 106.413 212.117C105.46 211.365 105.113 210.612 104.71 208.457C104.124 205.359 104.365 202.36 105.51 198.148C106.473 194.635 107.763 191.692 110.314 187.223Z" fill="#17865C"/>
    <path fill-rule="evenodd" clip-rule="evenodd" d="M133.706 179.005C134.575 183.49 131.608 187.837 127.081 188.714C122.553 189.591 118.178 186.666 117.31 182.181C116.441 177.696 119.407 173.349 123.935 172.472C128.463 171.595 132.837 174.52 133.706 179.005Z" fill="#34C68F"/>
    <path d="M122.648 176.62C122.909 175.662 124.386 174.8 125.626 174.876C126.797 174.967 127.775 176.145 127.838 177.516C127.884 178.717 127.171 179.503 125.795 179.769C124.698 179.982 123.781 179.641 123.153 178.783C122.598 177.998 122.444 177.351 122.648 176.62Z" fill="#141311"/>
    <path fill-rule="evenodd" clip-rule="evenodd" d="M127.081 188.714C131.608 187.837 134.575 183.49 133.706 179.005C132.837 174.52 128.463 171.595 123.935 172.472C119.407 173.349 116.441 177.696 117.31 182.181C118.178 186.666 122.553 189.591 127.081 188.714ZM125.626 174.876C124.386 174.8 122.909 175.662 122.648 176.62C122.444 177.351 122.598 177.998 123.153 178.783C123.781 179.641 124.698 179.982 125.795 179.769C127.171 179.503 127.884 178.717 127.838 177.516C127.775 176.145 126.797 174.967 125.626 174.876Z" fill="#FEFEFF"/>
    <path d="M164.648 156.676C165.078 156.948 165.631 156.606 165.585 156.1C164.917 148.752 164.559 143.912 164.544 142.038C164.527 140.06 166.643 138.539 168.712 141.23C169.507 142.264 173.326 165.958 174.3 169.435C174.398 169.786 174.43 169.831 174.646 169.736C175.02 169.572 175.672 168.869 176.496 167.857C177.272 166.904 178.178 167.541 177.581 168.615C177.13 169.426 176.731 170.201 176.394 170.942C175.74 172.379 175.319 173.686 175.209 174.876L179.279 193.586C179.055 193.563 178.812 193.56 178.552 193.581C178.034 193.623 177.54 193.678 177.073 193.759C177.478 193.477 178.257 192.602 178.127 191.359C178.075 190.45 177.067 189.663 175.662 189.82C173.723 190.196 172.332 190.969 171.451 192.103C170.969 189.706 170.495 187.337 170.029 185.006C169.15 180.596 168.303 176.321 167.504 172.245C166.645 167.863 166.279 164.655 165.872 160.472C165.302 159.834 164.708 159.236 164.09 158.656C163.272 157.888 162.414 157.151 161.52 156.397C160.591 155.613 161.459 154.579 162.47 155.254C163.239 155.768 163.977 156.251 164.648 156.676V156.676Z" fill="#8A5326"/>
    <path fill-rule="evenodd" clip-rule="evenodd" d="M149.207 196.888C149.563 197.252 158.244 202.363 162.702 204.788L163.2 205.124C165.974 202.562 167.55 201.063 170.475 198.026C170.041 195.528 170.342 193.529 171.451 192.103C172.332 190.969 173.723 190.196 175.662 189.82C177.067 189.663 178.075 190.45 178.127 191.359C178.167 192.053 177.651 192.817 176.334 193.291C173.287 194.385 173.082 195.066 173.005 197.32C173.648 194.927 175.112 194.103 177.073 193.759C177.54 193.678 178.034 193.623 178.552 193.581C178.812 193.56 179.055 193.563 179.279 193.586C181.243 193.788 181.806 195.555 179.948 196.747C179.813 196.834 179.664 196.918 179.502 196.998C176.871 198.3 175.655 198.653 174.955 200.687C174.078 203.233 173.768 203.581 173.768 203.581C170.062 208.548 167.334 211.957 164.208 212.562C161.846 213.02 155.855 210.747 152.474 209.29C160.863 216.011 164.906 225.216 165.977 237.284L123.128 237.284C122.983 236.357 122.865 235.423 122.775 234.485C127.609 235.609 142.39 233.146 147.773 228.563C150.983 225.831 147.553 225.531 146.903 225.563C146.254 225.595 127.887 228.238 122.713 226.071C122.852 224.429 123.082 222.812 123.404 221.242C123.655 220.011 124.084 218.565 124.609 217.063C127.904 219.017 142.124 217.631 144.264 214.912C146.405 212.193 145.439 211.3 143.552 211.234C141.665 211.167 132.286 210.751 128.063 209.048C129.107 207.201 129.733 206.189 130.912 204.405C133.425 202.069 133.881 200.874 132.013 199.07C115.747 191.927 114.679 185.764 114.616 174.277C115.395 168.401 117.079 163.295 119.495 159.448C120.331 158.105 121.69 156.488 122.303 156.081C122.724 155.798 122.741 155.809 123.318 156.259C127.345 159.411 133.173 168.809 136.77 177.704C137.243 178.88 137.79 180.591 137.872 180.791C138.104 179.73 138.358 178.405 138.507 177.368C139.222 172.375 138.986 167.246 137.918 157.954C144.635 162.486 151.793 173.486 153.033 184.265C153.767 190.642 148.331 195.993 149.207 196.888ZM133.706 179.005C134.575 183.49 131.608 187.837 127.081 188.714C122.553 189.591 118.178 186.666 117.31 182.181C116.441 177.696 119.407 173.349 123.935 172.472C128.463 171.595 132.837 174.52 133.706 179.005Z" fill="#34C68F"/>
    <path d="M152.474 209.29C155.855 210.747 161.846 213.02 164.208 212.562C167.197 220.26 168.797 226.239 170.108 234.392C170.269 235.393 170.409 236.363 170.524 237.284L165.977 237.284C164.906 225.216 160.863 216.011 152.474 209.29Z" fill="#22AD78"/>
    <path d="M176.728 234.406C176.69 229.372 177.456 228.864 178.793 228.173C179.425 231.246 180.052 234.289 180.67 237.284L170.524 237.284C170.409 236.363 170.269 235.393 170.108 234.392C172.949 233.91 174.444 233.827 176.728 234.406Z" fill="#1A855C"/>
    <path d="M178.793 228.173C177.126 220.065 175.425 211.751 173.768 203.581C173.768 203.581 174.078 203.233 174.955 200.687C175.655 198.653 176.871 198.3 179.502 196.998C179.664 196.918 179.813 196.834 179.948 196.747L182.768 209.529L189.127 237.284L180.67 237.284C180.052 234.289 179.425 231.246 178.793 228.173Z" fill="#8A5326"/>
    <path d="M138.492 177.316C138.374 178.182 138.229 179.039 138.057 179.903C138.062 179.879 108.735 80.7367 108.085 77.7368C107.436 74.7368 109.935 74.7369 110.277 76.2368C110.619 77.7366 138.492 177.316 138.492 177.316Z" fill="#D16781"/>
    <path d="M181.333 16.0005C193.066 16.0005 202.667 25.6002 202.667 37.3335V218.667C202.667 230.4 193.066 240 181.333 240H74.667C62.9337 240 53.333 230.4 53.333 218.667V37.3335C53.333 25.6002 62.9337 16.0005 74.667 16.0005H181.333ZM74.667 32.0005C71.467 32.0005 69.333 34.1335 69.333 37.3335V218.667C69.333 221.867 71.467 224 74.667 224H181.333C184.533 224 186.667 221.867 186.667 218.667V37.3335C186.667 34.1335 184.533 32.0005 181.333 32.0005H74.667Z" fill="#37474F"/>
</svg>