<svg width="256" height="256" viewBox="0 0 256 256" fill="none" xmlns="http://www.w3.org/2000/svg">
<g clip-path="url(#clip0_2213_1781)">
<path d="M56.8119 225.043C47.872 228.154 37.2499 233.733 24.8228 240.163C23.7317 240.728 23.0286 239.546 24.0617 238.882C37.0385 230.532 51.7595 222.171 53.4656 219.097C39.7095 217.463 6.36327 216.521 -1.6112 257.765C46.2688 262.462 56.8119 225.043 56.8119 225.043Z" fill="#7E9B24"/>
<path d="M81.1076 198.054C82.4461 182.332 75.6827 148.993 37.9217 141.416C33.1932 155.227 33.9095 186.131 74.6025 199.255C70.3197 190.893 63.7814 179.36 58.8612 171.013C58.2438 169.966 59.6475 168.933 60.4218 169.87C69.0194 180.28 74.5716 189.68 81.1076 198.054Z" fill="#7E9B24"/>
<path d="M283.006 252.268C266.9 250.66 265.047 252.962 262.441 257.034C276.702 261.362 290.76 265.637 304.423 269.799C310.085 264.171 303.604 254.709 309.104 235.804C302.795 235.223 294.267 233.491 284.906 231.088C282.528 240.032 281.822 244.791 283.006 252.268Z" fill="#6E8823"/>
<path d="M209.719 167.257C213.391 178.507 218.906 198.342 216.747 205.764C240.515 217.599 259.188 224.485 284.906 231.088C294.267 233.491 302.795 235.223 309.104 235.804C310.001 235.887 310.854 235.946 311.657 235.981C311.562 229.797 320.175 210.284 344.163 204.004C336.97 204.043 320.457 207.525 311.947 221.149C265.096 215.832 231.42 200.088 209.719 167.257Z" fill="#90AD28"/>
<path d="M129.429 161.656C130.302 161.91 144.336 165.756 151.71 164.824C153.021 166.437 154.96 168.626 157.437 171.181C162.349 176.247 169.376 182.75 177.809 189.049C182.279 192.389 187.144 195.671 192.299 198.651C185.844 183.672 172.032 154.39 170.971 153.144C168.364 150.078 149.633 165.887 129.429 161.656Z" fill="#90AD28"/>
<path d="M117.617 202.256C106.083 203.873 96.1975 195.314 86.6885 204.399C99.5044 208.159 112.944 212.13 126.805 216.247C154.371 208.493 162.9 201.548 177.809 189.049C169.376 182.75 162.349 176.247 157.437 171.181C145.804 185.124 130.536 197.728 117.617 202.256Z" fill="#6E8823"/>
<path d="M460.621 350.368C467.747 353.131 477.788 322.689 467.638 319.736C463.415 318.508 414.215 303.333 348.131 283.136C342.137 287.465 329.758 283.627 318.749 302.747C391.042 326.751 457.355 349.102 460.621 350.368Z" fill="#8A5326"/>
<path d="M165.358 229.405C158.119 228.985 155.878 229.439 151.478 238.862C149.575 242.938 146.974 244.361 144.766 244.029C148.706 244.811 151.738 242.579 152.761 241.366C154.437 235.195 157.506 230.754 165.358 229.405Z" fill="#8EA628"/>
<path d="M325.118 280.857C318.707 282.315 314.985 282.246 309.794 292.025C309.351 292.986 308.493 293.864 307.451 294.527C308.474 293.879 310.544 292.44 311.044 291.608C313.804 286.633 318.201 284.096 325.118 280.857Z" fill="#8EA628"/>
<path d="M304.423 269.799C290.76 265.637 276.702 261.362 262.441 257.034C236.971 249.306 210.852 241.41 185.181 233.696C185.181 233.696 183.975 234.584 175.565 236.636C168.848 238.275 167.358 242.061 162.416 250.094C162.112 250.588 161.8 251.038 161.482 251.446C195.416 262.057 252.852 280.895 308.385 299.309C309.031 296.169 309.896 293.677 311.044 291.608C310.544 292.44 308.474 293.879 307.451 294.527L307.399 294.56C303.915 296.742 298.446 296.521 299.535 289.04C300.524 282.242 304.358 275.125 312.868 272.372C310.071 271.52 307.255 270.661 304.423 269.799Z" fill="#8A5326"/>
<path d="M272.2 77.0093C277.615 94.2009 263.754 152.176 263.461 154.245C263.168 156.314 263.118 167.375 272.812 157.913C289.067 142.047 301.298 95.4879 299.121 79.6905C290.206 77.9949 281.123 77.0794 272.2 77.0093Z" fill="#E3E63B"/>
<path d="M216.122 89.0955C220.333 103.106 218.907 133.233 218.566 139.29C218.225 145.346 220.8 148.7 230.135 142.655C239.47 136.611 248.087 91.5292 242.798 80.4126C233.431 82.7455 223.334 86.1176 216.122 89.0955Z" fill="#E3E63B"/>
<path d="M342.127 95.1182C339.435 93.5844 336.645 92.1398 333.774 90.7876C328.113 115.211 311.987 155.91 307.522 164.744C303.058 173.579 308.609 176.237 316.251 170.551C339.673 157.099 353.533 121.341 357.535 105.144C352.515 101.434 347.412 98.12 342.127 95.1182Z" fill="#E3E63B"/>
<path d="M379.407 124.368C371.896 143.642 354.847 177.045 351.831 180.902C348.815 184.76 349.172 188.415 357.463 185.145C365.754 181.875 384.232 163.882 396.437 145.58C391.275 137.821 385.681 130.887 379.407 124.368Z" fill="#E3E63B"/>
<path d="M151.459 25.8661C133.245 34.1097 128.443 35.3169 111.278 35.7213C110.43 35.7426 109.585 35.7699 108.745 35.8034C145.507 39.4002 164.924 44.6383 183.011 98.7821C188.241 105.293 192.199 104.187 200.418 96.8381C203.738 94.8681 213.815 80.0899 220.54 67.2255C225.432 57.8996 228.337 51.1685 231.209 42.4387C234.866 31.3332 235.171 25.0767 232.312 20.7411C230.186 17.4707 227.875 16.1355 221.096 14.2105C211.348 11.4217 201.674 11.3064 187.854 13.7255C176.321 15.7684 166.519 19.025 151.459 25.8661Z" fill="#76821B"/>
<path fill-rule="evenodd" clip-rule="evenodd" d="M170.971 153.144C172.032 154.39 185.844 183.672 192.299 198.651L193.228 200.341C184.207 208.461 178.946 213.058 168.362 221.519C160.491 219.393 154.003 219.765 149.109 222.89C145.219 225.374 142.336 229.596 140.564 235.687C139.648 240.138 141.869 243.594 144.766 244.029C146.974 244.361 149.575 242.938 151.478 238.862C155.878 229.439 158.119 228.985 165.358 229.405C157.506 230.754 154.437 235.195 152.761 241.366C152.362 242.834 152.043 244.4 151.756 246.046C151.612 246.87 151.549 247.648 151.557 248.373C151.627 254.716 157.12 257.036 161.482 251.446C161.8 251.038 162.112 250.588 162.416 250.094C167.358 242.061 168.848 238.275 175.565 236.636C183.975 234.584 185.181 233.696 185.181 233.696C202.173 223.305 213.889 215.586 216.747 205.764C218.906 198.342 213.391 178.507 209.719 167.257C231.42 200.088 265.096 215.832 311.947 221.149C320.457 207.525 336.97 204.043 344.163 204.004C320.175 210.284 311.562 229.797 311.657 235.981C313.101 247.292 315.887 252.998 326.849 271.653C321.195 270.8 316.585 271.17 312.868 272.372C304.358 275.125 300.524 282.242 299.535 289.04C298.446 296.521 303.915 296.742 307.399 294.56L307.451 294.527C308.493 293.864 309.351 292.986 309.794 292.025C314.985 282.246 318.707 282.315 325.118 280.857C318.201 284.096 313.804 286.633 311.044 291.608C309.896 293.677 309.031 296.169 308.385 299.309C307.719 302.549 311.58 310.301 318.749 302.747C329.758 283.627 342.137 287.465 348.131 283.136C350.052 278.35 348.982 272.725 344.8 259.592C343.36 253.964 343.4 245.689 341.725 243.308C342.352 242.78 342.441 242.584 342.761 242.189C347.567 236.247 368.571 232.414 382.97 225.239C376.258 250.75 422.973 257.05 440.914 253.935C464.026 249.922 469.135 247.124 476.396 242.003C493.876 231.888 507.84 215.305 517.231 193.604C519.568 188.175 523.544 174.511 524.471 168.72C528.006 146.64 525.756 124.914 518.003 105.99C512.806 93.2556 504.427 79.7375 496.747 71.6313C490.446 64.9682 479.618 56.9406 471.462 52.9104C469.306 51.8571 464.312 49.9781 460.365 48.7349C449.963 45.4247 443.115 44.7108 434.834 45.9949C409.608 50.0203 392.113 69.7903 393.225 92.985C393.518 99.463 395.103 105.085 398.235 110.921C404.437 122.48 413.477 129.656 425.281 132.38C441.251 136.079 454.354 129.616 458.292 116.082C460.552 108.311 458.825 101.227 453.46 96.0672C451.384 94.0899 450.929 93.8628 446.663 92.5744C441.294 91.0122 436.472 90.9827 433.723 92.4558C432.314 93.2297 432.069 93.5845 431.817 95.2634C431.372 98.259 432.621 99.664 439.229 103.481C442.835 105.572 444.278 110.537 442.392 114.582C441.211 117.174 439.237 118.588 435.968 119.247C428.554 120.642 420.144 116.017 415.15 107.792C412.461 103.364 411.231 99.4546 410.943 94.257C410.645 88.7721 412.445 82.0981 415.326 77.7277C420.29 70.2696 430.999 65.5248 442.077 65.8592C446.729 65.9816 457.072 68.5171 462.238 70.7779C470.247 74.339 479.105 81.6514 485.13 89.7496C488.227 93.9177 493.099 102.722 495.495 108.486C501.947 123.906 504.016 141.697 501.229 157.459C499.579 166.876 493.277 182.515 488.126 189.966C480.453 201.04 467.767 210.466 453.784 215.394C444.119 218.833 435.737 218.999 430.393 215.881C428.008 214.477 426.492 211.384 421.598 197.933C413.636 176.21 405.736 159.557 396.437 145.58C384.232 163.882 365.754 181.875 357.463 185.145C349.172 188.415 348.815 184.76 351.831 180.902C354.847 177.045 371.896 143.642 379.407 124.368C377.347 122.228 375.215 120.134 373 118.069C367.861 113.271 362.743 108.994 357.535 105.144C353.533 121.341 339.673 157.099 316.251 170.551C308.609 176.237 303.058 173.579 307.522 164.744C311.987 155.91 328.113 115.211 333.774 90.7876C323.082 85.7525 311.257 81.9986 299.121 79.6905C301.298 95.4879 289.067 142.047 272.812 157.913C263.118 167.375 263.168 156.314 263.461 154.245C263.754 152.176 277.615 94.2009 272.2 77.0093C266.899 76.9677 261.655 77.2243 256.535 77.7928C252.52 78.2321 247.762 79.1764 242.798 80.4126C248.087 91.5292 239.47 136.611 230.135 142.655C220.8 148.7 218.225 145.346 218.566 139.29C218.907 133.233 220.333 103.106 216.122 89.0955C209.902 91.8886 206.478 93.5925 200.418 96.8381C192.199 104.187 188.241 105.293 183.011 98.7821C164.924 44.6383 145.507 39.4002 108.745 35.8034C89.7027 36.561 72.8595 40.439 59.8299 47.0337C55.2847 49.3101 49.7075 53.1803 48.2247 55.0218C47.1944 56.2847 47.2254 56.3411 48.4962 58.3208C57.4043 72.1349 85.7813 93.555 113.206 107.689C116.832 109.549 122.147 111.806 122.764 112.128C119.299 112.555 114.98 112.978 111.618 113.147C95.4217 113.959 79.0693 111.691 49.63 105.53C62.167 128.355 95.2818 154.505 129.429 161.656C149.633 165.887 168.364 150.078 170.971 153.144ZM118.271 98.2722C132.376 102.376 147.166 94.1705 151.304 79.9449C155.443 65.7194 147.364 50.8607 133.259 46.757C119.154 42.6534 104.364 50.8588 100.226 65.0843C96.0871 79.3099 104.166 94.1686 118.271 98.2722Z" fill="#B8CC2B"/>
<path d="M113.884 62.1921C110.74 62.7452 107.546 67.2141 107.427 71.2043C107.371 74.9763 110.858 78.4531 115.227 79.0613C119.059 79.5606 121.786 77.5128 123.043 73.1907C124.047 69.7418 123.225 66.7088 120.662 64.4481C118.311 62.4382 116.285 61.7539 113.884 62.1921Z" fill="#141311"/>
<path fill-rule="evenodd" clip-rule="evenodd" d="M151.304 79.9449C147.166 94.1705 132.376 102.376 118.271 98.2722C104.166 94.1686 96.0871 79.3099 100.226 65.0843C104.364 50.8588 119.154 42.6534 133.259 46.757C147.364 50.8607 155.443 65.7194 151.304 79.9449ZM107.427 71.2043C107.546 67.2141 110.74 62.7452 113.884 62.1921C116.285 61.7539 118.311 62.4382 120.662 64.4481C123.225 66.7088 124.047 69.7418 123.043 73.1907C121.786 77.5128 119.059 79.5606 115.227 79.0613C110.858 78.4531 107.371 74.9763 107.427 71.2043Z" fill="#FEFEFF"/>
<path d="M74.6025 199.255C75.347 200.708 74.1096 202.38 72.5034 202.084C46.4197 197.28 4.20339 189.888 -1.81229 189.283C-8.13874 188.646 -13.6324 194.966 -5.62269 202.38C-2.54496 205.229 44.409 214.332 52.604 217.9L52.6073 217.901C53.6784 218.367 53.8334 218.435 53.4656 219.097C51.7595 222.171 37.0385 230.532 24.0617 238.882C23.0286 239.546 23.7317 240.728 24.8228 240.163C37.2499 233.733 47.872 228.154 56.8119 225.043C61.6044 223.375 65.9135 222.417 69.7579 222.417C71.457 222.713 80.4308 225.478 98.0752 231.085C100.222 231.767 99.973 236.482 97.8272 237.166C86.3713 240.817 72.4346 247.363 70.517 249.184C67.8452 251.722 68.2783 260.134 73.5966 258.13C102.629 240.533 122.735 241.411 131.566 242.796C133.492 243.009 140.624 245.028 151.557 248.373C151.549 247.648 151.612 246.87 151.756 246.046C152.043 244.4 152.362 242.834 152.761 241.366C151.738 242.579 148.706 244.811 144.766 244.029C141.869 243.594 139.648 240.138 140.564 235.687C142.336 229.596 145.219 225.374 149.109 222.89C141.577 220.641 134.132 218.424 126.805 216.247C112.944 212.13 99.5044 208.159 86.6885 204.399C83.377 203.427 82.877 200.766 81.1076 198.054C74.5716 189.68 69.0194 180.28 60.4218 169.87C59.6475 168.933 58.2438 169.966 58.8612 171.013C63.7814 179.36 70.3197 190.893 74.6025 199.255V199.255Z" fill="#8A5326"/>
</g>
<defs>
<clipPath id="clip0_2213_1781">
<rect width="256" height="256" fill="white"/>
</clipPath>
</defs>
</svg>
