<svg width="256" height="256" viewBox="0 0 256 256" fill="none" xmlns="http://www.w3.org/2000/svg">
<g clip-path="url(#clip0_24_2)">
<path d="M199.188 225.043C208.128 228.154 218.75 233.733 231.177 240.163C232.268 240.728 232.971 239.546 231.938 238.882C218.962 230.532 204.24 222.171 202.534 219.097C216.291 217.463 249.637 216.521 257.611 257.765C209.731 262.462 199.188 225.043 199.188 225.043Z" fill="#7E9B24"/>
<path d="M174.892 198.054C173.554 182.332 180.317 148.993 218.078 141.416C222.807 155.227 222.09 186.131 181.398 199.255C185.68 190.893 192.219 179.36 197.139 171.013C197.756 169.966 196.352 168.933 195.578 169.87C186.981 180.28 181.428 189.68 174.892 198.054Z" fill="#7E9B24"/>
<path d="M-27.0056 252.268C-10.9001 250.66 -9.04654 252.962 -6.44124 257.034C-20.7024 261.362 -34.7603 265.637 -48.4226 269.799C-54.0847 264.171 -47.6038 254.709 -53.1041 235.804C-46.7945 235.223 -38.2667 233.491 -28.906 231.088C-26.5279 240.032 -25.822 244.791 -27.0056 252.268Z" fill="#235988"/>
<path d="M46.2811 167.257C42.609 178.507 37.094 198.342 39.2534 205.764C15.4845 217.599 -3.18778 224.485 -28.906 231.088C-38.2667 233.491 -46.7945 235.223 -53.1041 235.804C-54.0013 235.887 -54.8536 235.946 -55.6571 235.981C-55.562 229.797 -64.1749 210.284 -88.1627 204.004C-80.9698 204.043 -64.4567 207.525 -55.9472 221.149C-9.0962 215.832 24.5803 200.088 46.2811 167.257Z" fill="#286FAD"/>
<path d="M126.571 161.656C125.698 161.91 111.664 165.756 104.29 164.824C102.979 166.437 101.04 168.626 98.5629 171.181C93.6507 176.247 86.6237 182.75 78.1913 189.049C73.721 192.389 68.8558 195.671 63.7013 198.651C70.1556 183.672 83.9681 154.39 85.0287 153.144C87.6365 150.078 106.367 165.887 126.571 161.656Z" fill="#286FAD"/>
<path d="M138.383 202.256C149.917 203.873 159.802 195.314 169.311 204.399C156.496 208.159 143.056 212.13 129.195 216.247C101.629 208.493 93.0997 201.548 78.1913 189.049C86.6237 182.75 93.6507 176.247 98.5629 171.181C110.196 185.124 125.464 197.728 138.383 202.256Z" fill="#235988"/>
<path d="M-204.621 350.368C-211.747 353.131 -221.788 322.689 -211.638 319.736C-207.415 318.508 -158.215 303.333 -92.1313 283.136C-86.1365 287.465 -73.7578 283.627 -62.7495 302.747C-135.042 326.751 -201.355 349.102 -204.621 350.368Z" fill="#8A5326"/>
<path d="M90.6424 229.405C97.8812 228.985 100.122 229.439 104.522 238.862C106.425 242.938 109.026 244.361 111.234 244.029C107.294 244.811 104.262 242.579 103.239 241.366C101.563 235.195 98.4943 230.754 90.6424 229.405Z" fill="#286BA6"/>
<path d="M-69.1183 280.857C-62.7069 282.315 -58.9852 282.246 -53.7943 292.025C-53.3511 292.986 -52.4926 293.864 -51.4511 294.527C-52.474 293.879 -54.5443 292.44 -55.0442 291.608C-57.8041 286.633 -62.2006 284.096 -69.1183 280.857Z" fill="#286BA6"/>
<path d="M-48.4226 269.799C-34.7603 265.637 -20.7024 261.362 -6.44124 257.034C19.0289 249.306 45.1477 241.41 70.8191 233.696C70.8191 233.696 72.0247 234.584 80.4347 236.636C87.1519 238.275 88.6424 242.061 93.5838 250.094C93.8876 250.588 94.2 251.038 94.5184 251.446C60.5839 262.057 3.14841 280.895 -52.3854 299.309C-53.0309 296.169 -53.8959 293.677 -55.0442 291.608C-54.5443 292.44 -52.474 293.879 -51.4511 294.527L-51.3993 294.56C-47.9148 296.742 -42.4464 296.521 -43.5349 289.04C-44.5239 282.242 -48.3582 275.125 -56.868 272.372C-54.071 271.52 -51.2553 270.661 -48.4226 269.799Z" fill="#8A5326"/>
<path d="M-16.1996 77.0093C-21.6155 94.2009 -7.75421 152.176 -7.46123 154.245C-7.16825 156.314 -7.11813 167.375 -16.8119 157.913C-33.0666 142.047 -45.2985 95.4879 -43.121 79.6905C-34.2061 77.9949 -25.1234 77.0794 -16.1996 77.0093Z" fill="#3B96E6"/>
<path d="M39.8775 89.0955C35.6669 103.106 37.0925 133.233 37.434 139.29C37.7754 145.346 35.1998 148.7 25.8649 142.655C16.53 136.611 7.91255 91.5292 13.2017 80.4126C22.5685 82.7455 32.6662 86.1176 39.8775 89.0955Z" fill="#3B96E6"/>
<path d="M-86.1268 95.1182C-83.435 93.5844 -80.6454 92.1398 -77.7742 90.7876C-72.1135 115.211 -55.9866 155.91 -51.5223 164.744C-47.0581 173.579 -52.6091 176.237 -60.2506 170.551C-83.6733 157.099 -97.5331 121.341 -101.535 105.144C-96.5154 101.434 -91.4121 98.12 -86.1268 95.1182Z" fill="#3B96E6"/>
<path d="M-123.407 124.368C-115.896 143.642 -98.8474 177.045 -95.831 180.902C-92.8146 184.76 -93.1717 188.415 -101.463 185.145C-109.754 181.875 -128.232 163.882 -140.437 145.58C-135.275 137.821 -129.681 130.887 -123.407 124.368Z" fill="#3B96E6"/>
<path d="M104.541 25.8661C122.755 34.1097 127.557 35.3169 144.722 35.7213C145.57 35.7426 146.415 35.7699 147.255 35.8034C110.493 39.4002 91.0758 44.6383 72.9888 98.7821C67.7592 105.293 63.8013 104.187 55.5815 96.8381C52.2619 94.8681 42.1854 80.0899 35.4595 67.2255C30.5681 57.8996 27.6628 51.1685 24.7915 42.4387C21.1343 31.3332 20.8294 25.0767 23.6876 20.7411C25.814 17.4707 28.1247 16.1355 34.9042 14.2105C44.6524 11.4217 54.326 11.3064 68.1464 13.7255C79.6791 15.7684 89.4814 19.025 104.541 25.8661Z" fill="#1B5282"/>
<path fill-rule="evenodd" clip-rule="evenodd" d="M85.0287 153.144C83.9681 154.39 70.1556 183.672 63.7013 198.651L62.7725 200.341C71.7925 208.461 77.054 213.058 87.6378 221.519C95.5095 219.393 101.997 219.765 106.891 222.89C110.781 225.374 113.664 229.596 115.436 235.687C116.352 240.138 114.131 243.594 111.234 244.029C109.026 244.361 106.425 242.938 104.522 238.862C100.122 229.439 97.8812 228.985 90.6424 229.405C98.4943 230.754 101.563 235.195 103.239 241.366C103.638 242.834 103.957 244.4 104.244 246.046C104.388 246.87 104.451 247.648 104.443 248.373C104.373 254.716 98.8803 257.036 94.5184 251.446C94.2 251.038 93.8876 250.588 93.5838 250.094C88.6424 242.061 87.1519 238.275 80.4347 236.636C72.0247 234.584 70.8191 233.696 70.8191 233.696C53.8273 223.305 42.1111 215.586 39.2534 205.764C37.094 198.342 42.609 178.507 46.2811 167.257C24.5803 200.088 -9.0962 215.832 -55.9472 221.149C-64.4567 207.525 -80.9698 204.043 -88.1627 204.004C-64.1749 210.284 -55.562 229.797 -55.6571 235.981C-57.1015 247.292 -59.8874 252.998 -70.8489 271.653C-65.1947 270.8 -60.5853 271.17 -56.868 272.372C-48.3582 275.125 -44.5239 282.242 -43.5349 289.04C-42.4464 296.521 -47.9148 296.742 -51.3993 294.56L-51.4511 294.527C-52.4926 293.864 -53.3511 292.986 -53.7943 292.025C-58.9852 282.246 -62.7069 282.315 -69.1183 280.857C-62.2006 284.096 -57.8041 286.633 -55.0442 291.608C-53.8959 293.677 -53.0309 296.169 -52.3854 299.309C-51.7193 302.549 -55.5799 310.301 -62.7495 302.747C-73.7578 283.627 -86.1365 287.465 -92.1313 283.136C-94.0518 278.35 -92.9817 272.725 -88.8003 259.592C-87.3598 253.964 -87.3996 245.689 -85.7248 243.308C-86.3519 242.78 -86.441 242.584 -86.7607 242.189C-91.5672 236.247 -112.571 232.414 -126.97 225.239C-120.258 250.75 -166.973 257.05 -184.914 253.935C-208.026 249.922 -213.135 247.124 -220.396 242.003C-237.876 231.888 -251.84 215.305 -261.231 193.604C-263.568 188.175 -267.544 174.511 -268.471 168.72C-272.006 146.64 -269.756 124.914 -262.003 105.99C-256.806 93.2556 -248.427 79.7375 -240.747 71.6313C-234.446 64.9682 -223.618 56.9406 -215.462 52.9104C-213.306 51.8571 -208.312 49.9781 -204.365 48.7349C-193.963 45.4247 -187.115 44.7108 -178.834 45.9949C-153.608 50.0203 -136.113 69.7903 -137.225 92.985C-137.518 99.463 -139.103 105.085 -142.235 110.921C-148.437 122.48 -157.477 129.656 -169.281 132.38C-185.251 136.079 -198.354 129.616 -202.292 116.082C-204.552 108.311 -202.825 101.227 -197.46 96.0672C-195.384 94.0899 -194.929 93.8628 -190.663 92.5744C-185.294 91.0122 -180.472 90.9827 -177.723 92.4558C-176.314 93.2297 -176.069 93.5845 -175.817 95.2634C-175.372 98.259 -176.621 99.664 -183.229 103.481C-186.835 105.572 -188.278 110.537 -186.392 114.582C-185.211 117.174 -183.237 118.588 -179.968 119.247C-172.554 120.642 -164.144 116.017 -159.15 107.792C-156.461 103.364 -155.231 99.4546 -154.943 94.257C-154.645 88.7721 -156.445 82.0981 -159.326 77.7277C-164.29 70.2696 -174.999 65.5248 -186.077 65.8592C-190.729 65.9816 -201.072 68.5171 -206.238 70.7779C-214.247 74.339 -223.105 81.6514 -229.13 89.7496C-232.227 93.9177 -237.099 102.722 -239.495 108.486C-245.947 123.906 -248.016 141.697 -245.229 157.459C-243.579 166.876 -237.277 182.515 -232.126 189.966C-224.453 201.04 -211.767 210.466 -197.784 215.394C-188.119 218.833 -179.737 218.999 -174.393 215.881C-172.008 214.477 -170.492 211.384 -165.598 197.933C-157.636 176.21 -149.736 159.557 -140.437 145.58C-128.232 163.882 -109.754 181.875 -101.463 185.145C-93.1717 188.415 -92.8146 184.76 -95.831 180.902C-98.8474 177.045 -115.896 143.642 -123.407 124.368C-121.347 122.228 -119.215 120.134 -117 118.069C-111.861 113.271 -106.743 108.994 -101.535 105.144C-97.5331 121.341 -83.6733 157.099 -60.2506 170.551C-52.6091 176.237 -47.0581 173.579 -51.5223 164.744C-55.9866 155.91 -72.1135 115.211 -77.7742 90.7876C-67.0823 85.7525 -55.2569 81.9986 -43.121 79.6905C-45.2985 95.4879 -33.0666 142.047 -16.8119 157.913C-7.11813 167.375 -7.16825 156.314 -7.46123 154.245C-7.75421 152.176 -21.6155 94.2009 -16.1996 77.0093C-10.8993 76.9677 -5.655 77.2243 -0.534991 77.7928C3.47988 78.2321 8.2382 79.1764 13.2017 80.4126C7.91255 91.5292 16.53 136.611 25.8649 142.655C35.1998 148.7 37.7754 145.346 37.434 139.29C37.0925 133.233 35.6669 103.106 39.8775 89.0955C46.0979 91.8886 49.5224 93.5925 55.5815 96.8381C63.8013 104.187 67.7592 105.293 72.9888 98.7821C91.0758 44.6383 110.493 39.4002 147.255 35.8034C166.297 36.561 183.141 40.439 196.17 47.0337C200.715 49.3101 206.292 53.1803 207.775 55.0218C208.806 56.2847 208.775 56.3411 207.504 58.3208C198.596 72.1349 170.219 93.555 142.794 107.689C139.168 109.549 133.853 111.806 133.236 112.128C136.701 112.555 141.02 112.978 144.382 113.147C160.578 113.959 176.931 111.691 206.37 105.53C193.833 128.355 160.718 154.505 126.571 161.656C106.367 165.887 87.6365 150.078 85.0287 153.144ZM137.729 98.2722C123.624 102.376 108.834 94.1705 104.696 79.9449C100.557 65.7194 108.636 50.8607 122.741 46.757C136.846 42.6534 151.636 50.8588 155.774 65.0843C159.913 79.3099 151.834 94.1686 137.729 98.2722Z" fill="#2B81CC"/>
<path d="M142.116 62.1921C145.26 62.7452 148.454 67.2141 148.573 71.2043C148.629 74.9763 145.142 78.4531 140.773 79.0613C136.941 79.5606 134.214 77.5128 132.957 73.1907C131.953 69.7418 132.775 66.7088 135.338 64.4481C137.689 62.4382 139.715 61.7539 142.116 62.1921Z" fill="#141311"/>
<path fill-rule="evenodd" clip-rule="evenodd" d="M104.696 79.9449C108.834 94.1705 123.624 102.376 137.729 98.2722C151.834 94.1686 159.913 79.3099 155.774 65.0843C151.636 50.8588 136.846 42.6534 122.741 46.757C108.636 50.8607 100.557 65.7194 104.696 79.9449ZM148.573 71.2043C148.454 67.2141 145.26 62.7452 142.116 62.1921C139.715 61.7539 137.689 62.4382 135.338 64.4481C132.775 66.7088 131.953 69.7418 132.957 73.1907C134.214 77.5128 136.941 79.5606 140.773 79.0613C145.142 78.4531 148.629 74.9763 148.573 71.2043Z" fill="#FEFEFF"/>
<path d="M181.398 199.255C180.653 200.708 181.89 202.38 183.497 202.084C209.58 197.28 251.797 189.888 257.812 189.283C264.139 188.646 269.632 194.966 261.623 202.38C258.545 205.229 211.591 214.332 203.396 217.9L203.393 217.901C202.322 218.367 202.167 218.435 202.534 219.097C204.24 222.171 218.962 230.532 231.938 238.882C232.971 239.546 232.268 240.728 231.177 240.163C218.75 233.733 208.128 228.154 199.188 225.043C194.396 223.375 190.087 222.417 186.242 222.417C184.543 222.713 175.569 225.478 157.925 231.085C155.778 231.767 156.027 236.482 158.173 237.166C169.629 240.817 183.565 247.363 185.483 249.184C188.155 251.722 187.722 260.134 182.403 258.13C153.371 240.533 133.265 241.411 124.434 242.796C122.508 243.009 115.376 245.028 104.443 248.373C104.451 247.648 104.388 246.87 104.244 246.046C103.957 244.4 103.638 242.834 103.239 241.366C104.262 242.579 107.294 244.811 111.234 244.029C114.131 243.594 116.352 240.138 115.436 235.687C113.664 229.596 110.781 225.374 106.891 222.89C114.423 220.641 121.868 218.424 129.195 216.247C143.056 212.13 156.496 208.159 169.311 204.399C172.623 203.427 173.123 200.766 174.892 198.054C181.428 189.68 186.981 180.28 195.578 169.87C196.352 168.933 197.756 169.966 197.139 171.013C192.219 179.36 185.68 190.893 181.398 199.255V199.255Z" fill="#8A5326"/>
</g>
<defs>
<clipPath id="clip0_24_2">
<rect width="256" height="256" fill="white" transform="matrix(-1 0 0 1 256 0)"/>
</clipPath>
</defs>
</svg>
