<svg width="1483" height="1133" viewBox="0 0 1483 1133" fill="none" xmlns="http://www.w3.org/2000/svg">
<g clip-path="url(#clip0_1_524)">
<path d="M1046.92 147.742L1046.74 147.655C1035.53 155.384 1025.61 164.691 1017.38 175.229C1016.53 175.179 1015.67 175.137 1014.81 175.104C1013.58 175.055 1012.33 175.023 1011.08 175.009C1010.55 175.003 1010.03 175 1009.5 175C980.048 175 953.496 184.514 934.8 199.747C919.789 183.746 897.113 172.247 870.887 168.402C864.609 167.482 858.128 167 851.5 167C841.433 167 831.705 168.112 822.514 170.183C795.318 176.312 772.822 190.845 760.149 209.859C742.229 198.102 718.947 191 693.5 191C674.485 191 656.68 194.965 641.417 201.875C624.644 191.228 604.354 185 582.5 185C562.87 185 544.504 190.024 528.813 198.762C510.143 184.624 485.287 176 458 176C437.655 176 418.663 180.794 402.577 189.093C395.099 186.449 386.981 185 378.5 185L377.76 185.004C371.29 160.542 340.279 142 303 142C275.384 142 251.208 152.174 237.9 167.393C228.286 163.334 217.031 161 205 161C200.891 161 196.872 161.272 192.979 161.792C179.695 163.568 167.865 168.229 158.86 174.814C153.655 174.276 148.363 174 143 174C118.996 174 96.4131 179.537 76.709 189.285C60.6104 182.124 41.7119 178 21.5 178C-37.3184 178 -85 212.922 -85 256C-85 264.479 -83.1523 272.643 -79.7363 280.287C-91.2393 295.457 -98 313.991 -98 334C-98 385.363 -53.4521 427 1.5 427C25.7666 427 48.0049 418.88 65.2734 405.389C87.46 419.033 114.207 427 143 427C149.391 427 155.681 426.607 161.842 425.848C176.401 451.004 204.155 468 236 468C245.537 468 254.708 466.476 263.268 463.664C291.018 493.933 331.464 513 376.5 513C411.456 513 443.647 501.513 469.282 482.217C474.094 482.733 479.007 483 484 483C518.885 483 549.871 469.972 569.404 449.811C600.709 480.369 649.362 500 704 500C749.469 500 790.792 486.405 821.423 464.232C843.562 485.997 878.142 500 917 500C937.266 500 956.368 496.191 973.148 489.459C994.672 515.049 1032.25 532 1075 532C1109.85 532 1141.26 520.737 1163.34 502.712C1169.26 503.56 1175.32 504 1181.5 504C1229.83 504 1271.34 477.062 1289.38 438.56C1308.98 463.607 1341.59 480 1378.5 480C1398.27 480 1416.8 475.299 1432.76 467.086C1447.26 474.03 1464.07 478 1482 478C1536.68 478 1581 441.063 1581 395.5C1581 356.507 1548.54 323.831 1504.9 315.219C1532.15 296.088 1550 264.158 1550 228C1550 169.458 1503.21 122 1445.5 122C1428.89 122 1413.18 125.931 1399.24 132.926C1386.12 121.818 1369.92 113.821 1351.96 110.187C1344.89 108.755 1337.54 108 1330 108C1285.53 108 1247.64 134.266 1233.22 171.061C1208.3 141.763 1169.98 123 1127 123C1097.63 123 1070.43 131.764 1048.2 146.666L1048.09 146.864L1047.96 147.126L1047.8 147.434L1047.5 148.032L1047.39 147.976L1047.17 147.869L1046.92 147.742Z" fill="#557129"/>
</g>
<defs>
<clipPath id="clip0_1_524">
<rect width="1483" height="1133" fill="white"/>
</clipPath>
</defs>
</svg>
