<svg width="1483" height="992" viewBox="0 0 1483 992" fill="none" xmlns="http://www.w3.org/2000/svg">
<g clip-path="url(#clip0_1_520)">
<path fill-rule="evenodd" clip-rule="evenodd" d="M1042.74 33.7625C1031.53 40.3431 1021.61 48.2673 1013.38 57.2394C1012.53 57.1972 1011.67 57.1618 1010.81 57.1332C1009.58 57.0918 1008.33 57.0648 1007.08 57.0525C1006.55 57.0473 1006.03 57.0448 1005.5 57.0448C976.048 57.0448 949.496 65.1449 930.8 78.1148C915.789 64.4914 893.113 54.7009 866.887 51.4273C860.609 50.6438 854.128 50.2335 847.5 50.2335C837.433 50.2335 827.705 51.1799 818.514 52.9434C791.318 58.1619 768.822 70.5359 756.149 86.7242C738.229 76.7142 714.947 70.6674 689.5 70.6674C670.485 70.6674 652.68 74.0436 637.417 79.9266C620.644 70.8612 600.354 65.559 578.5 65.559C558.87 65.559 540.504 69.8364 524.813 77.2763C506.143 65.2389 481.287 57.8962 454 57.8962C433.655 57.8962 414.663 61.9783 398.577 69.044C391.099 66.7924 382.981 65.559 374.5 65.559L373.76 65.5623C367.29 44.735 336.279 28.9481 299 28.9481C271.384 28.9481 247.208 37.6107 233.9 50.5682C224.286 47.1122 213.031 45.125 201 45.125C196.891 45.125 192.872 45.3568 188.979 45.7997C175.695 47.3111 163.865 51.2801 154.86 56.8868C149.655 56.4287 144.363 56.1934 139 56.1934C114.996 56.1934 92.4131 60.908 72.709 69.2076C56.6104 63.1101 37.7119 59.5991 17.5 59.5991C-41.3184 59.5991 -89 89.3321 -89 126.009C-89 133.229 -87.1523 140.18 -83.7363 146.687C-95.2393 159.604 -102 175.384 -102 192.42C-102 236.151 -57.4521 271.601 -2.5 271.601C9.54252 271.601 21.0855 269.899 31.7695 266.78C44.8851 289.238 75.645 305 111.5 305C135.43 305 157.09 297.979 172.75 286.632C188.06 298.934 208.959 306.509 232 306.509C241.537 306.509 250.708 305.212 259.268 302.817C287.018 328.589 327.464 344.823 372.5 344.823C407.456 344.823 439.647 335.043 465.282 318.614C470.094 319.054 475.007 319.281 480 319.281C514.885 319.281 545.871 308.189 565.404 291.023C596.709 317.04 645.362 333.755 700 333.755C745.469 333.755 786.792 322.18 817.423 303.301C839.562 321.832 874.142 333.755 913 333.755C933.266 333.755 952.368 330.512 969.148 324.78C990.672 346.568 1028.25 361 1071 361C1105.85 361 1137.26 351.41 1159.34 336.064C1165.26 336.786 1171.32 337.16 1177.5 337.16C1225.83 337.16 1267.34 314.225 1285.38 281.444C1304.98 302.769 1337.59 316.726 1374.5 316.726C1394.27 316.726 1412.8 312.724 1428.76 305.732C1443.26 311.643 1460.07 315.024 1478 315.024C1532.68 315.024 1577 283.575 1577 244.782C1577 211.582 1544.54 183.762 1500.9 176.429C1528.15 160.141 1546 132.956 1546 102.17C1546 52.3261 1499.21 11.9198 1441.5 11.9198C1424.89 11.9198 1409.18 15.2666 1395.24 21.2222C1382.12 11.7645 1365.92 4.95633 1347.96 1.86226C1340.89 0.642511 1333.54 0 1326 0C1281.53 0 1243.64 22.3634 1229.22 53.6911C1204.3 28.7465 1165.98 12.7712 1123 12.7712C1093.63 12.7712 1066.43 20.2332 1044.2 32.9204L1042.74 33.7625Z" fill="#557129"/>
</g>
<defs>
<clipPath id="clip0_1_520">
<rect width="1483" height="992" fill="white"/>
</clipPath>
</defs>
</svg>
