<svg width="1483" height="1133" viewBox="0 0 1483 1133" fill="none" xmlns="http://www.w3.org/2000/svg">
<g clip-path="url(#clip0_33_42)">
<path d="M1381.78 465.345C1378.98 460.808 1378.31 461.214 1376.72 461.347C1377.04 462.21 1377.37 463.07 1377.69 463.928C1377.84 464.333 1377.99 464.738 1378.14 465.142C1379.38 468.441 1380.59 471.699 1381.78 474.89C1384.39 475.246 1384.22 471.834 1390.27 469.49C1389.16 467.723 1387.91 465.144 1386.66 462.213C1383.84 463.38 1383.5 463.539 1381.78 465.345Z" fill="#7A4257"/>
<path d="M1388.32 429.759C1386.11 432.971 1382.02 438.384 1379.65 439.305C1381.31 447.894 1383.24 454.16 1386.66 462.213C1387.91 465.144 1389.16 467.723 1390.27 469.49C1390.43 469.742 1390.59 469.977 1390.74 470.194C1392.34 468.932 1399.17 467.281 1405.62 472.303C1404.17 470.428 1399.95 466.803 1394.68 467.302C1386.69 453.975 1384.07 442.009 1388.32 429.759Z" fill="#904F68"/>
<path d="M1373.72 407.623C1373.82 407.902 1375.63 412.345 1377.35 414.088C1377.19 414.754 1377 415.7 1376.83 416.86C1376.49 419.159 1376.19 422.3 1376.23 425.768C1376.25 427.606 1376.36 429.536 1376.62 431.482C1379.25 426.795 1384.15 417.32 1384.26 416.792C1384.36 416.324 1383.4 415.799 1381.99 415.029C1379.49 413.667 1375.59 411.542 1373.72 407.623Z" fill="#904F68"/>
<path d="M1364.41 431.016C1363.07 429.037 1362.5 428.541 1359.15 429.275C1357.7 429.593 1356.81 429.197 1356.45 428.553C1357.04 429.74 1358.23 430.087 1358.75 430.112C1360.7 429.316 1362.48 429.23 1364.41 431.016Z" fill="#904F68"/>
<path d="M1424.46 428.052C1421.44 432.345 1407.07 439.072 1403.35 440.811C1403.09 440.933 1402.89 441.031 1402.74 441.101C1402.71 441.113 1402.69 441.124 1402.67 441.135C1402.58 441.178 1402.52 441.207 1402.49 441.222C1401.89 441.559 1398.98 443.759 1403.4 444.403C1410.81 445.482 1425.45 439.367 1429.15 435.635C1427.81 432.962 1426.23 430.402 1424.46 428.052Z" fill="#8F3759"/>
<path d="M1433.72 449.979C1433.59 448.968 1433.4 447.948 1433.18 446.926C1425.66 450.332 1411.77 454.256 1408.56 454.856C1405.36 455.455 1405.77 457.44 1408.79 458.302C1417 461.741 1429.14 458.213 1434.18 456.019C1434.15 453.962 1433.99 451.963 1433.72 449.979Z" fill="#8F3759"/>
<path d="M1433.53 465.591C1426.98 467.482 1414.82 469.704 1413.2 469.687C1411.59 469.669 1410.7 470.494 1413.22 472.01C1415.74 473.526 1424.15 474.761 1431.38 474.293C1432.38 471.389 1433.08 468.538 1433.53 465.591Z" fill="#8F3759"/>
<path fill-rule="evenodd" clip-rule="evenodd" d="M1358.33 434.393C1358.33 434.393 1358.32 434.393 1358.33 434.393Z" fill="#A8607C"/>
<path d="M1362.25 413.232C1359.52 410.536 1359.5 404.974 1353.77 404.43C1355.72 408.987 1357.6 413.451 1359.42 417.827C1359.44 417.886 1359.47 417.946 1359.49 418.005C1359.49 418.013 1359.5 418.02 1359.5 418.027C1367.05 423.69 1369.97 424.367 1376.23 425.768C1376.19 422.3 1376.49 419.159 1376.83 416.86C1370.85 416.605 1366.02 415.707 1362.25 413.232Z" fill="#7A4257"/>
<path d="M1614.32 538.558C1632.98 510.29 1654.78 470.674 1677.24 420.639C1668.52 417.411 1660.25 413.336 1652.56 408.522C1629.58 457.844 1610.36 498.229 1583.01 531.562C1561.11 558.242 1533.22 582.615 1491.99 609.185C1488.58 568.438 1488.84 542.605 1490.97 504.171C1491.27 498.641 1491.61 492.851 1491.99 486.717C1517.01 422.787 1532.01 382.267 1550.37 324.426C1541.74 328.258 1532.6 331.304 1523.06 333.463C1508.32 377.224 1496.87 410.444 1480.49 439.57C1478.5 411.752 1477.28 387.43 1475.68 355.452C1475.38 349.45 1475.07 343.178 1474.73 336.563C1463.91 335.56 1453.46 333.437 1443.52 330.326C1443.3 346.664 1443.12 362.186 1442.95 377.01L1442.95 377.054C1442.57 409.783 1442.23 439.11 1441.61 466.304C1442.38 465.017 1443.32 463.928 1444.51 462.927C1450.36 457.994 1459.04 458.617 1465.15 464.414C1467.14 466.325 1468.32 468.26 1469.54 471.645C1470 472.927 1470.51 474.61 1470.67 475.385C1471.25 478.326 1471.31 482.767 1470.83 485.75C1470.24 489.382 1468.38 494.281 1466.09 498.19C1462.68 504.006 1457.45 508.943 1450.96 512.436C1449.25 513.353 1444.88 515.047 1442.99 515.521C1441.98 515.772 1440.98 515.984 1439.99 516.156C1438.89 541.185 1437.33 565.608 1435.04 591.361C1413.74 562.767 1402.4 531.814 1388.32 492.798C1387.6 492.581 1386.72 491.707 1385.62 490.629C1383.17 488.208 1379.66 484.758 1374.67 485.412C1371.26 485.047 1372.52 482.485 1373.5 482.011C1374.45 481.552 1375.28 481.279 1376.05 481.166C1375.73 481.202 1374.94 480.948 1374.57 480.81L1374.55 480.803C1373.28 480.327 1372.24 478.852 1374.42 477.639C1376.4 476.538 1379.03 476.117 1381.45 477.794C1382.24 478.339 1383 479.105 1383.72 480.141C1383.08 478.407 1382.44 476.657 1381.78 474.89C1380.59 471.699 1379.38 468.441 1378.14 465.142C1374.78 456.218 1371.17 446.876 1367.25 437.063C1367.25 437.063 1366.78 436.925 1364.56 435.135C1363 433.877 1361.81 434.009 1359.45 434.273C1359.34 434.284 1359.24 434.296 1359.13 434.308C1359 434.323 1358.86 434.338 1358.72 434.352C1358.62 434.364 1358.51 434.375 1358.4 434.386C1358.39 434.388 1358.37 434.389 1358.36 434.39C1358.33 434.392 1358.31 434.394 1358.29 434.396C1358.26 434.399 1358.23 434.401 1358.2 434.403C1358.18 434.404 1358.15 434.405 1358.13 434.406C1358.11 434.407 1358.1 434.408 1358.08 434.409C1358.06 434.409 1358.05 434.41 1358.03 434.41C1358.01 434.411 1357.98 434.412 1357.95 434.412C1357.92 434.412 1357.89 434.412 1357.86 434.412C1355.52 434.389 1355.03 432.487 1356.68 431.199C1356.87 431.052 1357.08 430.913 1357.33 430.786C1357.81 430.531 1358.29 430.302 1358.75 430.112C1358.23 430.087 1357.04 429.74 1356.45 428.553C1355.99 427.707 1356.45 426.434 1357.8 425.783C1359.59 425.088 1361.16 424.956 1362.52 425.347C1361.53 422.935 1360.52 420.495 1359.5 418.027L1359.49 418.005L1359.42 417.827C1355.87 409.293 1351.86 400.537 1347.67 391.375C1345.76 387.191 1343.81 382.922 1341.84 378.55C1334.39 383.458 1326.35 387.647 1317.84 391.008C1327.37 417.716 1343.01 461.003 1354.93 493.615C1363.87 518.106 1370.95 537.049 1372.33 539.614C1373.92 542.565 1356.94 532.67 1335.43 519.13C1302.43 498.37 1258.77 469.039 1254.97 464.293C1252.67 461.419 1233.11 459.119 1251.52 480.967C1272.01 502.289 1295.15 519.884 1317.65 536.989L1318.24 537.436C1372.56 578.743 1422.96 617.35 1422.96 698.88C1422.02 958.654 1416.27 1089.83 1333.78 1123.78C1369.04 1128.09 1390.09 1127.54 1435.61 1108.26C1462.72 1126.32 1478.67 1133.42 1510.4 1132.98C1503.79 1119.41 1501.71 1113.19 1505.22 1108.26C1559.68 1127.61 1571.35 1127.32 1578.29 1118.61C1508.97 1089.49 1504.63 966.09 1499.47 741.428C1502.34 669.632 1521.01 649.532 1552.7 615.408C1569.66 597.156 1590.34 574.891 1614.32 538.558Z" fill="#6E4825"/>
<path d="M1375.69 480.922C1375.35 480.999 1374.95 480.95 1374.57 480.81C1374.94 480.948 1375.73 481.202 1376.05 481.166C1377.9 480.893 1379.45 481.536 1381.68 482.698C1381.55 482.588 1381.42 482.48 1381.3 482.376L1381.25 482.332C1379.86 481.146 1378.96 480.378 1375.69 480.922Z" fill="#904F68"/>
<path d="M1441.26 480.447C1441.01 489.47 1440.72 498.271 1440.38 506.901C1443.33 506.382 1447.07 505.232 1449.25 504.1C1453.94 501.674 1458.18 497.573 1460.93 492.798C1461.96 491.017 1463.29 487.98 1463.76 486.335C1464.67 483.138 1464.81 479.356 1464.14 476.547C1463.7 474.742 1462.29 471.527 1461.39 470.285C1459.26 467.319 1455.88 465.465 1452.93 465.658C1451.21 465.779 1449.1 466.644 1447.73 467.819C1446.42 468.935 1445.64 470.039 1445.02 471.629C1443.87 474.582 1444.34 477.709 1446.19 479.37C1447.02 480.094 1447.78 480.328 1448.7 480.118C1450.14 479.803 1451.15 478.431 1450.97 477.069C1450.65 474.575 1450.77 473.967 1451.64 473.484C1452.13 473.214 1452.27 473.207 1452.76 473.421C1453.69 473.846 1454.65 475.114 1455.32 476.832C1455.83 478.207 1455.87 478.371 1455.76 479.31C1455.49 481.747 1453.98 483.617 1451.49 484.58C1447.54 486.109 1443.61 484.472 1441.26 480.447Z" fill="#6E4825"/>
<path d="M1410.07 415.793C1407.25 419.699 1399.07 425.355 1397.42 426.478C1395.76 427.6 1395.4 428.946 1398.85 430.179C1402.31 431.413 1415.84 424.647 1417.69 421.038C1415.2 419.053 1412.3 417.085 1410.07 415.793Z" fill="#8F3759"/>
<path fill-rule="evenodd" clip-rule="evenodd" d="M1385.67 394.569C1385.81 395.269 1386.01 396.116 1386.17 396.789C1385.9 396.514 1385.63 396.24 1385.35 395.966C1384.55 395.145 1383.57 394.099 1382.85 393.253C1379.4 389.176 1376.72 384.442 1372.44 375.503C1368.97 383.353 1368.75 397.254 1373.72 407.623C1375.59 411.542 1379.49 413.667 1381.99 415.029C1383.4 415.799 1384.36 416.324 1384.26 416.792C1384.15 417.32 1379.25 426.795 1376.62 431.482L1376.36 432.063C1375.16 431.839 1374.23 431.68 1373.4 431.538C1371.5 431.214 1370.09 430.973 1367.07 430.224C1366.05 427.738 1364.66 426.115 1362.86 425.459C1362.75 425.418 1362.63 425.381 1362.52 425.347C1361.16 424.956 1359.59 425.088 1357.8 425.783C1356.45 426.434 1355.99 427.707 1356.45 428.553C1356.81 429.197 1357.7 429.593 1359.15 429.275C1362.5 428.541 1363.07 429.037 1364.41 431.016C1362.48 429.23 1360.7 429.316 1358.75 430.112C1358.29 430.302 1357.81 430.531 1357.33 430.786C1357.08 430.913 1356.87 431.052 1356.68 431.199C1355.03 432.487 1355.52 434.389 1357.86 434.412C1357.89 434.412 1357.92 434.412 1357.95 434.412C1357.98 434.412 1358.01 434.411 1358.03 434.41L1358.08 434.409L1358.13 434.406C1358.15 434.405 1358.18 434.404 1358.2 434.403C1358.23 434.401 1358.26 434.399 1358.29 434.396C1358.31 434.394 1358.33 434.392 1358.36 434.39L1358.4 434.386C1358.51 434.375 1358.62 434.364 1358.72 434.352C1358.86 434.338 1359 434.323 1359.13 434.308L1359.45 434.273C1361.81 434.009 1363 433.877 1364.56 435.135C1366.78 436.925 1367.25 437.063 1367.25 437.063C1373.37 439.431 1376.5 440.522 1379.65 439.305C1382.02 438.384 1386.11 432.971 1388.32 429.759C1384.07 442.009 1386.69 453.975 1394.68 467.302C1399.95 466.803 1404.17 470.428 1405.62 472.303C1399.17 467.281 1392.34 468.932 1390.74 470.194C1388.06 472.836 1387.13 474.707 1384.44 481.309C1384.21 480.887 1383.97 480.498 1383.72 480.141C1383 479.105 1382.24 478.339 1381.45 477.794C1379.03 476.117 1376.4 476.538 1374.42 477.639C1372.24 478.852 1373.28 480.327 1374.55 480.803L1374.57 480.81C1374.95 480.95 1375.35 480.999 1375.69 480.922C1378.96 480.378 1379.86 481.146 1381.25 482.332L1381.3 482.376C1381.42 482.48 1381.55 482.588 1381.68 482.698C1379.45 481.536 1377.9 480.893 1376.05 481.166C1375.28 481.279 1374.45 481.552 1373.5 482.011C1372.52 482.485 1371.26 485.047 1374.67 485.412C1379.66 484.758 1383.17 488.208 1385.62 490.629C1386.72 491.707 1387.6 492.581 1388.32 492.798C1389.07 492.589 1389.19 491.421 1389.35 489.858C1389.54 488.01 1389.78 485.611 1391.19 483.594C1391.69 482.954 1392.38 482.287 1393.02 481.662C1393.89 480.821 1394.67 480.055 1394.84 479.53C1395.05 479.576 1395.14 479.576 1395.25 479.577L1395.29 479.577L1395.3 479.577L1395.32 479.577L1395.34 479.578C1396.79 479.617 1399.13 481.201 1401.76 482.983C1403.7 484.298 1405.81 485.72 1407.83 486.71C1401 489.559 1405.56 499.745 1409.78 505.231C1410.52 506.194 1411.26 507.012 1411.91 507.62C1417.59 512.866 1419.35 513.643 1422.14 514.519C1427.47 516.73 1433.54 517.277 1439.99 516.156C1440.98 515.984 1441.98 515.772 1442.99 515.521C1444.88 515.047 1449.25 513.353 1450.96 512.436C1457.45 508.943 1462.68 504.006 1466.09 498.19C1468.38 494.281 1470.24 489.382 1470.83 485.75C1471.31 482.767 1471.25 478.326 1470.67 475.385C1470.51 474.61 1470 472.927 1469.54 471.645C1468.32 468.26 1467.14 466.325 1465.15 464.414C1459.04 458.617 1450.36 457.994 1444.51 462.927C1443.32 463.928 1442.38 465.017 1441.61 466.304C1441.32 466.783 1441.06 467.289 1440.82 467.828C1439.03 471.764 1438.96 475.567 1440.61 479.201C1440.81 479.639 1441.03 480.054 1441.26 480.447C1443.61 484.472 1447.54 486.109 1451.49 484.58C1453.98 483.617 1455.49 481.747 1455.76 479.31C1455.87 478.371 1455.83 478.207 1455.32 476.832C1454.65 475.114 1453.69 473.846 1452.76 473.421C1452.27 473.207 1452.13 473.214 1451.64 473.484C1450.77 473.967 1450.65 474.575 1450.97 477.069C1451.15 478.431 1450.14 479.803 1448.7 480.118C1447.78 480.328 1447.02 480.094 1446.19 479.37C1444.34 477.709 1443.87 474.582 1445.02 471.629C1445.64 470.039 1446.42 468.935 1447.73 467.819C1449.1 466.644 1451.21 465.779 1452.93 465.658C1455.88 465.465 1459.26 467.319 1461.39 470.285C1462.29 471.527 1463.7 474.742 1464.14 476.547C1464.81 479.356 1464.67 483.138 1463.76 486.335C1463.29 487.98 1461.96 491.017 1460.93 492.798C1458.18 497.573 1453.94 501.674 1449.25 504.1C1447.07 505.232 1443.33 506.382 1440.38 506.901C1439.55 507.047 1438.77 507.144 1438.12 507.175C1433.68 507.383 1428.67 505.949 1424.58 503.275C1421.75 501.433 1420.03 499.273 1419.77 497.25C1419.66 496.345 1420.17 495.329 1422.71 491.356C1426.81 484.925 1429.58 479.524 1431.38 474.293C1424.15 474.761 1415.74 473.526 1413.22 472.01C1410.7 470.494 1411.59 469.669 1413.2 469.687C1414.82 469.704 1426.98 467.482 1433.53 465.591C1433.68 464.623 1433.8 463.646 1433.89 462.653C1434.12 460.348 1434.22 458.152 1434.18 456.019C1429.14 458.213 1417 461.741 1408.79 458.302C1405.77 457.44 1405.36 455.455 1408.56 454.856C1411.77 454.256 1425.66 450.332 1433.18 446.926C1432.36 443.12 1430.98 439.274 1429.15 435.635C1425.45 439.367 1410.81 445.482 1403.4 444.403C1398.98 443.759 1401.89 441.559 1402.49 441.222C1402.52 441.207 1402.58 441.178 1402.67 441.135L1402.74 441.101C1402.89 441.031 1403.09 440.933 1403.35 440.811C1407.07 439.072 1421.44 432.345 1424.46 428.052C1423.41 426.656 1422.3 425.335 1421.12 424.109C1420.2 423.146 1419 422.089 1417.69 421.038C1415.84 424.647 1402.31 431.413 1398.85 430.179C1395.4 428.946 1395.76 427.6 1397.42 426.478C1399.07 425.355 1407.25 419.699 1410.07 415.793C1409.52 415.492 1409.24 415.326 1409.02 415.195L1408.98 415.174C1407.64 415.207 1406.63 415.15 1406.21 414.987C1402.94 414.403 1401.75 413.684 1402.04 411.522C1402.07 411.317 1402.11 411.099 1402.17 410.867C1412.54 395.175 1409.96 389.074 1403.42 378.807C1399.35 374.022 1394.92 370.441 1390.56 368.4C1389.05 367.684 1386.91 367.023 1386.13 367.013C1385.59 367.002 1385.59 367.022 1385.33 367.753C1383.56 372.871 1383.76 384.583 1385.67 394.569ZM1389.14 393.969C1390.95 398.462 1396.08 400.631 1400.61 398.815C1405.15 396.999 1407.36 391.884 1405.56 387.392C1403.76 382.899 1398.62 380.73 1394.09 382.546C1389.56 384.362 1387.34 389.477 1389.14 393.969Z" fill="#A8607C"/>
<path d="M1408.98 415.174C1411.42 415.113 1414.95 414.752 1417.98 414.191C1421.4 413.565 1423.74 412.951 1426.59 411.923C1430.21 410.615 1431.9 409.423 1432.44 407.801C1432.86 406.585 1432.73 405.715 1431.86 403.565C1430.6 400.47 1428.66 397.937 1425.23 394.843C1422.35 392.267 1419.51 390.386 1414.68 387.869C1408.84 384.819 1407.55 383.818 1403.95 379.448C1403.78 379.232 1403.6 379.019 1403.42 378.807C1409.96 389.074 1412.54 395.175 1402.17 410.867C1402.11 411.099 1402.07 411.317 1402.04 411.522C1401.75 413.684 1402.94 414.403 1406.21 414.987C1406.63 415.15 1407.64 415.207 1408.98 415.174Z" fill="#712140"/>
<path fill-rule="evenodd" clip-rule="evenodd" d="M1394.84 479.53C1394.86 479.536 1394.88 479.54 1394.9 479.544C1394.94 479.552 1394.98 479.558 1395.01 479.562C1395.06 479.57 1395.11 479.574 1395.15 479.575C1395.18 479.577 1395.22 479.577 1395.25 479.577C1395.14 479.576 1395.05 479.576 1394.84 479.53Z" fill="#557129"/>
<path d="M1397.61 385.502C1396.83 384.798 1395.02 384.878 1393.96 385.657C1392.97 386.409 1392.78 388.02 1393.51 389.277C1394.16 390.373 1395.24 390.664 1396.62 390.112C1397.72 389.672 1398.34 388.842 1398.41 387.718C1398.45 386.7 1398.22 386.035 1397.61 385.502Z" fill="#141311"/>
<path fill-rule="evenodd" clip-rule="evenodd" d="M1389.14 393.969C1390.95 398.462 1396.08 400.631 1400.61 398.815C1405.15 396.999 1407.36 391.884 1405.56 387.392C1403.76 382.899 1398.62 380.73 1394.09 382.546C1389.56 384.362 1387.34 389.477 1389.14 393.969ZM1393.96 385.657C1395.02 384.878 1396.83 384.798 1397.61 385.502C1398.22 386.035 1398.45 386.7 1398.41 387.718C1398.34 388.842 1397.72 389.672 1396.62 390.112C1395.24 390.664 1394.16 390.373 1393.51 389.277C1392.78 388.02 1392.97 386.409 1393.96 385.657Z" fill="#FEFEFF"/>
</g>
<defs>
<clipPath id="clip0_33_42">
<rect width="1483" height="1133" fill="white"/>
</clipPath>
</defs>
</svg>
