<svg width="1483" height="1298" viewBox="0 0 1483 1298" fill="none" xmlns="http://www.w3.org/2000/svg">
<g clip-path="url(#clip0_2205_1797)">
<path d="M1270.99 204.102C1286.16 198.935 1303.53 196 1322 196C1348.31 196 1372.4 201.956 1391.03 211.835C1405.37 203.336 1422.11 198.456 1440 198.456C1493.02 198.456 1536 241.334 1536 294.228C1536 321.541 1524.54 346.185 1506.15 363.632C1555.97 376.379 1592 413.418 1592 457.122C1592 511.372 1536.48 555.35 1468 555.35C1434.54 555.35 1404.18 544.853 1381.87 527.789C1363.41 539.305 1338.68 546.346 1311.5 546.346C1273.61 546.346 1240.47 532.656 1222.44 512.232C1197.61 532.719 1162.25 545.527 1123 545.527C1109.5 545.527 1096.46 544.012 1084.15 541.19C1070.07 566.133 1032.11 584 987.5 584C951.867 584 920.481 572.602 902.113 555.303C891.869 557.457 880.902 558.624 869.5 558.624C851.657 558.624 834.88 555.767 820.269 550.741C801.522 563.632 774.519 571.722 744.5 571.722C698.406 571.722 659.418 552.648 646.524 526.403C628.244 538.324 604.479 545.527 578.5 545.527C545.424 545.527 515.936 533.851 496.788 515.627C483.72 519.587 469.239 521.789 454 521.789C430.084 521.789 408.036 516.366 390.383 507.235C367.456 523.124 332.791 533.249 294 533.249C257.182 533.249 224.081 524.128 201.205 509.614C182.537 523.702 156.633 532.43 128 532.43C109.081 532.43 91.3535 528.62 76.1182 521.971C62.7227 531.507 44.7539 537.342 25 537.342C-16.4209 537.342 -50 511.688 -50 480.042C-50 462.732 -39.9531 447.214 -24.0703 436.708C-32.9521 424.901 -38 411.357 -38 396.958C-38 375.133 -26.4033 355.274 -7.4375 340.448C-24.2314 331.17 -34 320.071 -34 308.143C-34 300.596 -30.0879 293.38 -22.959 286.747C-30.0352 278.978 -34 270.271 -34 261.076C-34 228.3 16.3682 201.73 78.5 201.73C116.766 201.73 150.569 211.808 170.893 227.207C190.021 215.974 215.73 209.097 244 209.097C282.013 209.097 315.396 221.532 334.376 240.27C352.952 230.519 376.884 224.65 403 224.65C431.936 224.65 458.188 231.855 477.449 243.561C496.562 225.271 529.532 213.19 567 213.19C591.675 213.19 614.399 218.429 632.5 227.232C650.601 218.429 673.325 213.19 698 213.19C723.314 213.19 746.576 218.705 764.898 227.923C775.321 225.798 786.447 224.65 798 224.65C824.322 224.65 848.424 230.612 867.062 240.501C886.682 226.28 915.666 217.283 948 217.283C974.322 217.283 998.424 223.245 1017.06 233.134C1036.68 218.913 1065.67 209.916 1098 209.916C1124.32 209.916 1148.42 215.878 1167.06 225.767C1186.68 211.546 1215.67 202.549 1248 202.549C1255.89 202.549 1263.59 203.085 1270.99 204.102Z" fill="#76912F"/>
<ellipse cx="45" cy="508.5" rx="65" ry="54.5" fill="#76912F"/>
<ellipse cx="172.5" cy="537.5" rx="83.5" ry="66.5" fill="#76912F"/>
<ellipse cx="256" cy="527.5" rx="50" ry="35.5" fill="#76912F"/>
<ellipse cx="1339.5" cy="527.5" rx="85.5" ry="66.5" fill="#76912F"/>
<ellipse cx="1222" cy="504" rx="80" ry="59" fill="#76912F"/>
</g>
<defs>
<clipPath id="clip0_2205_1797">
<rect width="1483" height="1298" fill="white"/>
</clipPath>
</defs>
</svg>
