<svg width="1483" height="1102" viewBox="0 0 1483 1102" fill="none" xmlns="http://www.w3.org/2000/svg">
<g clip-path="url(#clip0_1_527)">
<path d="M1261.75 359.211C1275.26 382.103 1305 398 1339.5 398C1377.52 398 1409.75 378.697 1420.86 352.003C1435.39 356.738 1451.31 359.35 1468 359.35C1536.48 359.35 1592 315.372 1592 261.122C1592 217.418 1555.97 180.379 1506.15 167.632C1524.54 150.185 1536 125.541 1536 98.2279C1536 45.3343 1493.02 2.4557 1440 2.4557C1422.11 2.4557 1405.37 7.33611 1391.03 15.8351C1372.4 5.95578 1348.31 0 1322 0C1303.53 0 1286.16 2.93512 1270.99 8.10232C1263.59 7.08471 1255.89 6.54852 1248 6.54852C1215.67 6.54852 1186.68 15.5457 1167.06 29.7667C1148.42 19.8778 1124.32 13.9156 1098 13.9156C1065.67 13.9156 1036.68 22.9128 1017.06 37.1338C998.424 27.2449 974.322 21.2827 948 21.2827C915.666 21.2827 886.682 30.2797 867.062 44.5009C848.424 34.612 824.322 28.6498 798 28.6498C786.447 28.6498 775.321 29.7983 764.898 31.9235C746.576 22.7046 723.314 17.1899 698 17.1899C673.325 17.1899 650.601 22.4294 632.5 31.2318C614.399 22.4294 591.675 17.1899 567 17.1899C529.532 17.1899 496.562 29.2705 477.449 47.5613C458.188 35.855 431.936 28.6498 403 28.6498C376.884 28.6498 352.952 34.5192 334.376 44.2703C315.396 25.5316 282.013 13.097 244 13.097C215.73 13.097 190.021 19.9743 170.893 31.2072C150.569 15.8081 116.766 5.72996 78.5 5.72996C16.3682 5.72996 -34 32.3002 -34 65.076C-34 74.2712 -30.0352 82.9781 -22.959 90.7467C-30.0879 97.3795 -34 104.596 -34 112.143C-34 124.071 -24.2314 135.17 -7.4375 144.448C-26.4033 159.274 -38 179.133 -38 200.958C-38 215.357 -32.9521 228.901 -24.0703 240.708C-39.9531 251.214 -50 266.732 -50 284.042C-50 304.253 -36.3029 322.021 -15.6138 332.221C-6.18827 352.573 17.3965 367 45 367C62.4653 367 78.3218 361.224 90.0008 351.827C96.2307 383.65 130.795 408 172.5 408C207.403 408 237.305 390.945 249.782 366.728C251.819 366.908 253.894 367 256 367C281.002 367 301.718 353.971 305.413 336.954C339.552 335.184 369.73 325.548 390.383 311.235C408.036 320.366 430.084 325.789 454 325.789C469.239 325.789 483.72 323.587 496.788 319.627C515.936 337.851 545.424 349.527 578.5 349.527C604.479 349.527 628.244 342.324 646.524 330.403C659.418 356.648 698.406 375.722 744.5 375.722C774.519 375.722 801.522 367.632 820.269 354.741C834.88 359.767 851.657 362.624 869.5 362.624C880.902 362.624 891.869 361.457 902.113 359.303C920.481 376.602 951.867 388 987.5 388C1032.11 388 1070.07 370.133 1084.15 345.19C1096.46 348.012 1109.5 349.527 1123 349.527C1135.93 349.527 1148.43 348.138 1160.28 345.542C1174.96 358.647 1197.15 367 1222 367C1236.47 367 1250.04 364.167 1261.75 359.211Z" fill="#76912F"/>
</g>
<defs>
<clipPath id="clip0_1_527">
<rect width="1483" height="1102" fill="white"/>
</clipPath>
</defs>
</svg>
