<svg width="1483" height="1133" viewBox="0 0 1483 1133" fill="none" xmlns="http://www.w3.org/2000/svg">
<g clip-path="url(#clip0_33_52)">
<path d="M1293 0C1274.53 0 1257.16 2.93512 1241.99 8.10232C1234.59 7.08471 1226.89 6.54852 1219 6.54852C1186.67 6.54852 1157.68 15.5457 1138.06 29.7667C1119.42 19.8778 1095.32 13.9156 1069 13.9156C1036.67 13.9156 1007.68 22.9128 988.062 37.1338C969.424 27.2449 945.322 21.2827 919 21.2827C886.666 21.2827 857.682 30.2797 838.062 44.5009C819.424 34.612 795.322 28.6498 769 28.6498C757.447 28.6498 746.321 29.7983 735.898 31.9235C717.576 22.7046 694.314 17.1899 669 17.1899C644.325 17.1899 621.601 22.4294 603.5 31.2318C585.399 22.4294 562.675 17.1899 538 17.1899C500.532 17.1899 467.562 29.2705 448.449 47.5613C429.188 35.855 402.936 28.6498 374 28.6498C347.884 28.6498 323.952 34.5192 305.376 44.2703C286.396 25.5316 253.013 13.097 215 13.097C186.73 13.097 161.021 19.9743 141.893 31.2072C121.569 15.8081 87.7656 5.72996 49.5 5.72996C-12.6318 5.72996 -63 32.3002 -63 65.076C-63 74.2712 -59.0352 82.9781 -51.959 90.7467C-59.0879 97.3795 -63 104.596 -63 112.143C-63 124.071 -53.2314 135.17 -36.4375 144.448C-55.4033 159.274 -67 179.133 -67 200.958C-67 215.357 -61.9521 228.901 -53.0703 240.708C-68.9531 251.214 -79 266.732 -79 284.042C-79 315.688 -45.4209 341.342 -4 341.342C15.7539 341.342 33.7227 335.507 47.1182 325.971C62.3535 332.62 80.0811 336.43 99 336.43C113.747 336.43 127.77 334.115 140.454 329.945C140.154 331.77 140 333.624 140 335.5C140 364.495 176.713 388 222 388C223.542 388 225.073 387.973 226.594 387.919C244.933 406.282 272.797 418 304 418C344.737 418 379.785 398.026 395.373 369.369C406.398 374.217 419.262 377 433 377C464.863 377 492.022 362.033 502.445 341.042C516.587 346.47 532.574 349.527 549.5 349.527C575.479 349.527 599.244 342.324 617.524 330.403C630.418 356.648 669.406 375.722 715.5 375.722C745.519 375.722 772.522 367.632 791.269 354.741C805.88 359.767 822.657 362.624 840.5 362.624C851.902 362.624 862.869 361.457 873.113 359.303C891.481 376.602 922.867 388 958.5 388C1003.11 388 1041.07 370.133 1055.15 345.19C1067.46 348.012 1080.5 349.527 1094 349.527C1110.8 349.527 1126.89 347.18 1141.75 342.887C1156.58 352.819 1177.42 359 1200.5 359C1203.12 359 1205.71 358.921 1208.26 358.765C1222.19 380.065 1254.66 395 1292.5 395C1336.26 395 1372.85 375.022 1381.87 348.326C1398.97 355.37 1418.4 359.35 1439 359.35C1507.48 359.35 1563 315.372 1563 261.122C1563 217.418 1526.97 180.379 1477.15 167.632C1495.54 150.185 1507 125.541 1507 98.2279C1507 45.3343 1464.02 2.4557 1411 2.4557C1393.11 2.4557 1376.37 7.33611 1362.03 15.8351C1343.4 5.95578 1319.31 0 1293 0Z" fill="#76912F"/>
</g>
<defs>
<clipPath id="clip0_33_52">
<rect width="1483" height="1133" fill="white"/>
</clipPath>
</defs>
</svg>
