<svg width="1483" height="1133" viewBox="0 0 1483 1133" fill="none" xmlns="http://www.w3.org/2000/svg">
<g clip-path="url(#clip0_33_47)">
<path fill-rule="evenodd" clip-rule="evenodd" d="M-174.463 348.073C-164.155 344.518 -154.419 340.086 -145.396 334.893C-120.45 383.335 -103.459 422.6 -89.6553 456.02C-72.6079 497.293 -58.2975 529.771 -32.4961 560.019C-29.5964 531.561 -27.6683 504.637 -26.317 476.915C-24.2527 434.568 -23.642 388.515 -22.91 333.311C-22.7018 317.615 -22.4839 301.18 -22.22 283.879C-10.1848 287.17 2.47816 289.416 15.5908 290.477C15.9964 297.475 16.3763 304.11 16.74 310.46C18.6773 344.288 20.1509 370.017 22.5599 399.445C42.4063 368.633 56.2752 333.491 74.1313 287.198C85.6847 284.915 96.7595 281.691 107.215 277.639C84.9736 338.826 66.8041 381.691 36.4981 449.32C36.0412 455.809 35.6245 461.935 35.2546 467.784C32.6833 508.442 32.3691 535.77 36.4981 578.875C86.4426 550.767 120.226 524.984 146.751 496.76C147.334 496.14 147.913 495.518 148.49 494.894C148.515 494.866 148.54 494.839 148.566 494.811C148.654 494.715 148.742 494.62 148.83 494.524C148.831 494.522 148.833 494.521 148.834 494.519L148.838 494.515C151.35 491.784 153.806 489.009 156.213 486.189C157.813 484.313 159.391 482.418 160.949 480.503C160.986 480.457 161.024 480.41 161.061 480.364C162.234 478.92 163.397 477.464 164.548 475.997C188.835 445.045 208.421 408.935 231.011 366.6C240.331 371.693 250.341 376.004 260.904 379.418C233.701 432.349 207.284 474.257 184.682 504.16C155.631 542.597 130.58 566.149 110.043 585.458C71.6485 621.556 49.0331 642.819 45.558 718.769C51.8076 956.431 57.0605 1086.97 141.035 1117.77C132.635 1126.99 118.492 1127.3 52.5271 1106.83C48.2757 1112.04 50.7925 1118.62 58.7993 1132.98C20.3629 1133.45 1.03674 1125.94 -31.7992 1106.83C-86.9413 1127.22 -112.449 1127.8 -155.152 1123.25C-55.2302 1087.33 -48.26 948.566 -47.1312 673.76C-47.1312 587.512 -108.176 546.671 -173.987 502.974L-174.698 502.501C-201.951 484.407 -229.985 465.793 -254.811 443.238C-277.111 420.125 -253.417 422.558 -250.63 425.599C-246.028 430.619 -193.13 461.647 -153.165 483.609C-127.099 497.932 -106.534 508.399 -108.46 505.278C-110.134 502.565 -118.705 482.525 -129.543 456.617C-143.975 422.118 -162.92 376.326 -174.463 348.073Z" fill="#6E4825"/>
<path d="M111.265 531.622C111.44 531.575 111.607 531.527 111.769 531.481C113.389 531.02 114.437 530.721 116.972 532.436C117.228 532.631 117.584 532.744 117.958 532.773C117.591 532.745 116.83 532.654 116.577 532.502C115.127 531.56 113.584 531.505 111.265 531.622Z" fill="#90AD28"/>
<path d="M96.4066 469.341C97.1777 473.508 104.521 482.579 107.984 486.716C108.479 487.307 108.895 487.797 109.201 488.158C109.299 488.274 109.391 488.383 109.466 488.471C109.632 488.668 109.736 488.793 109.766 488.834C110.14 489.348 111.731 492.31 107.779 491.152C101.152 489.21 91.2283 478.452 89.5604 473.9C91.7123 472.174 94.0205 470.633 96.4066 469.341Z" fill="#E3E63B"/>
<path d="M80.2128 484.175C80.7168 483.379 81.2599 482.594 81.838 481.821C86.8405 487.572 96.9742 496.2 99.4326 497.936C101.891 499.671 100.78 501.177 97.917 500.739C89.7096 500.467 80.8894 492.843 77.5052 489.064C78.3239 487.352 79.2217 485.735 80.2128 484.175Z" fill="#E3E63B"/>
<path d="M74.3737 497.345C79.1388 501.449 88.4794 507.987 89.8394 508.592C91.1994 509.198 91.6248 510.231 88.9323 510.535C86.2397 510.839 78.7123 508.642 72.8257 505.469C73.1054 502.649 73.6184 499.99 74.3737 497.345Z" fill="#E3E63B"/>
<path d="M119 518.5C123.095 515.772 124.688 516.278 125.968 517C125.553 517.371 125.138 517.74 124.72 518.109C121.8 520.693 118.818 523.246 115.711 525.818C113.388 525.115 113.313 521.533 109.141 517.241C110.752 516.186 112.795 514.505 114.965 512.525C116.879 514.587 118.252 516.323 119 518.5Z" fill="#6E8823"/>
<path fill-rule="evenodd" clip-rule="evenodd" d="M109.201 488.158C109.259 488.227 109.318 488.297 109.369 488.356C109.317 488.295 109.261 488.229 109.201 488.158Z" fill="#E3E63B"/>
<path fill-rule="evenodd" clip-rule="evenodd" d="M109.201 488.158L109.34 488.323L109.351 488.336C109.304 488.28 109.253 488.22 109.201 488.158Z" fill="#E3E63B"/>
<path fill-rule="evenodd" clip-rule="evenodd" d="M129.656 496.006C129.603 495.951 129.55 495.892 129.498 495.828C127.931 493.928 126.65 488.094 126.052 484.664C125.696 488.364 124.795 491.786 123.367 494.989C120.198 502.095 114.437 508.122 106.287 513.712C102.06 511.267 97.1294 512.687 95.1926 513.702C102.529 511.968 107.624 515.979 108.48 517.653C109.705 520.896 109.771 522.825 109.488 529.398C110.884 528.362 112.175 527.804 113.344 527.597L113.391 527.589C113.459 527.577 113.527 527.567 113.594 527.558C116.149 527.208 118.105 528.54 119.301 530.171C120.66 532.025 119.223 532.864 117.977 532.775L117.958 532.773C117.584 532.744 117.228 532.631 116.972 532.436C114.437 530.721 113.389 531.02 111.769 531.481C111.607 531.527 111.44 531.575 111.265 531.622C113.584 531.505 115.127 531.56 116.577 532.502C117.18 532.894 117.768 533.44 118.389 534.191C119.03 534.966 119.099 537.598 116.096 536.592C111.93 533.978 108.916 534.314 106.727 534.558C105.93 534.647 105.242 534.724 104.648 534.642C104.37 532.657 103.886 531.316 103.105 529.153L102.948 528.719C102.771 527.987 102.453 527.165 102.155 526.394C101.754 525.356 101.388 524.412 101.452 523.908C101.261 523.867 101.187 523.833 101.096 523.792C101.071 523.78 101.045 523.768 101.014 523.755C99.7835 523.231 97.2121 523.66 94.3187 524.143C92.1849 524.499 89.8759 524.884 87.8005 524.937C93.2404 530.83 81.5952 539.183 76.3337 540.905C69.5558 543.123 67.785 543.1 65.1052 542.761C58.9695 542.537 52.8555 540.076 47.2393 535.588C45.8377 534.464 42.8217 531.361 41.7469 529.939C37.6493 524.514 35.1554 518.36 34.5388 512.173C34.1184 508.013 34.4406 503.188 35.3469 499.916C36.0886 497.229 37.8514 493.529 39.4667 491.284C39.8953 490.694 40.9682 489.477 41.8509 488.581C44.1717 486.209 45.9087 485.04 48.3154 484.204C55.6628 481.688 63.1795 484.502 66.1883 490.888C67.0332 492.67 67.4095 494.405 67.4007 496.419C67.3836 500.407 65.9794 503.623 63.1985 506.037C59.4378 509.308 54.9979 509.441 52.0109 506.368C50.2957 504.604 49.7493 502.456 50.4541 500.305C50.7297 499.478 50.8194 499.352 51.7811 498.398C53.0001 497.213 54.2906 496.518 55.2387 496.521C55.7274 496.528 55.8438 496.588 56.1508 497.003C56.6975 497.744 56.5626 498.299 55.3325 500.266C54.6624 501.342 54.9828 502.881 56.0662 503.698C56.7528 504.226 57.4846 504.324 58.4564 504.035C60.6459 503.352 62.2445 500.911 62.4127 497.991C62.5033 496.418 62.2762 495.193 61.6121 493.757C60.9101 492.241 59.4752 490.706 58.0783 489.943C55.6821 488.648 52.13 488.901 49.2032 490.571C47.9715 491.267 45.5559 493.423 44.491 494.767C42.8485 496.865 41.5127 500.091 41.0496 503.125C40.8125 504.686 40.7596 507.745 40.9383 509.634C41.4046 514.694 43.3859 519.766 46.3818 523.601C48.1677 525.894 52.09 529.195 54.5355 530.461C58.1748 532.34 62.9252 533.062 67.3824 532.392C70.468 531.937 72.7423 530.786 73.7326 529.187C74.1728 528.47 74.1387 527.423 73.5347 523.114C72.5751 516.146 72.3218 510.548 72.8257 505.469C78.7123 508.642 86.2397 510.839 88.9323 510.535C91.6248 510.231 91.1994 509.198 89.8394 508.592C88.4794 507.987 79.1388 501.449 74.3737 497.345C74.6215 496.477 74.8954 495.61 75.1957 494.74C75.8912 492.719 76.6557 490.841 77.5052 489.064C80.8894 492.843 89.7096 500.467 97.917 500.739C100.78 501.177 101.891 499.671 99.4326 497.936C96.9742 496.2 86.8405 487.572 81.838 481.821C83.9909 478.945 86.6309 476.25 89.5604 473.9C91.2283 478.452 101.152 489.21 107.779 491.152C111.731 492.31 110.14 489.348 109.766 488.834C109.736 488.793 109.632 488.668 109.466 488.471C109.427 488.425 109.385 488.376 109.34 488.323L109.201 488.158C108.895 487.797 108.479 487.307 107.984 486.716C104.521 482.579 97.1777 473.508 96.4066 469.341C97.8238 468.574 99.2686 467.896 100.724 467.318C101.865 466.864 103.277 466.439 104.786 466.063C104.951 469.802 113.694 480.678 117.062 480.97C120.43 481.262 120.644 479.994 119.688 478.416C118.733 476.839 114.054 468.953 113.187 464.59C115.256 464.453 116.418 464.423 118.508 464.43C121.763 465.231 122.983 464.964 123.459 462.47C120.595 445.353 125.062 441.177 134.42 434.97C139.641 432.458 144.716 431.097 149.155 431.01C150.7 430.973 152.75 431.217 153.411 431.5C153.867 431.692 153.867 431.712 153.808 432.425C153.386 437.404 148.821 447.202 143.473 454.908C142.98 455.615 142.294 456.491 141.883 457.017C141.703 457.246 141.575 457.409 141.539 457.462C141.565 457.452 141.591 457.443 141.616 457.433C142.593 457.057 143.774 456.57 144.677 456.147C149.142 454.055 153.209 451.115 160.235 445.262C160.124 453.179 154.961 464.922 146.812 471.712C143.732 474.278 139.647 474.562 137.029 474.745C135.549 474.848 134.539 474.918 134.444 475.35C134.337 475.836 134.803 485.668 135.206 490.61L135.198 491.196C138.777 492.09 140.846 492.574 144.894 493.337C146.704 491.644 148.499 490.819 150.259 490.96C150.756 491 151.25 491.116 151.741 491.313C152.631 491.669 153.512 492.286 154.378 493.177C155.259 494.242 155.155 495.487 154.44 496.016C153.894 496.42 152.993 496.409 151.901 495.586C150.659 494.651 149.867 494.223 149.159 494.166C148.426 494.107 147.783 494.444 146.825 495.026C147.497 494.805 148.096 494.713 148.642 494.728C149.966 494.766 150.971 495.437 151.913 496.441C152.229 496.779 152.539 497.154 152.85 497.555C153.006 497.755 153.134 497.955 153.235 498.151C154.121 499.864 152.977 501.27 151.009 500.391C150.865 500.327 150.717 500.251 150.565 500.162C150.266 499.986 149.99 499.82 149.731 499.665C147.878 498.551 146.935 497.985 145.196 498.403C145.169 498.41 145.142 498.416 145.116 498.423C142.565 499.071 142.114 499.005 142.114 499.005C136.07 498.638 131.824 498.236 129.656 496.006ZM129.287 452.891C132.426 456.12 137.567 456.215 140.77 453.101C143.972 449.988 144.022 444.847 140.883 441.617C137.743 438.387 132.602 438.293 129.4 441.406C126.197 444.519 126.147 449.661 129.287 452.891Z" fill="#B8CC2B"/>
<path d="M119.688 478.416C118.733 476.839 114.054 468.953 113.187 464.59C110.826 464.819 107.634 465.354 104.786 466.063C104.951 469.802 113.694 480.678 117.062 480.97C120.43 481.262 120.644 479.994 119.688 478.416Z" fill="#E3E63B"/>
<path d="M141.281 475.739C143.394 474.938 146.613 471.904 146.812 471.712C143.732 474.278 139.647 474.562 137.029 474.745C135.549 474.848 134.539 474.918 134.444 475.35C134.337 475.836 134.803 485.668 135.206 490.61C136.165 489.075 137.003 487.5 137.728 485.966C139.094 483.072 140.053 480.324 140.65 478.263C140.95 477.224 141.159 476.359 141.281 475.739Z" fill="#90AD28"/>
<path d="M123.367 494.989C125.393 495.312 127.437 495.592 129.498 495.828C127.931 493.928 126.65 488.094 126.052 484.664C125.696 488.364 124.795 491.786 123.367 494.989Z" fill="#90AD28"/>
<path d="M140.65 478.263C140.053 480.324 139.094 483.072 137.728 485.966C143.513 487.196 147.866 487.849 156.373 486C157.918 484.186 159.443 482.354 160.949 480.503C160.986 480.457 161.024 480.41 161.061 480.364C161.089 480.329 161.118 480.294 161.146 480.259C161.577 479.728 162.007 479.195 162.435 478.661L162.488 478.585C162.876 478.028 163.261 477.475 163.789 476.961C161.403 476.567 159.985 477.618 158.475 478.736C157.587 479.394 156.667 480.075 155.5 480.5C151.386 481.126 145.761 480.348 140.65 478.263Z" fill="#6E8823"/>
<path d="M133.728 435.309C129.061 437.648 127.6 438.008 121.534 438.392C116.515 438.703 113.418 439.226 110.03 440.322C105.975 441.643 103.394 443.053 101.174 445.192C99.6278 446.676 99.1978 447.364 99.0931 448.545C98.9439 450.117 99.918 451.753 102.484 454.214C104.499 456.148 106.239 457.541 108.882 459.348C112.523 461.843 117.336 464.374 118.508 464.43C121.763 465.231 122.983 464.964 123.459 462.47C120.595 445.353 125.062 441.177 134.42 434.97C134.19 435.08 133.959 435.194 133.728 435.309Z" fill="#76821B"/>
<path fill-rule="evenodd" clip-rule="evenodd" d="M140.77 453.101C137.567 456.215 132.426 456.12 129.287 452.891C126.147 449.661 126.197 444.519 129.4 441.406C132.602 438.293 137.743 438.387 140.883 441.617C144.022 444.847 143.972 449.988 140.77 453.101ZM139.822 444.287C139.221 443.233 137.726 442.488 136.803 442.788C136.096 443.013 135.649 443.485 135.305 444.36C134.939 445.333 135.151 446.264 135.912 447.047C136.866 448.029 137.89 448.19 138.848 447.509C139.934 446.723 140.375 445.292 139.822 444.287Z" fill="#FEFEFF"/>
<path d="M136.803 442.788C137.726 442.488 139.221 443.233 139.822 444.287C140.375 445.292 139.934 446.723 138.848 447.509C137.89 448.19 136.866 448.029 135.912 447.047C135.151 446.264 134.939 445.333 135.305 444.36C135.649 443.485 136.096 443.013 136.803 442.788Z" fill="#141311"/>
<path d="M114.965 512.525C120.929 507.084 124.961 502.573 129.656 496.006C129.603 495.951 129.55 495.892 129.498 495.828C127.437 495.592 125.393 495.312 123.367 494.989C120.198 502.095 114.437 508.122 106.287 513.712C102.06 511.267 97.1294 512.687 95.1926 513.702C102.529 511.968 107.624 515.979 108.48 517.653C108.691 517.529 108.911 517.392 109.141 517.241C110.752 516.186 112.795 514.505 114.965 512.525Z" fill="#90AD28"/>
<path fill-rule="evenodd" clip-rule="evenodd" d="M162.488 478.585C162.876 478.028 163.261 477.475 163.789 476.961C164.042 476.64 164.295 476.319 164.548 475.997C163.397 477.464 162.234 478.92 161.061 480.364L161.146 480.259C161.577 479.728 162.007 479.195 162.435 478.661L162.488 478.585ZM151.901 495.586C150.659 494.651 149.867 494.223 149.159 494.166C149.052 494.282 148.945 494.399 148.838 494.515C148.835 494.518 148.833 494.521 148.83 494.524M151.901 495.586C152.993 496.409 153.894 496.42 154.44 496.016ZM154.44 496.016C153.493 496.788 152.361 496.621 151.913 496.441ZM151.913 496.441C150.971 495.437 149.966 494.766 148.642 494.728ZM144.677 456.147C149.142 454.055 153.209 451.115 160.235 445.262C151.788 452.298 147.345 455.229 141.616 457.433C142.593 457.057 143.774 456.57 144.677 456.147Z" fill="#90AD28"/>
<path d="M149.159 494.166C148.426 494.107 147.783 494.444 146.825 495.026C147.497 494.805 148.096 494.713 148.642 494.728C149.966 494.766 150.971 495.437 151.913 496.441C152.361 496.621 153.493 496.788 154.44 496.016C153.894 496.42 152.993 496.409 151.901 495.586C150.659 494.651 149.867 494.223 149.159 494.166Z" fill="#90AD28"/>
</g>
<defs>
<clipPath id="clip0_33_47">
<rect width="1483" height="1133" fill="white"/>
</clipPath>
</defs>
</svg>
