<svg width="839" height="1128" viewBox="0 0 839 1128" fill="none" xmlns="http://www.w3.org/2000/svg">
<path d="M326.947 514.214C324.37 510.043 323.753 510.417 322.294 510.539C322.591 511.332 322.887 512.123 323.182 512.912C323.321 513.284 323.461 513.656 323.599 514.028C324.734 517.061 325.852 520.056 326.946 522.989C329.342 523.316 329.187 520.18 334.748 518.025C333.727 516.4 332.575 514.03 331.431 511.335C328.841 512.408 328.528 512.554 326.947 514.214Z" fill="#7A4257"/>
<path d="M332.957 481.5C330.926 484.453 327.168 489.429 324.985 490.275C326.51 498.172 328.288 503.932 331.431 511.335C332.575 514.03 333.727 516.4 334.748 518.025C334.893 518.256 335.036 518.472 335.175 518.672C336.645 517.512 342.925 515.994 348.85 520.611C347.517 518.887 343.641 515.554 338.797 516.013C331.457 503.761 329.05 492.762 332.957 481.5Z" fill="#904F68"/>
<path d="M319.534 461.149C319.633 461.406 321.29 465.491 322.871 467.094C322.724 467.706 322.553 468.575 322.395 469.641C322.079 471.755 321.807 474.643 321.843 477.83C321.862 479.521 321.967 481.295 322.198 483.084C324.615 478.775 329.12 470.064 329.225 469.579C329.318 469.149 328.432 468.666 327.134 467.958C324.839 466.706 321.258 464.752 319.534 461.149Z" fill="#904F68"/>
<path d="M310.978 482.655C309.747 480.836 309.226 480.38 306.149 481.055C304.818 481.347 303.997 480.983 303.671 480.391C304.208 481.482 305.302 481.801 305.783 481.824C307.576 481.092 309.209 481.014 310.978 482.655Z" fill="#904F68"/>
<path d="M366.168 479.931C363.393 483.877 350.184 490.062 346.769 491.66C346.529 491.772 346.338 491.862 346.202 491.927C346.179 491.938 346.157 491.948 346.136 491.958C346.054 491.997 346 492.024 345.976 492.038C345.424 492.348 342.753 494.371 346.814 494.962C353.622 495.955 367.076 490.332 370.476 486.902C369.244 484.445 367.793 482.091 366.168 479.931Z" fill="#8F3759"/>
<path d="M374.676 500.088C374.55 499.159 374.384 498.222 374.181 497.282C367.263 500.413 354.503 504.02 351.556 504.571C348.609 505.122 348.99 506.947 351.764 507.74C359.311 510.901 370.465 507.658 375.098 505.641C375.068 503.75 374.926 501.913 374.676 500.088Z" fill="#8F3759"/>
<path d="M374.496 514.44C368.477 516.179 357.303 518.222 355.819 518.206C354.336 518.19 353.522 518.948 355.835 520.342C358.147 521.735 365.876 522.871 372.525 522.441C373.443 519.771 374.082 517.149 374.496 514.44Z" fill="#8F3759"/>
<path fill-rule="evenodd" clip-rule="evenodd" d="M305.391 485.76C305.394 485.76 305.389 485.76 305.391 485.76Z" fill="#A8607C"/>
<path d="M308.994 466.306C306.483 463.828 306.468 458.714 301.204 458.214C302.993 462.404 304.721 466.508 306.392 470.53C306.415 470.585 306.437 470.64 306.46 470.695C306.463 470.701 306.466 470.708 306.468 470.714C313.406 475.921 316.092 476.543 321.843 477.83C321.807 474.643 322.079 471.755 322.395 469.641C316.899 469.407 312.46 468.582 308.994 466.306Z" fill="#7A4257"/>
<path d="M540.633 581.52C557.779 555.533 577.819 519.114 598.454 473.115C590.442 470.148 582.848 466.402 575.778 461.976C554.657 507.319 536.999 544.445 511.859 575.089C491.738 599.617 466.11 622.023 428.222 646.449C425.09 608.989 425.328 585.241 427.279 549.908C427.56 544.824 427.876 539.501 428.222 533.862C451.212 475.09 464.995 437.839 481.867 384.666C473.936 388.188 465.535 390.989 456.771 392.973C443.225 433.203 432.704 463.743 417.649 490.519C415.821 464.945 414.704 442.586 413.234 413.188C412.958 407.67 412.67 401.905 412.362 395.823C402.415 394.901 392.809 392.949 383.679 390.089C383.479 405.109 383.314 419.379 383.156 433.007L383.156 433.047C382.808 463.136 382.496 490.097 381.925 515.096C382.632 513.913 383.493 512.912 384.59 511.992C389.967 507.457 397.943 508.029 403.552 513.359C405.385 515.115 406.473 516.894 407.59 520.006C408.017 521.185 408.484 522.732 408.627 523.445C409.158 526.149 409.218 530.231 408.774 532.973C408.237 536.312 406.525 540.816 404.417 544.409C401.29 549.756 396.476 554.295 390.513 557.506C388.949 558.349 384.929 559.906 383.193 560.342C382.267 560.573 381.348 560.768 380.438 560.926C379.42 583.935 377.99 606.388 375.884 630.063C356.311 603.776 345.889 575.32 332.957 539.452C332.296 539.253 331.48 538.449 330.475 537.458C328.217 535.233 324.999 532.061 320.414 532.662C317.277 532.327 318.433 529.972 319.335 529.536C320.209 529.114 320.968 528.863 321.677 528.759C321.385 528.792 320.658 528.558 320.313 528.431L320.296 528.425C319.13 527.988 318.177 526.631 320.177 525.517C321.995 524.504 324.413 524.118 326.641 525.659C327.365 526.16 328.069 526.864 328.726 527.817C328.141 526.223 327.548 524.614 326.946 522.989C325.852 520.056 324.734 517.061 323.599 514.028C320.508 505.824 317.192 497.236 313.593 488.214C313.593 488.214 313.157 488.088 311.116 486.442C309.683 485.286 308.594 485.407 306.42 485.65C306.326 485.66 306.231 485.671 306.133 485.682C306.01 485.695 305.885 485.709 305.755 485.723C305.658 485.733 305.56 485.743 305.459 485.753C305.445 485.755 305.432 485.756 305.419 485.757C305.398 485.759 305.377 485.761 305.356 485.763C305.328 485.765 305.3 485.767 305.272 485.769C305.252 485.77 305.233 485.771 305.213 485.772C305.196 485.773 305.179 485.774 305.162 485.774C305.148 485.775 305.135 485.775 305.121 485.776C305.096 485.777 305.07 485.777 305.045 485.777C305.017 485.778 304.989 485.778 304.961 485.777C302.814 485.756 302.361 484.008 303.875 482.824C304.048 482.689 304.247 482.561 304.472 482.444C304.92 482.21 305.356 481.999 305.783 481.824C305.302 481.801 304.208 481.482 303.671 480.391C303.243 479.614 303.666 478.443 304.905 477.845C306.555 477.205 307.998 477.084 309.242 477.444C308.335 475.226 307.411 472.983 306.468 470.714L306.46 470.695L306.392 470.53C303.133 462.685 299.452 454.636 295.6 446.213C293.841 442.367 292.047 438.442 290.24 434.422C283.395 438.935 276.009 442.786 268.19 445.876C276.946 470.428 291.318 510.223 302.266 540.204C310.487 562.718 316.989 580.134 318.259 582.491C319.719 585.204 304.119 576.108 284.346 563.66C254.029 544.575 213.901 517.611 210.41 513.248C208.295 510.605 190.322 508.491 207.239 528.576C226.071 548.177 247.338 564.353 268.011 580.078L268.551 580.489C318.474 618.463 364.782 653.955 364.782 728.907C363.926 967.721 358.638 1088.31 282.838 1119.52C315.233 1123.48 334.582 1122.98 376.413 1105.25C401.322 1121.86 415.982 1128.39 445.14 1127.98C439.066 1115.5 437.157 1109.79 440.382 1105.25C490.422 1123.04 501.151 1122.78 507.523 1114.77C443.821 1088 439.836 974.557 435.095 768.022C437.731 702.018 454.887 683.54 484.013 652.17C499.592 635.39 518.595 614.922 540.633 581.52Z" fill="#6E4825"/>
<path d="M321.347 528.535C321.034 528.605 320.665 528.56 320.313 528.431C320.658 528.558 321.385 528.792 321.677 528.759C323.382 528.508 324.801 529.099 326.853 530.167C326.732 530.067 326.616 529.967 326.503 529.871L326.456 529.831C325.18 528.74 324.355 528.035 321.347 528.535Z" fill="#904F68"/>
<path d="M381.599 528.098C381.37 536.393 381.106 544.484 380.794 552.417C383.509 551.94 386.943 550.883 388.946 549.842C393.252 547.613 397.152 543.842 399.676 539.452C400.622 537.815 401.844 535.023 402.277 533.511C403.117 530.571 403.247 527.095 402.631 524.512C402.224 522.853 400.932 519.898 400.105 518.756C398.147 516.029 395.035 514.325 392.328 514.503C390.746 514.613 388.809 515.408 387.544 516.489C386.346 517.514 385.632 518.53 385.061 519.992C384.001 522.706 384.435 525.581 386.135 527.108C386.895 527.774 387.598 527.989 388.439 527.796C389.759 527.506 390.689 526.245 390.528 524.992C390.231 522.7 390.339 522.141 391.142 521.697C391.592 521.449 391.723 521.443 392.168 521.639C393.029 522.03 393.909 523.195 394.521 524.775C394.995 526.038 395.024 526.189 394.931 527.053C394.676 529.293 393.289 531.012 391.003 531.898C387.376 533.303 383.762 531.798 381.599 528.098Z" fill="#6E4825"/>
<path d="M352.943 468.661C350.347 472.251 342.835 477.451 341.315 478.483C339.795 479.515 339.462 480.752 342.633 481.886C345.805 483.02 358.238 476.8 359.94 473.482C357.656 471.657 354.987 469.848 352.943 468.661Z" fill="#8F3759"/>
<path fill-rule="evenodd" clip-rule="evenodd" d="M330.518 449.149C330.642 449.792 330.829 450.571 330.982 451.19C330.73 450.937 330.477 450.685 330.225 450.433C329.485 449.678 328.589 448.717 327.929 447.939C324.754 444.191 322.291 439.839 318.358 431.622C315.172 438.838 314.972 451.617 319.534 461.149C321.258 464.752 324.839 466.706 327.134 467.958C328.432 468.666 329.318 469.149 329.225 469.579C329.12 470.064 324.615 478.775 322.198 483.084L321.962 483.618C320.862 483.412 320.008 483.266 319.242 483.135C317.495 482.837 316.198 482.615 313.429 481.927C312.492 479.642 311.209 478.149 309.557 477.547C309.453 477.509 309.348 477.475 309.242 477.444C307.998 477.084 306.555 477.205 304.905 477.845C303.666 478.443 303.243 479.614 303.671 480.391C303.997 480.983 304.818 481.347 306.149 481.055C309.226 480.38 309.747 480.836 310.978 482.655C309.209 481.014 307.576 481.092 305.783 481.824C305.356 481.999 304.92 482.21 304.472 482.444C304.247 482.561 304.048 482.689 303.875 482.824C302.361 484.008 302.814 485.756 304.961 485.777C304.989 485.778 305.017 485.778 305.045 485.777C305.07 485.777 305.096 485.777 305.121 485.776L305.162 485.774L305.213 485.772C305.233 485.771 305.252 485.77 305.272 485.769C305.3 485.767 305.328 485.765 305.356 485.763C305.377 485.761 305.398 485.759 305.419 485.757L305.459 485.753C305.56 485.743 305.658 485.733 305.755 485.723C305.885 485.709 306.01 485.695 306.133 485.682L306.42 485.65C308.594 485.407 309.683 485.286 311.116 486.442C313.157 488.088 313.593 488.214 313.593 488.214C319.219 490.391 322.095 491.395 324.985 490.275C327.168 489.429 330.926 484.453 332.957 481.5C329.05 492.762 331.457 503.761 338.797 516.013C343.641 515.554 347.517 518.887 348.85 520.611C342.925 515.994 336.645 517.512 335.175 518.672C332.719 521.101 331.859 522.821 329.386 528.891C329.173 528.502 328.952 528.145 328.726 527.817C328.069 526.864 327.365 526.16 326.641 525.659C324.413 524.118 321.995 524.504 320.177 525.517C318.177 526.631 319.13 527.988 320.296 528.425L320.313 528.431C320.665 528.56 321.034 528.605 321.347 528.535C324.355 528.035 325.18 528.74 326.456 529.831L326.503 529.871C326.616 529.967 326.732 530.067 326.853 530.167C324.801 529.099 323.382 528.508 321.677 528.759C320.968 528.863 320.209 529.114 319.335 529.536C318.433 529.972 317.277 532.327 320.414 532.662C324.999 532.061 328.217 535.233 330.475 537.458C331.48 538.449 332.296 539.253 332.957 539.452C333.646 539.26 333.755 538.186 333.9 536.75C334.073 535.051 334.296 532.845 335.591 530.991C336.055 530.403 336.685 529.789 337.274 529.215C338.069 528.442 338.792 527.738 338.944 527.255C339.134 527.298 339.22 527.298 339.32 527.298L339.36 527.298L339.371 527.298L339.39 527.298L339.404 527.299C340.735 527.335 342.886 528.791 345.306 530.43C347.091 531.638 349.023 532.945 350.88 533.856C344.607 536.475 348.794 545.839 352.677 550.882C353.358 551.767 354.031 552.519 354.635 553.078C359.853 557.901 361.466 558.616 364.034 559.421C368.931 561.454 374.512 561.956 380.438 560.926C381.348 560.768 382.267 560.573 383.193 560.342C384.929 559.906 388.949 558.349 390.513 557.506C396.476 554.295 401.29 549.756 404.417 544.409C406.525 540.816 408.237 536.312 408.774 532.973C409.218 530.231 409.158 526.149 408.627 523.445C408.484 522.732 408.017 521.185 407.59 520.006C406.473 516.894 405.385 515.115 403.552 513.359C397.943 508.029 389.967 507.457 384.59 511.992C383.493 512.912 382.632 513.913 381.925 515.096C381.662 515.536 381.42 516.002 381.196 516.497C379.556 520.116 379.492 523.612 381.008 526.953C381.19 527.355 381.388 527.737 381.599 528.098C383.762 531.798 387.376 533.303 391.003 531.898C393.289 531.012 394.676 529.293 394.931 527.053C395.024 526.189 394.995 526.038 394.521 524.775C393.909 523.195 393.029 522.03 392.168 521.639C391.723 521.443 391.592 521.449 391.142 521.697C390.339 522.141 390.231 522.7 390.528 524.992C390.689 526.245 389.759 527.506 388.439 527.796C387.598 527.989 386.895 527.774 386.135 527.108C384.435 525.581 384.001 522.706 385.061 519.992C385.632 518.53 386.346 517.514 387.544 516.489C388.809 515.408 390.746 514.613 392.328 514.503C395.035 514.325 398.147 516.029 400.105 518.756C400.932 519.898 402.224 522.853 402.631 524.512C403.247 527.095 403.117 530.571 402.277 533.511C401.844 535.023 400.622 537.815 399.676 539.452C397.152 543.842 393.252 547.613 388.946 549.842C386.943 550.883 383.509 551.94 380.794 552.417C380.027 552.552 379.317 552.641 378.714 552.67C374.637 552.861 370.035 551.542 366.277 549.084C363.671 547.391 362.089 545.405 361.856 543.545C361.755 542.713 362.221 541.779 364.557 538.127C368.319 532.215 370.873 527.25 372.525 522.441C365.876 522.871 358.147 521.735 355.835 520.342C353.522 518.948 354.336 518.19 355.819 518.206C357.303 518.222 368.477 516.179 374.496 514.44C374.632 513.551 374.744 512.653 374.833 511.74C375.043 509.621 375.13 507.602 375.098 505.641C370.465 507.658 359.311 510.901 351.764 507.74C348.99 506.947 348.609 505.122 351.556 504.571C354.503 504.02 367.263 500.413 374.181 497.282C373.426 493.783 372.154 490.247 370.476 486.902C367.076 490.332 353.622 495.955 346.814 494.962C342.753 494.371 345.424 492.348 345.976 492.038C346 492.024 346.054 491.997 346.136 491.958L346.202 491.927C346.338 491.862 346.529 491.772 346.769 491.66C350.184 490.062 363.393 483.877 366.168 479.931C365.203 478.648 364.177 477.433 363.098 476.305C362.254 475.42 361.151 474.449 359.94 473.482C358.238 476.8 345.805 483.02 342.633 481.886C339.462 480.752 339.795 479.515 341.315 478.483C342.835 477.451 350.347 472.251 352.943 468.661C352.432 468.384 352.174 468.231 351.972 468.111L351.938 468.091C350.708 468.122 349.78 468.07 349.394 467.92C346.391 467.383 345.295 466.721 345.566 464.734C345.591 464.546 345.63 464.345 345.679 464.132C355.213 449.706 352.836 444.098 346.828 434.659C343.091 430.26 339.021 426.967 335.015 425.092C333.623 424.433 331.658 423.826 330.942 423.816C330.449 423.806 330.441 423.824 330.206 424.497C328.576 429.201 328.767 439.969 330.518 449.149ZM333.71 448.598C335.366 452.728 340.085 454.722 344.25 453.052C348.415 451.383 350.45 446.681 348.794 442.551C347.139 438.421 342.42 436.426 338.254 438.096C334.089 439.766 332.054 444.468 333.71 448.598Z" fill="#A8607C"/>
<path d="M351.938 468.091C354.179 468.035 357.422 467.703 360.214 467.188C363.351 466.613 365.499 466.048 368.117 465.103C371.449 463.901 372.997 462.805 373.498 461.314C373.88 460.196 373.767 459.395 372.96 457.419C371.805 454.574 370.025 452.245 366.867 449.401C364.226 447.032 361.619 445.303 357.175 442.989C351.808 440.186 350.623 439.266 347.321 435.248C347.157 435.05 346.993 434.853 346.828 434.659C352.836 444.098 355.213 449.706 345.679 464.132C345.63 464.345 345.591 464.546 345.566 464.734C345.295 466.721 346.391 467.383 349.394 467.92C349.78 468.07 350.708 468.122 351.938 468.091Z" fill="#712140"/>
<path fill-rule="evenodd" clip-rule="evenodd" d="M338.944 527.255C338.965 527.26 338.985 527.264 339.004 527.268C339.039 527.275 339.071 527.281 339.099 527.285C339.15 527.292 339.191 527.295 339.23 527.297C339.258 527.298 339.291 527.298 339.32 527.298C339.22 527.298 339.134 527.298 338.944 527.255Z" fill="#557129"/>
<path d="M341.495 440.813C340.776 440.167 339.114 440.24 338.14 440.956C337.23 441.648 337.052 443.129 337.723 444.284C338.32 445.291 339.317 445.559 340.583 445.052C341.593 444.647 342.162 443.884 342.223 442.851C342.263 441.915 342.048 441.304 341.495 440.813Z" fill="#141311"/>
<path fill-rule="evenodd" clip-rule="evenodd" d="M333.71 448.598C335.366 452.728 340.085 454.722 344.25 453.052C348.415 451.383 350.45 446.681 348.794 442.551C347.139 438.421 342.42 436.426 338.254 438.096C334.089 439.766 332.054 444.468 333.71 448.598ZM338.14 440.956C339.114 440.24 340.776 440.167 341.495 440.813C342.048 441.304 342.263 441.915 342.223 442.851C342.162 443.884 341.593 444.647 340.583 445.052C339.317 445.559 338.32 445.291 337.723 444.284C337.052 443.129 337.23 441.648 338.14 440.956Z" fill="#FEFEFF"/>
</svg>
