<svg width="1483" height="1298" viewBox="0 0 1483 1298" fill="none" xmlns="http://www.w3.org/2000/svg">
<g clip-path="url(#clip0_2203_1793)">
<path fill-rule="evenodd" clip-rule="evenodd" d="M1042.74 305.655L1042.92 305.742L1043.17 305.869L1043.39 305.976L1043.5 306.032C1043.6 305.832 1043.7 305.633 1043.8 305.434C1043.85 305.331 1043.91 305.228 1043.96 305.126C1044 305.039 1044.05 304.951 1044.09 304.864L1044.2 304.666C1043.71 304.992 1043.22 305.322 1042.74 305.655Z" fill="#557129"/>
<path d="M1042.92 339.837L1042.74 339.762C1031.53 346.343 1021.61 354.267 1013.38 363.239C1012.53 363.197 1011.67 363.162 1010.81 363.133C1009.58 363.092 1008.33 363.065 1007.08 363.053C1006.55 363.047 1006.03 363.045 1005.5 363.045C976.048 363.045 949.496 371.145 930.8 384.115C915.789 370.491 893.113 360.701 866.887 357.427C860.609 356.644 854.128 356.233 847.5 356.233C837.433 356.233 827.705 357.18 818.514 358.943C791.318 364.162 768.822 376.536 756.149 392.724C738.229 382.714 714.947 376.667 689.5 376.667C670.485 376.667 652.68 380.044 637.417 385.927C620.644 376.861 600.354 371.559 578.5 371.559C558.87 371.559 540.504 375.836 524.813 383.276C506.143 371.239 481.287 363.896 454 363.896C433.655 363.896 414.663 367.978 398.577 375.044C391.099 372.792 382.981 371.559 374.5 371.559L373.76 371.562C367.29 350.735 336.279 334.948 299 334.948C271.384 334.948 247.208 343.611 233.9 356.568C224.286 353.112 213.031 351.125 201 351.125C196.891 351.125 192.872 351.357 188.979 351.8C175.695 353.311 163.865 357.28 154.86 362.887C149.655 362.429 144.363 362.193 139 362.193C114.996 362.193 92.4131 366.908 72.709 375.208C56.6104 369.11 37.7119 365.599 17.5 365.599C-41.3184 365.599 -89 395.332 -89 432.009C-89 439.229 -87.1523 446.18 -83.7363 452.687C-95.2393 465.604 -102 481.384 -102 498.42C-102 542.151 -57.4521 577.601 -2.5 577.601C21.7666 577.601 44.0049 570.688 61.2734 559.202C83.46 570.818 110.207 577.601 139 577.601C145.391 577.601 151.681 577.267 157.842 576.62C172.401 598.039 200.155 612.509 232 612.509C241.537 612.509 250.708 611.212 259.268 608.817C287.018 634.589 327.464 650.823 372.5 650.823C407.456 650.823 439.647 641.043 465.282 624.614C470.094 625.054 475.007 625.281 480 625.281C514.885 625.281 545.871 614.189 565.404 597.023C596.709 623.04 645.362 639.755 700 639.755C745.469 639.755 786.792 628.18 817.423 609.301C839.562 627.832 874.142 639.755 913 639.755C933.266 639.755 952.368 636.512 969.148 630.78C990.672 652.568 1028.25 667 1071 667C1105.85 667 1137.26 657.41 1159.34 642.064C1165.26 642.786 1171.32 643.16 1177.5 643.16C1225.83 643.16 1267.34 620.225 1285.38 587.444C1304.98 608.769 1337.59 622.726 1374.5 622.726C1394.27 622.726 1412.8 618.724 1428.76 611.732C1443.26 617.643 1460.07 621.024 1478 621.024C1532.68 621.024 1577 589.575 1577 550.782C1577 517.582 1544.54 489.762 1500.9 482.429C1528.15 466.141 1546 438.956 1546 408.17C1546 358.326 1499.21 317.92 1441.5 317.92C1424.89 317.92 1409.18 321.267 1395.24 327.222C1382.12 317.765 1365.92 310.956 1347.96 307.862C1340.89 306.643 1333.54 306 1326 306C1281.53 306 1243.64 328.363 1229.22 359.691C1204.3 334.746 1165.98 318.771 1123 318.771C1093.63 318.771 1066.43 326.233 1044.2 338.92L1044.09 339.09L1043.96 339.312L1043.8 339.574L1043.5 340.084L1043.39 340.036L1043.17 339.945L1042.92 339.837Z" fill="#557129"/>
<ellipse cx="111.5" cy="548.5" rx="86.5" ry="62.5" fill="#557129"/>
</g>
<defs>
<clipPath id="clip0_2203_1793">
<rect width="1483" height="1298" fill="white"/>
</clipPath>
</defs>
</svg>
