<svg width="1106" height="1298" viewBox="0 0 1106 1298" fill="none" xmlns="http://www.w3.org/2000/svg">
<path fill-rule="evenodd" clip-rule="evenodd" d="M353.537 513.073C363.845 509.518 373.581 505.086 382.604 499.893C407.55 548.335 424.541 587.6 438.345 621.02C455.392 662.293 469.703 694.771 495.504 725.019C498.404 696.561 500.332 669.637 501.683 641.915C503.747 599.568 504.358 553.515 505.09 498.311C505.298 482.615 505.516 466.18 505.78 448.879C517.815 452.17 530.478 454.416 543.591 455.477C543.996 462.475 544.376 469.11 544.74 475.46C546.677 509.288 548.151 535.017 550.56 564.445C570.406 533.633 584.275 498.491 602.131 452.198C613.685 449.915 624.759 446.691 635.215 442.639C612.974 503.826 594.804 546.691 564.498 614.32C564.041 620.809 563.625 626.935 563.255 632.784C560.683 673.442 560.369 700.77 564.498 743.875C614.443 715.767 648.226 689.984 674.751 661.76C675.334 661.14 675.913 660.518 676.49 659.894C676.515 659.866 676.54 659.839 676.566 659.811C676.654 659.715 676.742 659.62 676.83 659.524C676.831 659.522 676.833 659.521 676.834 659.519L676.838 659.515C679.35 656.784 681.806 654.009 684.213 651.189C685.813 649.313 687.391 647.418 688.949 645.503C688.986 645.457 689.024 645.41 689.061 645.364C690.234 643.92 691.397 642.464 692.548 640.997C716.835 610.045 736.421 573.935 759.011 531.6C768.331 536.693 778.341 541.004 788.904 544.418C761.701 597.349 735.284 639.257 712.682 669.16C683.631 707.597 658.58 731.149 638.043 750.458C599.648 786.556 577.033 807.819 573.558 883.769C579.808 1121.43 585.061 1251.97 669.035 1282.77C660.635 1291.99 646.492 1292.3 580.527 1271.83C576.276 1277.04 578.792 1283.62 586.799 1297.98C548.363 1298.45 529.037 1290.94 496.201 1271.83C441.059 1292.22 415.551 1292.8 372.848 1288.25C472.77 1252.33 479.74 1113.57 480.869 838.76C480.869 752.512 419.824 711.671 354.013 667.974L353.302 667.501C326.049 649.407 298.015 630.793 273.189 608.238C250.889 585.125 274.583 587.558 277.37 590.599C281.972 595.619 334.87 626.647 374.835 648.609C400.901 662.932 421.466 673.399 419.54 670.278C417.866 667.565 409.295 647.525 398.457 621.617C384.025 587.118 365.08 541.326 353.537 513.073Z" fill="#6E4825"/>
<path d="M639.265 696.622C639.44 696.575 639.607 696.527 639.769 696.481C641.389 696.02 642.437 695.721 644.972 697.436C645.228 697.631 645.584 697.744 645.958 697.773C645.591 697.745 644.83 697.654 644.577 697.502C643.127 696.56 641.584 696.505 639.265 696.622Z" fill="#90AD28"/>
<path d="M624.407 634.341C625.178 638.508 632.521 647.579 635.984 651.716C636.479 652.307 636.895 652.797 637.201 653.158C637.299 653.274 637.391 653.383 637.466 653.471C637.632 653.668 637.736 653.793 637.766 653.834C638.14 654.348 639.731 657.31 635.779 656.152C629.152 654.21 619.228 643.452 617.56 638.9C619.712 637.174 622.02 635.633 624.407 634.341Z" fill="#E3E63B"/>
<path d="M608.213 649.175C608.717 648.379 609.26 647.594 609.838 646.821C614.841 652.572 624.974 661.2 627.433 662.936C629.891 664.671 628.78 666.177 625.917 665.739C617.71 665.467 608.889 657.843 605.505 654.064C606.324 652.352 607.222 650.735 608.213 649.175Z" fill="#E3E63B"/>
<path d="M602.374 662.345C607.139 666.449 616.479 672.987 617.839 673.592C619.199 674.198 619.625 675.231 616.932 675.535C614.24 675.839 606.712 673.642 600.826 670.469C601.105 667.649 601.618 664.99 602.374 662.345Z" fill="#E3E63B"/>
<path d="M647 683.5C651.095 680.772 652.688 681.278 653.968 682C653.553 682.371 653.138 682.74 652.72 683.109C649.8 685.693 646.818 688.246 643.711 690.818C641.388 690.115 641.313 686.533 637.141 682.241C638.752 681.186 640.795 679.505 642.965 677.525C644.879 679.587 646.252 681.323 647 683.5Z" fill="#6E8823"/>
<path fill-rule="evenodd" clip-rule="evenodd" d="M637.201 653.158C637.259 653.227 637.318 653.297 637.369 653.356C637.317 653.295 637.261 653.229 637.201 653.158Z" fill="#E3E63B"/>
<path fill-rule="evenodd" clip-rule="evenodd" d="M637.201 653.158L637.34 653.323L637.351 653.336C637.304 653.28 637.253 653.22 637.201 653.158Z" fill="#E3E63B"/>
<path fill-rule="evenodd" clip-rule="evenodd" d="M657.656 661.006C657.603 660.951 657.55 660.892 657.498 660.828C655.931 658.928 654.65 653.094 654.052 649.664C653.696 653.364 652.795 656.786 651.367 659.989C648.198 667.095 642.437 673.122 634.287 678.712C630.06 676.267 625.129 677.687 623.193 678.702C630.529 676.968 635.624 680.979 636.48 682.653C637.705 685.896 637.771 687.825 637.488 694.398C638.884 693.362 640.175 692.804 641.344 692.597L641.391 692.589C641.459 692.577 641.527 692.567 641.594 692.558C644.149 692.208 646.105 693.54 647.301 695.171C648.66 697.025 647.223 697.864 645.977 697.775L645.958 697.773C645.584 697.744 645.228 697.631 644.972 697.436C642.437 695.721 641.389 696.02 639.769 696.481C639.607 696.527 639.44 696.575 639.265 696.622C641.584 696.505 643.127 696.56 644.577 697.502C645.18 697.894 645.768 698.44 646.389 699.191C647.03 699.966 647.099 702.598 644.096 701.592C639.93 698.978 636.916 699.314 634.727 699.558C633.93 699.647 633.242 699.724 632.648 699.642C632.37 697.657 631.886 696.316 631.105 694.153L630.948 693.719C630.771 692.987 630.453 692.165 630.155 691.394C629.754 690.356 629.388 689.412 629.452 688.908C629.261 688.867 629.187 688.833 629.096 688.792C629.071 688.78 629.045 688.768 629.014 688.755C627.783 688.231 625.212 688.66 622.319 689.143C620.185 689.499 617.876 689.884 615.8 689.937C621.24 695.83 609.595 704.183 604.334 705.905C597.556 708.123 595.785 708.1 593.105 707.761C586.969 707.537 580.855 705.076 575.239 700.588C573.838 699.464 570.822 696.361 569.747 694.939C565.649 689.514 563.155 683.36 562.539 677.173C562.118 673.013 562.441 668.188 563.347 664.916C564.089 662.229 565.851 658.529 567.467 656.284C567.895 655.694 568.968 654.477 569.851 653.581C572.172 651.209 573.909 650.04 576.315 649.204C583.663 646.688 591.18 649.502 594.188 655.888C595.033 657.67 595.41 659.405 595.401 661.419C595.384 665.407 593.979 668.623 591.199 671.037C587.438 674.308 582.998 674.441 580.011 671.368C578.296 669.604 577.749 667.456 578.454 665.305C578.73 664.478 578.819 664.352 579.781 663.398C581 662.213 582.291 661.518 583.239 661.521C583.727 661.528 583.844 661.588 584.151 662.003C584.698 662.744 584.563 663.299 583.333 665.266C582.662 666.342 582.983 667.881 584.066 668.698C584.753 669.226 585.485 669.324 586.456 669.035C588.646 668.352 590.244 665.911 590.413 662.991C590.503 661.418 590.276 660.193 589.612 658.757C588.91 657.241 587.475 655.706 586.078 654.943C583.682 653.648 580.13 653.901 577.203 655.571C575.971 656.267 573.556 658.423 572.491 659.767C570.849 661.865 569.513 665.091 569.05 668.125C568.813 669.686 568.76 672.745 568.938 674.634C569.405 679.694 571.386 684.766 574.382 688.601C576.168 690.894 580.09 694.195 582.536 695.461C586.175 697.34 590.925 698.062 595.382 697.392C598.468 696.937 600.742 695.786 601.733 694.187C602.173 693.47 602.139 692.423 601.535 688.114C600.575 681.146 600.322 675.548 600.826 670.469C606.712 673.642 614.24 675.839 616.932 675.535C619.625 675.231 619.199 674.198 617.839 673.592C616.479 672.987 607.139 666.449 602.374 662.345C602.622 661.477 602.895 660.61 603.196 659.74C603.891 657.719 604.656 655.841 605.505 654.064C608.889 657.843 617.71 665.467 625.917 665.739C628.78 666.177 629.891 664.671 627.433 662.936C624.974 661.2 614.841 652.572 609.838 646.821C611.991 643.945 614.631 641.25 617.56 638.9C619.228 643.452 629.152 654.21 635.779 656.152C639.731 657.31 638.14 654.348 637.766 653.834C637.736 653.793 637.632 653.668 637.466 653.471C637.427 653.425 637.385 653.376 637.34 653.323L637.201 653.158C636.895 652.797 636.479 652.307 635.984 651.716C632.521 647.579 625.178 638.508 624.407 634.341C625.824 633.574 627.269 632.896 628.724 632.318C629.865 631.864 631.277 631.439 632.786 631.063C632.951 634.802 641.694 645.678 645.062 645.97C648.43 646.262 648.644 644.994 647.688 643.416C646.733 641.839 642.054 633.953 641.187 629.59C643.256 629.453 644.418 629.423 646.508 629.43C649.763 630.231 650.983 629.964 651.459 627.47C648.595 610.353 653.062 606.177 662.42 599.97C667.641 597.458 672.716 596.097 677.155 596.01C678.7 595.973 680.75 596.217 681.411 596.5C681.867 596.692 681.867 596.712 681.808 597.425C681.386 602.404 676.821 612.202 671.473 619.908C670.98 620.615 670.294 621.491 669.883 622.017C669.703 622.246 669.575 622.409 669.539 622.462C669.565 622.452 669.591 622.443 669.616 622.433C670.593 622.057 671.774 621.57 672.677 621.147C677.142 619.055 681.209 616.115 688.235 610.262C688.124 618.179 682.961 629.922 674.812 636.712C671.732 639.278 667.647 639.562 665.029 639.745C663.549 639.848 662.539 639.918 662.444 640.35C662.337 640.836 662.803 650.668 663.206 655.61L663.198 656.196C666.777 657.09 668.846 657.574 672.894 658.337C674.704 656.644 676.499 655.819 678.259 655.96C678.756 656 679.25 656.116 679.741 656.313C680.631 656.669 681.512 657.286 682.378 658.177C683.259 659.242 683.155 660.487 682.44 661.016C681.894 661.42 680.993 661.409 679.901 660.586C678.659 659.651 677.867 659.223 677.159 659.166C676.426 659.107 675.783 659.444 674.825 660.026C675.497 659.805 676.096 659.713 676.642 659.728C677.966 659.766 678.971 660.437 679.913 661.441C680.229 661.779 680.539 662.154 680.85 662.555C681.006 662.755 681.134 662.955 681.235 663.151C682.121 664.864 680.977 666.27 679.009 665.391C678.865 665.327 678.717 665.251 678.565 665.162C678.266 664.986 677.99 664.82 677.731 664.665C675.878 663.551 674.935 662.985 673.196 663.403C673.169 663.41 673.142 663.416 673.116 663.423C670.565 664.071 670.114 664.005 670.114 664.005C664.07 663.638 659.824 663.236 657.656 661.006ZM657.287 617.891C660.426 621.12 665.567 621.215 668.77 618.101C671.972 614.988 672.022 609.847 668.883 606.617C665.743 603.387 660.602 603.293 657.4 606.406C654.197 609.519 654.147 614.661 657.287 617.891Z" fill="#B8CC2B"/>
<path d="M647.688 643.416C646.733 641.839 642.054 633.953 641.187 629.59C638.826 629.819 635.634 630.354 632.786 631.063C632.951 634.802 641.694 645.678 645.062 645.97C648.43 646.262 648.644 644.994 647.688 643.416Z" fill="#E3E63B"/>
<path d="M669.281 640.739C671.394 639.938 674.613 636.904 674.812 636.712C671.732 639.278 667.647 639.562 665.029 639.745C663.549 639.848 662.539 639.918 662.444 640.35C662.337 640.836 662.803 650.668 663.206 655.61C664.165 654.075 665.003 652.5 665.728 650.966C667.094 648.072 668.053 645.324 668.65 643.263C668.95 642.224 669.159 641.359 669.281 640.739Z" fill="#90AD28"/>
<path d="M651.367 659.989C653.393 660.312 655.437 660.592 657.498 660.828C655.931 658.928 654.65 653.094 654.052 649.664C653.696 653.364 652.795 656.786 651.367 659.989Z" fill="#90AD28"/>
<path d="M668.65 643.263C668.053 645.324 667.094 648.072 665.728 650.966C671.513 652.196 675.866 652.849 684.373 651C685.918 649.186 687.443 647.354 688.949 645.503C688.986 645.457 689.024 645.41 689.061 645.364C689.089 645.329 689.118 645.294 689.146 645.259C689.577 644.728 690.007 644.195 690.435 643.661L690.488 643.585C690.876 643.028 691.261 642.475 691.789 641.961C689.403 641.567 687.985 642.618 686.475 643.736C685.587 644.394 684.667 645.075 683.5 645.5C679.386 646.126 673.761 645.348 668.65 643.263Z" fill="#6E8823"/>
<path d="M661.728 600.309C657.061 602.648 655.6 603.008 649.534 603.392C644.515 603.703 641.418 604.226 638.03 605.322C633.975 606.643 631.394 608.053 629.174 610.192C627.628 611.676 627.198 612.364 627.093 613.545C626.944 615.117 627.918 616.753 630.484 619.214C632.499 621.148 634.239 622.541 636.882 624.348C640.523 626.843 645.336 629.374 646.508 629.43C649.763 630.231 650.983 629.964 651.459 627.47C648.595 610.353 653.062 606.177 662.42 599.97C662.19 600.08 661.959 600.194 661.728 600.309Z" fill="#76821B"/>
<path fill-rule="evenodd" clip-rule="evenodd" d="M668.77 618.101C665.567 621.215 660.426 621.12 657.287 617.891C654.147 614.661 654.197 609.519 657.4 606.406C660.602 603.293 665.743 603.387 668.883 606.617C672.022 609.847 671.972 614.988 668.77 618.101ZM667.822 609.287C667.221 608.233 665.726 607.488 664.803 607.788C664.096 608.013 663.649 608.485 663.305 609.36C662.939 610.333 663.151 611.264 663.912 612.047C664.866 613.029 665.89 613.19 666.848 612.509C667.934 611.723 668.375 610.292 667.822 609.287Z" fill="#FEFEFF"/>
<path d="M664.803 607.788C665.726 607.488 667.221 608.233 667.822 609.287C668.375 610.292 667.934 611.723 666.848 612.509C665.89 613.19 664.866 613.029 663.912 612.047C663.151 611.264 662.939 610.333 663.305 609.36C663.649 608.485 664.096 608.013 664.803 607.788Z" fill="#141311"/>
<path d="M642.965 677.525C648.929 672.084 652.961 667.573 657.656 661.006C657.603 660.951 657.55 660.892 657.498 660.828C655.437 660.592 653.393 660.312 651.367 659.989C648.198 667.095 642.437 673.122 634.287 678.712C630.06 676.267 625.129 677.687 623.193 678.702C630.529 676.968 635.624 680.979 636.48 682.653C636.691 682.529 636.911 682.392 637.141 682.241C638.752 681.186 640.795 679.505 642.965 677.525Z" fill="#90AD28"/>
<path fill-rule="evenodd" clip-rule="evenodd" d="M690.488 643.585C690.876 643.028 691.261 642.475 691.789 641.961C692.042 641.64 692.295 641.319 692.548 640.997C691.397 642.464 690.234 643.92 689.061 645.364L689.146 645.259C689.577 644.728 690.007 644.195 690.435 643.661L690.488 643.585ZM679.901 660.586C678.659 659.651 677.867 659.223 677.159 659.166C677.052 659.282 676.945 659.399 676.838 659.515L676.834 659.519L676.838 659.515C676.835 659.518 676.833 659.521 676.83 659.524M679.901 660.586C680.993 661.409 681.894 661.42 682.44 661.016ZM682.44 661.016C681.493 661.788 680.361 661.621 679.913 661.441ZM679.913 661.441C678.971 660.437 677.966 659.766 676.642 659.728ZM672.677 621.147C677.142 619.055 681.209 616.115 688.235 610.262C679.788 617.298 675.345 620.229 669.616 622.433C670.593 622.057 671.774 621.57 672.677 621.147Z" fill="#90AD28"/>
<path d="M677.159 659.166C676.426 659.107 675.783 659.444 674.825 660.026C675.497 659.805 676.096 659.713 676.642 659.728C677.966 659.766 678.971 660.437 679.913 661.441C680.361 661.621 681.493 661.788 682.44 661.016C681.894 661.42 680.993 661.409 679.901 660.586C678.659 659.651 677.867 659.223 677.159 659.166Z" fill="#90AD28"/>
</svg>
