<svg width="256" height="256" viewBox="0 0 256 256" fill="none" xmlns="http://www.w3.org/2000/svg">
<g clip-path="url(#clip0_93_5)">
<path d="M166.641 220.723C173.861 223.236 182.369 227.639 192.255 232.758C193.346 233.323 194.024 232.184 192.988 231.524C182.345 224.752 170.875 218.159 169.49 215.663C181.198 214.272 209.581 213.47 216.369 248.575C175.615 252.573 166.641 220.723 166.641 220.723Z" fill="#7E9B24"/>
<path d="M145.962 197.752C144.823 184.369 150.579 155.993 182.72 149.544C186.745 161.299 186.135 187.603 151.499 198.774C154.911 192.111 160.006 183.083 164.079 176.129C164.693 175.079 163.313 174.065 162.55 175.011C155.803 183.376 151.263 190.96 145.962 197.752Z" fill="#7E9B24"/>
<path d="M-25.8851 243.896C-12.1768 242.528 -10.5992 244.487 -8.38164 247.953C-20.5202 251.636 -32.4857 255.275 -44.1144 258.818C-48.9337 254.028 -43.4175 245.974 -48.0991 229.883C-42.7286 229.388 -35.4701 227.914 -27.5027 225.868C-25.4786 233.482 -24.8777 237.532 -25.8851 243.896Z" fill="#6E8823"/>
<path d="M36.4934 171.539C33.3678 181.114 28.6737 197.996 30.5117 204.314C10.2806 214.387 -5.61243 220.248 -27.5027 225.868C-35.4701 227.914 -42.7286 229.388 -48.0991 229.883C-48.8627 229.953 -49.5882 230.004 -50.2721 230.033C-50.1911 224.77 -57.5221 208.161 -77.9395 202.816C-71.8172 202.849 -57.7619 205.813 -50.519 217.409C-10.6414 212.883 18.0226 199.483 36.4934 171.539Z" fill="#90AD28"/>
<path d="M104.832 166.771C104.089 166.987 92.1443 170.261 85.8678 169.467C84.7523 170.841 83.1017 172.704 80.9935 174.878C76.8124 179.191 70.8314 184.726 63.654 190.087C59.8491 192.929 55.708 195.723 51.3207 198.26C56.8143 185.511 68.5709 160.587 69.4737 159.526C71.6933 156.917 87.6364 170.372 104.832 166.771Z" fill="#90AD28"/>
<path d="M114.886 201.329C124.704 202.704 133.118 195.42 141.212 203.152C130.303 206.352 118.864 209.732 107.066 213.237C83.6032 206.637 76.3434 200.726 63.654 190.087C70.8314 184.726 76.8124 179.191 80.9935 174.878C90.8949 186.746 103.891 197.474 114.886 201.329Z" fill="#6E8823"/>
<path d="M-177.063 327.395C-183.129 329.747 -191.675 303.836 -183.037 301.323C-179.442 300.277 -137.565 287.361 -81.3174 270.17C-76.2149 273.855 -65.6787 270.588 -56.3088 286.862C-117.841 307.293 -174.284 326.317 -177.063 327.395Z" fill="#8A5326"/>
<path d="M74.2519 224.436C80.4132 224.079 82.3208 224.466 86.0653 232.486C87.6851 235.955 89.8988 237.166 91.7784 236.884C88.4251 237.549 85.8446 235.65 84.9735 234.617C83.5471 229.364 80.935 225.585 74.2519 224.436Z" fill="#8EA628"/>
<path d="M-61.7297 268.23C-56.2726 269.471 -53.1049 269.412 -48.6866 277.735C-48.3093 278.554 -47.5786 279.301 -46.6921 279.866C-47.5628 279.314 -49.3249 278.089 -49.7504 277.38C-52.0996 273.146 -55.8416 270.987 -61.7297 268.23Z" fill="#8EA628"/>
<path d="M-44.1144 258.818C-32.4857 255.275 -20.5202 251.636 -8.38164 247.953C13.2975 241.375 35.5287 234.654 57.3791 228.088C57.3791 228.088 58.4053 228.845 65.5635 230.591C71.2809 231.986 72.5496 235.209 76.7555 242.046C77.0141 242.466 77.28 242.849 77.551 243.197C48.6673 252.229 -0.219333 268.262 -47.4874 283.935C-48.0368 281.263 -48.773 279.142 -49.7504 277.38C-49.3249 278.089 -47.5628 279.314 -46.6921 279.866L-46.6481 279.893C-43.6822 281.751 -39.0277 281.562 -39.9542 275.195C-40.796 269.409 -44.0596 263.351 -51.3028 261.008C-48.9221 260.282 -46.5255 259.552 -44.1144 258.818Z" fill="#8A5326"/>
<path d="M-16.6876 94.7235C-21.2973 109.356 -9.49918 158.702 -9.24981 160.463C-9.00044 162.225 -8.95778 171.639 -17.2087 163.585C-31.044 150.08 -41.4553 110.452 -39.6019 97.0056C-32.0139 95.5624 -24.2831 94.7832 -16.6876 94.7235Z" fill="#E3E63B"/>
<path d="M31.043 105.011C27.4591 116.936 28.6724 142.579 28.9631 147.734C29.2537 152.889 27.0614 155.743 19.116 150.599C11.1705 145.454 3.8357 107.082 8.33763 97.6202C16.3103 99.6059 24.905 102.476 31.043 105.011Z" fill="#E3E63B"/>
<path d="M-76.2066 110.137C-73.9155 108.831 -71.5411 107.602 -69.0972 106.451C-64.2791 127.239 -50.5526 161.881 -46.7528 169.4C-42.953 176.919 -47.6777 179.182 -54.1819 174.342C-74.1183 162.892 -85.9152 132.457 -89.3216 118.671C-85.0489 115.513 -80.7052 112.692 -76.2066 110.137Z" fill="#E3E63B"/>
<path d="M-107.938 135.033C-101.545 151.439 -87.0339 179.869 -84.4664 183.153C-81.899 186.436 -82.2029 189.547 -89.2599 186.764C-96.3168 183.981 -112.045 168.665 -122.433 153.088C-118.039 146.484 -113.278 140.582 -107.938 135.033Z" fill="#E3E63B"/>
<path d="M86.0817 51.1925C101.585 58.2092 105.672 59.2367 120.282 59.5809C121.004 59.599 121.723 59.6223 122.438 59.6507C91.1479 62.7122 74.6208 67.1706 59.2258 113.256C54.7746 118.797 51.4059 117.856 44.4095 111.601C41.584 109.924 33.0073 97.3456 27.2825 86.3959C23.1191 78.4581 20.6463 72.7289 18.2024 65.2985C15.0895 55.8459 14.8299 50.5207 17.2628 46.8304C19.0727 44.0468 21.0394 42.9103 26.8098 41.2718C35.1071 38.8981 43.3409 38.8 55.1042 40.859C64.9204 42.5978 73.2637 45.3697 86.0817 51.1925Z" fill="#76821B"/>
<path fill-rule="evenodd" clip-rule="evenodd" d="M69.4737 159.526C68.5709 160.587 56.8143 185.511 51.3207 198.26L50.5302 199.699C58.2076 206.609 62.686 210.522 71.6945 217.724C78.3945 215.915 83.9161 216.231 88.0816 218.891C91.3927 221.005 93.8469 224.599 95.3551 229.783C96.1346 233.572 94.244 236.513 91.7784 236.884C89.8988 237.166 87.6851 235.955 86.0653 232.486C82.3208 224.466 80.4132 224.079 74.2519 224.436C80.935 225.585 83.5471 229.364 84.9735 234.617C85.3128 235.866 85.585 237.199 85.829 238.6C85.9513 239.302 86.0048 239.964 85.9981 240.581C85.9389 245.98 81.2636 247.955 77.551 243.197C77.28 242.849 77.0141 242.466 76.7555 242.046C72.5496 235.209 71.2809 231.986 65.5635 230.591C58.4053 228.845 57.3791 228.088 57.3791 228.088C42.9164 219.244 32.944 212.674 30.5117 204.314C28.6737 197.996 33.3678 181.114 36.4934 171.539C18.0226 199.483 -10.6414 212.883 -50.519 217.409C-57.7619 205.813 -71.8172 202.849 -77.9395 202.816C-57.5221 208.161 -50.1911 224.77 -50.2721 230.033C-51.5015 239.661 -53.8728 244.517 -63.2027 260.396C-58.3901 259.67 -54.4668 259.984 -51.3028 261.008C-44.0596 263.351 -40.796 269.409 -39.9542 275.195C-39.0277 281.562 -43.6822 281.751 -46.6481 279.893L-46.6921 279.866C-47.5786 279.301 -48.3093 278.554 -48.6866 277.735C-53.1049 269.412 -56.2726 269.471 -61.7297 268.23C-55.8416 270.987 -52.0996 273.146 -49.7504 277.38C-48.773 279.142 -48.0368 281.263 -47.4874 283.935C-46.9204 286.693 -50.2063 293.292 -56.3088 286.862C-65.6787 270.588 -76.2149 273.855 -81.3174 270.17C-82.9521 266.096 -82.0412 261.309 -78.4822 250.13C-77.2561 245.34 -77.29 238.297 -75.8645 236.27C-76.3982 235.82 -76.4741 235.653 -76.7462 235.317C-80.8372 230.26 -98.7144 226.997 -110.97 220.89C-105.257 242.604 -145.02 247.966 -160.29 245.315C-179.962 241.9 -184.311 239.518 -190.491 235.159C-205.369 226.55 -217.254 212.435 -225.248 193.964C-227.237 189.343 -230.621 177.713 -231.41 172.783C-234.419 153.99 -232.504 135.498 -225.905 119.391C-221.481 108.552 -214.35 97.0456 -207.813 90.146C-202.45 84.4746 -193.233 77.6419 -186.291 74.2115C-184.456 73.315 -180.206 71.7156 -176.846 70.6575C-167.993 67.84 -162.164 67.2324 -155.115 68.3254C-133.644 71.7516 -118.752 88.5789 -119.699 108.321C-119.949 113.835 -121.297 118.621 -123.963 123.588C-129.242 133.426 -136.937 139.534 -146.984 141.853C-160.577 145.001 -171.73 139.5 -175.081 127.981C-177.006 121.366 -175.535 115.336 -170.969 110.945C-169.202 109.262 -168.815 109.068 -165.184 107.972C-160.613 106.642 -156.509 106.617 -154.17 107.871C-152.97 108.53 -152.762 108.832 -152.548 110.261C-152.168 112.81 -153.231 114.006 -158.856 117.255C-161.925 119.034 -163.154 123.261 -161.548 126.703C-160.543 128.91 -158.863 130.114 -156.08 130.675C-149.77 131.861 -142.612 127.925 -138.361 120.925C-136.072 117.155 -135.025 113.828 -134.78 109.404C-134.526 104.735 -136.058 99.0549 -138.511 95.3349C-142.736 88.9869 -151.851 84.9483 -161.28 85.233C-165.24 85.3371 -174.043 87.4953 -178.441 89.4196C-185.257 92.4506 -192.797 98.6746 -197.925 105.567C-200.561 109.115 -204.708 116.609 -206.747 121.515C-212.239 134.64 -214 149.783 -211.628 163.199C-210.223 171.214 -204.859 184.526 -200.475 190.868C-193.944 200.293 -183.146 208.316 -171.245 212.511C-163.018 215.438 -155.883 215.579 -151.335 212.925C-149.305 211.73 -148.015 209.098 -143.849 197.649C-137.072 179.159 -130.348 164.985 -122.433 153.088C-112.045 168.665 -96.3168 183.981 -89.2599 186.764C-82.2029 189.547 -81.899 186.436 -84.4664 183.153C-87.0339 179.869 -101.545 151.439 -107.938 135.033C-106.185 133.212 -104.37 131.429 -102.484 129.672C-98.1109 125.588 -93.7545 121.948 -89.3216 118.671C-85.9152 132.457 -74.1183 162.892 -54.1819 174.342C-47.6777 179.182 -42.953 176.919 -46.7528 169.4C-50.5526 161.881 -64.2791 127.239 -69.0972 106.451C-59.9967 102.165 -49.9314 98.9702 -39.6019 97.0056C-41.4553 110.452 -31.044 150.08 -17.2087 163.585C-8.95778 171.639 -9.00044 162.225 -9.24981 160.463C-9.49918 158.702 -21.2973 109.356 -16.6876 94.7235C-12.1761 94.6881 -7.71242 94.9065 -3.35449 95.3904C0.0628039 95.7642 4.11288 96.568 8.33763 97.6202C3.8357 107.082 11.1705 145.454 19.116 150.599C27.0614 155.743 29.2537 152.889 28.9631 147.734C28.6724 142.579 27.4591 116.936 31.043 105.011C36.3375 107.388 39.2523 108.838 44.4095 111.601C51.4059 117.856 54.7746 118.797 59.2258 113.256C74.6208 67.1706 91.1479 62.7122 122.438 59.6507C138.646 60.2956 152.982 63.5964 164.073 69.2095C167.941 71.1471 172.688 74.4413 173.95 76.0087C174.827 77.0836 174.801 77.1315 173.719 78.8166C166.137 90.5746 141.984 108.806 118.641 120.837C115.555 122.42 111.031 124.341 110.506 124.615C113.455 124.978 117.131 125.338 119.993 125.482C133.778 126.174 147.697 124.243 172.754 118.999C162.083 138.427 133.897 160.685 104.832 166.771C87.6364 170.372 71.6933 156.917 69.4737 159.526ZM114.33 112.822C102.324 116.314 89.7361 109.33 86.2134 97.2222C82.6907 85.114 89.5673 72.4669 101.573 68.974C113.578 65.4812 126.167 72.4653 129.689 84.5734C133.212 96.6816 126.335 109.329 114.33 112.822Z" fill="#B8CC2B"/>
<path d="M118.064 82.1117C120.74 82.5825 123.459 86.3862 123.56 89.7825C123.607 92.9931 120.639 95.9524 116.921 96.47C113.659 96.8951 111.338 95.152 110.268 91.4733C109.414 88.5377 110.114 85.9561 112.295 84.0319C114.296 82.3212 116.021 81.7388 118.064 82.1117Z" fill="#141311"/>
<path fill-rule="evenodd" clip-rule="evenodd" d="M86.2134 97.2222C89.7361 109.33 102.324 116.314 114.33 112.822C126.335 109.329 133.212 96.6816 129.689 84.5734C126.167 72.4653 113.578 65.4812 101.573 68.974C89.5673 72.4669 82.6907 85.114 86.2134 97.2222ZM123.56 89.7825C123.459 86.3862 120.74 82.5825 118.064 82.1117C116.021 81.7388 114.296 82.3212 112.295 84.0319C110.114 85.9561 109.414 88.5377 110.268 91.4733C111.338 95.152 113.659 96.8951 116.921 96.47C120.639 95.9524 123.607 92.9931 123.56 89.7825Z" fill="#FEFEFF"/>
<path d="M151.499 198.774C150.865 200.011 151.918 201.434 153.285 201.182C175.487 197.093 211.42 190.801 216.54 190.286C221.925 189.744 226.601 195.123 219.783 201.434C217.163 203.859 177.198 211.606 170.223 214.643L170.22 214.645C169.309 215.042 169.177 215.099 169.49 215.663C170.875 218.159 182.345 224.752 192.988 231.524C194.024 232.184 193.346 233.323 192.255 232.758C182.369 227.639 173.861 223.236 166.641 220.723C162.562 219.304 158.894 218.488 155.622 218.488C154.231 218.731 147.107 220.919 133.192 225.335C131.045 226.016 131.262 230.867 133.395 231.589C142.785 234.764 153.436 239.809 154.976 241.272C157.25 243.431 156.882 250.592 152.355 248.886C127.644 233.908 110.53 234.655 103.014 235.834C101.375 236.016 95.304 237.734 85.9981 240.581C86.0048 239.964 85.9513 239.302 85.829 238.6C85.585 237.199 85.3128 235.866 84.9735 234.617C85.8446 235.65 88.4251 237.549 91.7784 236.884C94.244 236.513 96.1346 233.572 95.3551 229.783C93.8469 224.599 91.3927 221.005 88.0816 218.891C94.4929 216.977 100.829 215.089 107.066 213.237C118.864 209.732 130.303 206.352 141.212 203.152C144.03 202.325 144.456 200.06 145.962 197.752C151.263 190.96 155.803 183.376 162.55 175.011C163.313 174.065 164.693 175.079 164.079 176.129C160.006 183.083 154.911 192.111 151.499 198.774V198.774Z" fill="#8A5326"/>
<path fill-rule="evenodd" clip-rule="evenodd" d="M211.52 11.2782C202.193 8.94941 192.627 14.0394 190.386 23.0147C188.241 31.6094 191.427 39.4785 195.563 45.5219C199.707 51.5763 204.992 56.087 207.635 58.1481C209.151 59.3301 211.087 59.8136 212.98 59.4827C216.282 58.9058 223.067 57.4087 229.57 54.0126C236.062 50.6227 242.573 45.1747 244.719 36.58C246.959 27.6048 240.909 18.6155 231.581 16.2868C227.709 15.3201 223.839 16.1013 220.655 17.3727C218.442 14.7539 215.392 12.2449 211.52 11.2782Z" fill="#EF3A3A"/>
</g>
<defs>
<clipPath id="clip0_93_5">
<rect width="256" height="256" fill="white" transform="matrix(-1 0 0 1 256 0)"/>
</clipPath>
</defs>
</svg>
